<svg width="200" height="200" viewBox="0 0 200 200" xmlns="http://www.w3.org/2000/svg"><title>Bell</title><desc>Bell</desc><g fill="none"><circle fill="#EDE7F6" cx="100" cy="100" r="100"/><g><path d="M100 45.333c-1.152 0-2.083-.933-2.083-2.083v-4.167c0-1.151.932-2.083 2.083-2.083 1.152 0 2.083.933 2.083 2.083v4.167c0 1.151-.932 2.083-2.083 2.083z" id="Shape" fill="#673AB7"/><path d="M93.751 101.583v2.083c0 3.452 2.798 6.25 6.25 6.25s6.25-2.798 6.25-6.25v-2.083h-12.5z" id="Shape" fill="#EDE7F6"/><path d="M100 112c-4.596 0-8.333-3.738-8.333-8.333v-2.083c0-1.151.932-2.083 2.083-2.083h12.5c1.152 0 2.083.933 2.083 2.083v2.083c0 4.595-3.737 8.333-8.333 8.333zm-4.167-8.333c0 2.298 1.87 4.167 4.167 4.167 2.297 0 4.167-1.869 4.167-4.167h-8.333z" id="Shape" fill="#673AB7"/><path d="M122.917 82.833v-16.667c0-12.656-10.26-22.917-22.917-22.917-12.656 0-22.917 10.26-22.917 22.917v16.667c0 3.934-1.853 7.639-5 10l-1.667 1.25c-3.203 2.403-1.504 7.5 2.5 7.5h54.167c4.004 0 5.703-5.098 2.5-7.5l-1.667-1.25c-3.148-2.361-5-6.066-5-10z" id="Shape" fill="#fff"/><path d="M127.083 103.667h-54.167c-2.736 0-5.064-1.677-5.929-4.273-.865-2.596-.01-5.334 2.181-6.977l1.664-1.249c2.61-1.956 4.167-5.071 4.167-8.333v-16.667c0-13.785 11.214-25 25-25s25 11.215 25 25v16.667c0 3.261 1.558 6.376 4.167 8.332l1.668 1.251c2.187 1.641 3.044 4.379 2.179 6.975-.867 2.597-3.194 4.274-5.931 4.274zm-27.083-58.333c-11.487 0-20.833 9.345-20.833 20.833v16.667c0 4.566-2.181 8.928-5.833 11.667l-1.664 1.249c-1.117.837-.84 1.993-.728 2.326.112.335.582 1.424 1.976 1.424h54.167c1.394 0 1.866-1.09 1.978-1.425.112-.334.389-1.489-.726-2.324l-1.668-1.251c-3.652-2.738-5.833-7.1-5.833-11.666v-16.667c0-11.488-9.347-20.833-20.833-20.833zM85.417 68.25c-1.152 0-2.083-.933-2.083-2.083 0-9.19 7.477-16.667 16.667-16.667 1.152 0 2.083.933 2.083 2.083 0 1.151-.932 2.083-2.083 2.083-6.893 0-12.5 5.607-12.5 12.5 0 1.151-.932 2.083-2.083 2.083zM100 128.667c-8.366 0-16.142-4.162-20.797-11.133-.641-.957-.382-2.251.574-2.89.958-.64 2.248-.38 2.891.575 3.882 5.812 10.36 9.281 17.332 9.281 6.972 0 13.45-3.47 17.332-9.281.639-.955 1.929-1.215 2.891-.575.956.639 1.215 1.933.574 2.89-4.655 6.971-12.431 11.133-20.797 11.133zM100 145.333c-13.942 0-26.9-6.937-34.662-18.556-.641-.957-.382-2.251.574-2.89.958-.642 2.25-.38 2.889.575 6.989 10.459 18.65 16.704 31.199 16.704 12.549 0 24.213-6.245 31.201-16.704.637-.955 1.927-1.217 2.889-.575.956.639 1.215 1.933.574 2.89-7.762 11.619-20.719 18.556-34.664 18.556zM100 162c-19.525 0-37.669-9.711-48.533-25.975-.641-.957-.382-2.251.574-2.89.958-.64 2.252-.382 2.889.575 10.091 15.105 26.939 24.123 45.07 24.123 18.132 0 34.981-9.018 45.072-24.123.635-.957 1.927-1.215 2.889-.575.956.639 1.215 1.933.574 2.89-10.864 16.264-29.008 25.975-48.535 25.975z" fill="#673AB7"/></g></g></svg>
