<?xml version="1.0" encoding="UTF-8" standalone="no"?>
<svg width="50px" height="50px" viewBox="0 0 50 50" version="1.1" xmlns="http://www.w3.org/2000/svg" xmlns:xlink="http://www.w3.org/1999/xlink" xmlns:sketch="http://www.bohemiancoding.com/sketch/ns">
    <!-- Generator: Sketch 3.4.1 (15681) - http://www.bohemiancoding.com/sketch -->
    <defs></defs>
    <g id="Page-1" stroke="none" stroke-width="1" fill="none" fill-rule="evenodd" sketch:type="MSPage">
        <g id="Oval-1-+-noun_70816_cc" sketch:type="MSLayerGroup">
            <circle id="Oval-1" fill="#613DC1" sketch:type="MSShapeGroup" cx="25" cy="25" r="25"></circle>
            <g id="noun_70816_cc" transform="translate(8.000000, 13.000000)" fill="#F5EFED" sketch:type="MSShapeGroup">
                <path d="M2.07022989,11.6256322 L10.5478736,5.96448276 C10.9171839,5.71787356 11.016954,5.21821839 10.7699425,4.84850575 C10.5233333,4.4791954 10.0240805,4.37902299 9.65396552,4.62643678 L1.17632184,10.2875862 C0.452988506,10.7703448 0.0213218391,11.5781609 0.0213218391,12.447931 C0.0213218391,13.3177011 0.452988506,14.1255172 1.17632184,14.6082759 L9.65396552,20.2694253 C9.79114943,20.3611494 9.94643678,20.405 10.1001149,20.405 C10.36,20.405 10.6150575,20.2794828 10.7699425,20.0473563 C11.016954,19.6776437 10.9171839,19.1779885 10.5478736,18.9313793 L2.07022989,13.2698276 C1.79103448,13.0831609 1.63051724,12.7838506 1.63051724,12.4475287 C1.63051724,12.1116092 1.79103448,11.8122989 2.07022989,11.6256322 L2.07022989,11.6256322 Z" id="Shape"></path>
                <path d="M33.8236782,10.2875862 L25.3456322,4.62643678 C24.9763218,4.37942529 24.4762644,4.4791954 24.2296552,4.84850575 C23.9826437,5.21821839 24.0824138,5.71787356 24.4517241,5.96448276 L32.9293678,11.6256322 C33.2085632,11.8122989 33.3690805,12.1116092 33.3690805,12.4475287 C33.3690805,12.7834483 33.2089655,13.0831609 32.9293678,13.2698276 L24.4521264,18.9313793 C24.0828161,19.1779885 23.983046,19.6776437 24.2300575,20.0473563 C24.3849425,20.2794828 24.64,20.405 24.8998851,20.405 C25.0531609,20.405 25.2088506,20.3611494 25.3460345,20.2694253 L33.8236782,14.6082759 C34.5470115,14.1255172 34.9786782,13.3177011 34.9786782,12.447931 C34.9786782,11.5781609 34.5470115,10.7703448 33.8236782,10.2875862 L33.8236782,10.2875862 Z" id="Shape"></path>
                <path d="M21.4107471,0.335517241 C20.9875287,0.200747126 20.5349425,0.43408046 20.3997701,0.857298851 L13.067069,23.8325862 C12.9318966,24.2558046 13.1656322,24.7083908 13.5888506,24.8435632 C13.6701149,24.8693103 13.7525862,24.8817816 13.8334483,24.8817816 C14.1741954,24.8817816 14.4904023,24.6637356 14.5998276,24.3213793 L21.9325287,1.34649425 C22.0677011,0.923275862 21.8339655,0.470689655 21.4107471,0.335517241 L21.4107471,0.335517241 Z" id="Shape"></path>
            </g>
        </g>
    </g>
</svg>
