<svg width="200" height="200" viewBox="0 0 200 200" xmlns="http://www.w3.org/2000/svg"><title>Laptop</title><desc>Laptop</desc><g fill="none"><circle fill="#EDE7F6" cx="100" cy="100" r="100"/><g><path id="Shape" fill="#fff" d="M148.276 141.379h-96.552l6.897-34.483h82.759z"/><path d="M148.276 143.103h-96.552c-.517 0-1.006-.232-1.334-.631-.327-.399-.459-.924-.357-1.431l6.897-34.483c.161-.806.869-1.386 1.69-1.386h82.759c.822 0 1.53.58 1.69 1.386l6.897 34.483c.102.507-.029 1.032-.357 1.431-.327.4-.817.631-1.334.631zm-94.449-3.448h92.346l-6.207-31.034h-79.932l-6.207 31.034zM75.862 115.517c-.225 0-.449-.052-.656-.138-.206-.087-.397-.207-.568-.362l-.207-.276c-.069-.086-.121-.189-.156-.293-.051-.104-.086-.207-.103-.311l-.035-.344c0-.225.051-.449.137-.656.087-.206.207-.397.363-.568.172-.156.362-.276.568-.363.621-.275 1.397-.12 1.88.363.155.172.275.362.362.568.086.207.138.431.138.656l-.035.344c-.018.104-.052.207-.104.311-.035.104-.087.207-.156.293l-.206.276c-.327.31-.759.5-1.224.5zM68.966 115.517c-.466 0-.897-.19-1.224-.5-.311-.327-.5-.776-.5-1.224 0-.225.051-.449.137-.656.087-.224.207-.397.363-.568.482-.466 1.241-.638 1.879-.363.207.087.397.207.569.363.155.172.275.362.362.568.104.207.138.431.138.656l-.035.344c-.018.104-.052.207-.104.311-.035.104-.087.207-.156.293-.051.104-.137.189-.206.276-.173.155-.362.275-.569.362-.207.086-.431.138-.655.138zM72.414 122.414l-.345-.035c-.104-.018-.207-.052-.311-.104-.103-.035-.206-.087-.31-.156l-.258-.206c-.156-.173-.276-.362-.363-.569-.086-.207-.137-.431-.137-.655l.035-.345c.017-.104.051-.207.103-.311.035-.103.087-.206.156-.31l.207-.258.258-.207c.104-.069.207-.121.31-.156.104-.051.207-.086.311-.103.345-.069.689-.035 1 .103.207.087.397.207.569.363l.206.258c.069.104.121.207.156.31.051.104.086.207.104.311l.035.345c0 .224-.035.448-.138.655-.087.207-.207.397-.362.569-.173.155-.345.275-.569.362-.207.086-.431.138-.655.138zM68.966 129.31l-.345-.035c-.104-.018-.207-.052-.311-.104-.103-.035-.206-.087-.31-.156l-.258-.206c-.311-.327-.5-.776-.5-1.224 0-.449.189-.897.5-1.224l.258-.207c.104-.069.207-.121.31-.156.104-.051.207-.086.311-.103.569-.121 1.173.069 1.569.466.155.172.275.344.362.568.086.207.138.431.138.656 0 .224-.052.448-.138.655-.087.207-.207.397-.362.569l-.258.206c-.104.069-.207.121-.311.156-.104.051-.207.086-.311.104l-.344.035zM131.034 129.31l-.327-.035c-.121-.018-.225-.052-.328-.104-.103-.035-.206-.087-.31-.156l-.258-.206-.207-.258c-.069-.104-.121-.207-.156-.311-.051-.104-.086-.207-.103-.311l-.035-.344.035-.345c.017-.104.051-.207.103-.311.035-.103.087-.206.156-.31l.207-.258.258-.207c.104-.069.207-.121.31-.156.104-.051.207-.086.328-.103.206-.052.448-.052.672 0 .104.017.207.051.311.103.104.035.207.087.311.156l.258.207.206.258c.069.104.121.207.156.31.051.104.086.207.104.311l.035.345-.035.344c-.018.104-.052.207-.104.311-.035.104-.087.207-.156.311l-.206.258-.258.206c-.104.069-.207.121-.311.156-.104.051-.207.086-.311.104l-.344.035zM127.586 122.414c-.225 0-.449-.052-.656-.138-.224-.087-.397-.207-.568-.362-.156-.173-.276-.345-.363-.569-.086-.207-.137-.431-.137-.655 0-.225.051-.449.137-.656.087-.206.207-.397.363-.568.172-.156.362-.276.568-.363.414-.172.897-.189 1.311 0 .207.087.397.207.569.363.31.327.5.775.5 1.224 0 .448-.19.897-.5 1.224-.173.155-.362.275-.569.362-.207.086-.431.138-.655.138zM131.034 115.517c-.449 0-.897-.19-1.224-.5-.311-.327-.5-.776-.5-1.224 0-.449.189-.897.5-1.224.637-.638 1.81-.638 2.448 0 .31.327.5.775.5 1.224 0 .448-.19.897-.5 1.224-.327.31-.759.5-1.224.5zM82.759 115.517c-.225 0-.449-.052-.656-.138-.224-.087-.397-.207-.568-.362-.069-.087-.156-.173-.207-.276-.069-.086-.121-.189-.156-.293-.051-.104-.086-.207-.103-.311l-.035-.344c0-.225.051-.449.137-.656.087-.224.207-.397.363-.568.172-.156.344-.276.568-.363.621-.275 1.397-.12 1.88.363.155.172.275.344.362.568.086.207.138.431.138.656 0 .466-.19.897-.5 1.224-.327.31-.776.5-1.224.5zM89.655 115.517c-.449 0-.897-.19-1.224-.5-.311-.327-.5-.776-.5-1.224 0-.225.051-.449.137-.656.087-.224.207-.397.363-.568.482-.466 1.241-.638 1.879-.363.224.087.397.207.569.363.155.172.275.344.362.568.086.207.138.431.138.656 0 .466-.19.897-.5 1.224-.173.155-.345.275-.569.362-.207.086-.431.138-.655.138zM96.552 115.517c-.466 0-.897-.19-1.224-.5-.311-.327-.5-.776-.5-1.224 0-.225.051-.449.137-.656.087-.224.207-.397.363-.568.482-.466 1.241-.638 1.879-.363.207.087.397.207.569.363.155.172.275.362.362.568.104.207.138.431.138.656l-.035.344c-.018.104-.052.207-.104.311-.035.104-.087.207-.156.293-.051.104-.137.189-.206.276-.173.155-.362.275-.569.362-.207.086-.431.138-.655.138zM103.448 115.517c-.225 0-.449-.052-.656-.138-.206-.087-.397-.207-.568-.362l-.207-.276c-.069-.086-.121-.189-.156-.293-.051-.104-.086-.207-.103-.311l-.035-.344c0-.225.051-.449.137-.656.087-.206.207-.397.363-.568.172-.156.362-.276.568-.363.311-.137.656-.172 1-.103.104.017.207.051.311.103.104.035.207.087.311.156l.258.207c.155.172.275.362.362.568.086.207.138.431.138.656l-.035.344c-.018.104-.052.207-.104.311-.035.104-.087.207-.156.293l-.206.276-.258.206c-.104.069-.207.121-.311.156-.104.051-.207.086-.311.104l-.344.035zM110.345 115.517c-.225 0-.449-.052-.656-.138-.224-.087-.397-.207-.568-.362-.069-.087-.156-.173-.207-.276-.069-.086-.121-.189-.156-.293-.051-.104-.086-.207-.103-.311l-.035-.344c0-.225.051-.449.137-.656.087-.224.207-.397.363-.568.172-.156.344-.276.568-.363.311-.137.656-.172 1-.103.104.017.207.051.311.103.104.035.207.087.311.156l.258.207c.155.172.275.344.362.568.086.207.138.431.138.656 0 .448-.19.897-.5 1.224l-.258.206c-.104.069-.207.121-.311.156-.104.051-.207.086-.311.104l-.344.035zM117.241 115.517l-.345-.035c-.104-.018-.207-.052-.311-.104-.103-.035-.206-.087-.293-.156-.104-.051-.189-.137-.275-.206-.156-.173-.276-.345-.363-.569-.086-.207-.137-.431-.137-.655l.035-.345c.017-.104.051-.207.103-.311.035-.103.087-.206.156-.31l.207-.258c.482-.483 1.259-.621 1.879-.363.224.087.397.207.569.363l.206.258c.069.104.121.207.156.31.051.104.086.207.104.311l.035.345c0 .224-.052.448-.138.655-.087.224-.207.397-.362.569-.327.31-.776.5-1.224.5zM124.138 115.517c-.225 0-.449-.052-.656-.138-.206-.087-.397-.207-.568-.362-.156-.173-.276-.362-.363-.569-.086-.207-.137-.431-.137-.655 0-.449.189-.897.5-1.224.172-.156.362-.276.568-.363.621-.275 1.38-.12 1.88.363l.206.258c.069.104.121.207.156.31.051.104.086.207.104.311l.035.345c0 .224-.035.448-.138.655-.087.207-.207.397-.362.569-.173.155-.345.275-.569.362-.207.086-.431.138-.655.138zM79.31 122.414c-.225 0-.449-.052-.656-.138-.224-.087-.397-.207-.568-.362-.156-.173-.276-.345-.363-.569-.086-.207-.137-.431-.137-.655l.035-.345c.017-.104.051-.207.103-.311.035-.103.087-.206.156-.31l.207-.258c.172-.156.362-.276.568-.363.638-.275 1.38-.12 1.88.363l.206.258c.069.104.121.207.156.31.051.104.086.207.104.311l.035.345c0 .224-.052.448-.138.655-.087.207-.207.397-.362.569-.327.31-.776.5-1.224.5zM86.207 122.414c-.449 0-.897-.19-1.224-.5-.156-.156-.276-.345-.363-.569-.086-.207-.137-.431-.137-.655 0-.466.189-.897.5-1.224.397-.397.999-.587 1.568-.466.104.017.207.051.311.103.104.035.207.087.311.156l.258.207c.31.327.5.759.5 1.224 0 .224-.052.448-.138.655-.087.224-.207.413-.362.569l-.258.206c-.104.069-.207.121-.311.156-.104.051-.207.086-.311.104l-.344.035zM93.103 122.414l-.345-.035c-.104-.018-.207-.052-.311-.104-.103-.035-.206-.087-.31-.156l-.258-.206c-.156-.173-.276-.362-.363-.569-.086-.207-.137-.431-.137-.655l.035-.345c.017-.104.051-.207.103-.311.035-.103.087-.206.156-.31l.207-.258.258-.207c.104-.069.207-.121.31-.156.104-.051.207-.086.311-.103.569-.104 1.155.069 1.569.466.31.327.5.759.5 1.224 0 .224-.052.448-.138.655-.087.224-.207.413-.362.569-.173.155-.362.275-.569.362-.207.086-.431.138-.655.138zM100 122.414c-.225 0-.449-.052-.656-.138-.206-.087-.397-.207-.568-.362-.156-.173-.276-.345-.363-.569-.086-.207-.137-.431-.137-.655l.035-.345c.017-.104.051-.207.103-.311.035-.103.087-.206.156-.31l.207-.258c.172-.156.362-.276.568-.363.621-.275 1.38-.12 1.88.363l.206.258c.069.104.121.207.156.31.051.104.086.207.104.311l.035.345c0 .224-.035.448-.138.655-.087.207-.207.397-.362.569-.173.155-.362.275-.569.362-.207.086-.431.138-.655.138zM106.897 122.414c-.225 0-.449-.052-.656-.138-.224-.087-.397-.207-.568-.362-.156-.173-.276-.345-.363-.569-.086-.207-.137-.431-.137-.655 0-.449.189-.897.5-1.224.172-.156.362-.276.568-.363.311-.137.656-.172 1-.103.104.017.207.051.311.103.104.035.207.087.311.156l.258.207.206.258c.069.104.121.207.156.31.051.104.086.207.104.311l.035.345c0 .224-.052.448-.138.655-.087.207-.207.397-.362.569-.327.31-.776.5-1.224.5zM113.793 122.414l-.345-.035c-.104-.018-.207-.052-.311-.104-.103-.035-.206-.087-.293-.156-.104-.051-.189-.137-.275-.206-.156-.156-.276-.345-.363-.569-.086-.207-.137-.431-.137-.655 0-.466.189-.897.5-1.224l.275-.207c.087-.069.19-.121.293-.156.104-.051.207-.086.311-.103.224-.052.466-.052.689 0 .104.017.207.051.311.103.104.035.207.087.311.156l.258.207c.31.327.5.759.5 1.224 0 .224-.052.448-.138.655-.087.224-.207.413-.362.569-.327.31-.776.5-1.224.5zM120.69 122.414l-.345-.035c-.104-.018-.207-.052-.311-.104-.103-.035-.206-.087-.31-.156l-.258-.206c-.156-.173-.276-.362-.363-.569-.086-.207-.137-.431-.137-.655l.035-.345c.017-.104.051-.207.103-.311.035-.103.087-.206.156-.31l.207-.258.258-.207c.104-.069.207-.121.31-.156.104-.051.207-.086.311-.103.345-.069.689-.035 1 .103.207.087.397.207.569.363l.206.258c.069.104.121.207.156.31.051.104.086.207.104.311l.035.345c0 .224-.052.448-.138.655-.087.224-.207.397-.362.569-.173.155-.345.275-.569.362-.207.086-.431.138-.655.138zM75.862 129.31c-.225 0-.449-.035-.656-.138-.206-.087-.397-.207-.568-.362-.156-.173-.276-.362-.363-.569-.086-.207-.137-.431-.137-.655 0-.225.051-.449.137-.656.087-.206.207-.397.363-.568.172-.156.362-.276.568-.363.638-.258 1.397-.12 1.88.363.155.172.275.344.362.568.086.207.138.431.138.656 0 .224-.052.448-.138.655-.087.207-.207.397-.362.569-.327.31-.776.5-1.224.5zM82.759 129.31c-.449 0-.897-.19-1.224-.5-.156-.173-.276-.345-.363-.569-.086-.207-.137-.431-.137-.655 0-.225.051-.449.137-.656.087-.224.207-.397.363-.568.172-.156.344-.276.568-.363.414-.172.897-.172 1.311 0 .207.087.397.207.569.363.31.327.5.775.5 1.224 0 .448-.19.897-.5 1.224-.327.31-.776.5-1.224.5zM110.345 129.31h-20.69c-.952 0-1.724-.772-1.724-1.724s.772-1.724 1.724-1.724h20.69c.952 0 1.724.772 1.724 1.724s-.772 1.724-1.724 1.724zM117.241 129.31l-.345-.035c-.104-.018-.207-.052-.311-.104-.103-.035-.206-.087-.31-.156l-.258-.206c-.311-.327-.5-.776-.5-1.224 0-.449.189-.897.5-1.224.482-.466 1.241-.621 1.879-.363.224.087.397.207.569.363.155.172.275.344.362.568.086.207.138.431.138.656 0 .224-.052.448-.138.655-.087.224-.207.397-.362.569-.327.31-.776.5-1.224.5zM124.138 129.31c-.225 0-.449-.035-.656-.138-.206-.087-.397-.207-.568-.362-.156-.173-.276-.362-.363-.569-.086-.207-.137-.431-.137-.655 0-.225.051-.449.137-.656.087-.206.207-.397.363-.568.172-.156.344-.276.568-.363.414-.172.897-.172 1.311 0 .224.087.397.207.569.363.155.172.275.362.362.568.086.207.138.431.138.656 0 .224-.052.448-.138.655-.087.207-.207.397-.362.569-.327.31-.776.5-1.224.5z" id="Shape" fill="#673AB7"/><path d="M141.379 106.897h-82.759v-51.724c0-1.904 1.544-3.448 3.448-3.448h75.862c1.904 0 3.448 1.544 3.448 3.448v51.724z" id="Shape" fill="#fff"/><path d="M141.379 108.621h-82.759c-.952 0-1.724-.772-1.724-1.724v-51.724c0-2.852 2.32-5.172 5.172-5.172h75.862c2.852 0 5.172 2.32 5.172 5.172v51.724c0 .952-.772 1.724-1.724 1.724zm-81.034-3.448h79.31v-50c0-.95-.774-1.724-1.724-1.724h-75.862c-.95 0-1.724.774-1.724 1.724v50z" id="Shape" fill="#673AB7"/><path fill="#EDE7F6" d="M66 59h68.966v41.379h-68.966z"/><path d="M134.483 101.724h-68.966c-.952 0-1.724-.772-1.724-1.724v-41.379c0-.952.772-1.724 1.724-1.724h68.966c.952 0 1.724.772 1.724 1.724v41.379c0 .952-.772 1.724-1.724 1.724zm-67.241-3.448h65.517v-37.931h-65.517v37.931z" id="Shape" fill="#673AB7"/><path d="M144.828 148.276h-89.655c-1.904 0-3.448-1.544-3.448-3.448v-3.448h96.552v3.448c0 1.904-1.544 3.448-3.448 3.448z" id="Shape" fill="#EDE7F6"/><path d="M144.828 150h-89.655c-2.852 0-5.172-2.32-5.172-5.172v-3.448c0-.952.772-1.724 1.724-1.724h96.552c.952 0 1.724.772 1.724 1.724v3.448c0 2.852-2.32 5.172-5.172 5.172zm-91.379-6.897v1.724c0 .95.774 1.724 1.724 1.724h89.655c.95 0 1.724-.774 1.724-1.724v-1.724h-93.103z" id="Shape" fill="#673AB7"/><path id="Shape" fill="#EDE7F6" d="M110.345 141.379h-20.69l1.724-6.897h17.241z"/><path d="M110.345 143.103h-20.69c-.531 0-1.032-.245-1.359-.663-.327-.418-.443-.964-.314-1.479l1.724-6.897c.192-.767.881-1.306 1.673-1.306h17.241c.791 0 1.481.539 1.673 1.306l1.724 6.897c.129.515.013 1.061-.314 1.479-.327.418-.828.663-1.359.663zm-18.481-3.448h16.273l-.862-3.448h-14.549l-.862 3.448z" fill="#673AB7"/></g></g></svg>
