<?xml version="1.0" encoding="UTF-8" standalone="no"?>
<svg width="31px" height="38px" viewBox="0 0 31 38" version="1.1" xmlns="http://www.w3.org/2000/svg" xmlns:xlink="http://www.w3.org/1999/xlink">
    <g id="Logo" stroke="none" stroke-width="1" fill="none" fill-rule="evenodd">
        <g id="logo-purple" fill="#512DA8">
            <g id="Group-17">
                <path d="M15.3735395,18.3081587 C8.3242268,18.3081587 4.47723368,16.3393968 4.47723368,15.3284762 C4.47723368,14.3169524 8.3242268,12.3487937 15.3735395,12.3487937 C22.4246564,12.3487937 26.2704467,14.3169524 26.2704467,15.3284762 C26.2704467,16.3393968 22.4246564,18.3081587 15.3735395,18.3081587 L15.3735395,18.3081587 L15.3735395,18.3081587 Z M25.8152062,19.4385079 L24.3863402,30.0320635 C24.3556701,30.2612698 24.0988832,30.4874603 23.8667526,30.4880635 L19.4604811,30.5049524 C18.1885739,30.510381 17.1536082,31.5514603 17.1536082,32.828381 L17.1536082,35.6826032 C17.1536082,35.8623492 17.0026632,36.013746 16.8234536,36.013746 L8.34106529,36.013746 C8.09690722,36.013746 7.81726804,35.7773016 7.77637457,35.5360317 C7.75592784,35.4135873 7.73608247,35.2899365 7.71503436,35.1674921 C7.65670103,34.8206667 7.59896907,34.4738413 7.54123711,34.1270159 C7.45584192,33.6173333 7.37044674,33.1088571 7.28505155,32.5991746 C7.179811,31.9670476 7.07396907,31.3367302 6.96812715,30.7046032 C6.85085911,30.0019048 6.73238832,29.2973968 6.6145189,28.5946984 C6.49304124,27.8696825 6.37276632,27.145873 6.25128866,26.4208571 C6.13402062,25.7217778 6.0161512,25.0220952 5.90008591,24.3224127 C5.79484536,23.6939048 5.68960481,23.0666032 5.58376289,22.4393016 C5.5007732,21.9465079 5.41958763,21.4531111 5.33719931,20.9609206 C5.27345361,20.5736825 5.20790378,20.1870476 5.13994845,19.7998095 C5.09484536,19.5410476 5.0419244,19.3196825 5.20790378,19.0922857 C5.34140893,18.9077143 5.54106529,18.7852698 5.77319588,18.7943175 C5.87603093,18.7973333 6.00412371,18.8648889 6.10214777,18.8944444 C6.22001718,18.9306349 6.33668385,18.9668254 6.45335052,19.0048254 C6.72216495,19.0892698 6.98917526,19.1767302 7.25798969,19.2587619 C7.84914089,19.4391111 8.44690722,19.5856825 9.05369416,19.7039048 C9.69656357,19.8281587 10.3454467,19.9391429 10.9955326,20.0235873 C11.6726804,20.1128571 12.3528351,20.1695556 13.0335911,20.2166032 C13.7305842,20.264254 14.4275773,20.288381 15.1257732,20.2926032 C15.2087629,20.2938095 15.2905498,20.2938095 15.3735395,20.2938095 C18.8843643,20.2938095 22.3500859,19.8076508 24.8241409,18.8057778 C24.9179553,18.7557143 25.0207904,18.7219365 25.1344502,18.7219365 C25.5103093,18.7219365 25.8152062,19.0271429 25.8152062,19.404127 C25.8152062,19.414381 25.8091924,19.4240317 25.8152062,19.4385079 L25.8152062,19.4385079 L25.8152062,19.4385079 Z M21.9549828,3.78431746 C21.6717354,4.2535873 21.822079,4.86460317 22.2899485,5.14749206 C26.0389175,7.41904762 28.3878866,11.2679048 28.7210481,15.5872381 L28.2351375,15.5872381 C28.2435567,15.5021905 28.2501718,15.4153333 28.2501718,15.3284762 C28.2501718,12.0677143 21.7733677,10.3625397 15.3735395,10.3625397 C8.97491409,10.3625397 2.49750859,12.0677143 2.49750859,15.3284762 C2.49750859,15.4334286 2.50472509,15.5365714 2.5185567,15.6391111 L2.09879725,15.6391111 C2.05670103,15.6391111 2.02783505,15.5504444 2.02963918,15.5444127 C2.37302405,11.2751429 4.69312715,7.46247619 8.38616838,5.19152381 C8.85283505,4.90561905 8.99896907,4.29460317 8.71331615,3.82593651 C8.4282646,3.35907937 7.81726804,3.21069841 7.35180412,3.49780952 C2.74828179,6.32790476 0,11.2455873 0,16.6536508 C0,17.2031429 0.443213058,17.6470794 0.989862543,17.6470794 L2.445189,17.6651746 C2.63341924,17.6621587 2.75369416,17.7665079 2.78977663,17.9058413 L5.82431271,35.8671746 C6.0257732,37.0644762 7.13170103,38 8.34106529,38 L16.8234536,38 C17.5787801,38 18.1789519,37.5705397 18.7406357,37.1127302 C19.2728522,36.6778413 19.8201031,36.2634603 20.3637457,35.8436508 C20.8941581,35.4346984 21.4233677,35.025746 21.9531787,34.6167937 C22.4829897,34.2066349 23.0121993,33.795873 23.5408076,33.3851111 C24.032732,33.0020952 24.5222509,32.6154603 25.0123711,32.2306349 C25.5283505,31.8277143 25.9902062,31.4386667 26.2235395,30.8047302 C26.2842784,30.6406667 26.3257732,30.4693651 26.3492268,30.2956508 L27.9879725,18.0837778 C27.9993986,17.8226032 28.203866,17.618127 28.4564433,17.618127 C28.9814433,17.6344127 29.7048969,17.6470794 29.7578179,17.6470794 C30.3044674,17.6470794 30.7482818,17.2031429 30.7482818,16.6536508 C30.7482818,11.2045714 27.9687285,6.26819048 23.313488,3.44714286 C22.8462199,3.16244444 22.2376289,3.31384127 21.9549828,3.78431746 Z" id="Fill-16"></path>
                <path d="M11.5680412,4.37904762 C14.0168385,3.67273016 16.6959622,3.72580952 19.1158935,4.53225397 C19.2890893,4.58955556 19.4646907,4.61669841 19.6366838,4.61669841 C20.3282646,4.61669841 20.9723368,4.1775873 21.2026632,3.48273016 C21.4895189,2.61536508 21.0222509,1.67863492 20.1568729,1.39031746 C17.1079038,0.375174603 13.7408076,0.307015873 10.6551546,1.19730159 C9.77955326,1.44942857 9.27319588,2.36746032 9.5257732,3.24568254 C9.77654639,4.12390476 10.6918385,4.6335873 11.5680412,4.37904762" id="Fill-15"></path>
                <path d="M13.6602234,31.2854603 L10.7195017,31.2854603 C10.1728522,31.2854603 9.72963918,31.7293968 9.72963918,32.2788889 C9.72963918,32.8271746 10.1728522,33.2717143 10.7195017,33.2717143 L13.6602234,33.2717143 C14.2074742,33.2717143 14.6506873,32.8271746 14.6506873,32.2788889 C14.6506873,31.7293968 14.2074742,31.2854603 13.6602234,31.2854603" id="Fill-13"></path>
                <path d="M21.0312715,22.8078413 L9.39166667,22.8078413 C8.84501718,22.8078413 8.40180412,23.252381 8.40180412,23.8012698 C8.40180412,24.3495556 8.84501718,24.7940952 9.39166667,24.7940952 L21.0312715,24.7940952 C21.5791237,24.7940952 22.0217354,24.3495556 22.0217354,23.8012698 C22.0217354,23.252381 21.5791237,22.8078413 21.0312715,22.8078413" id="Fill-11"></path>
                <path d="M17.5775773,27.0469524 L9.86675258,27.0469524 C9.31890034,27.0469524 8.87689003,27.4908889 8.87689003,28.0397778 C8.87689003,28.5880635 9.31890034,29.0332063 9.86675258,29.0332063 L17.5775773,29.0332063 C18.1236254,29.0332063 18.5680412,28.5880635 18.5680412,28.0397778 C18.5680412,27.4908889 18.1236254,27.0469524 17.5775773,27.0469524" id="Fill-12"></path>
            </g>
        </g>
    </g>
</svg>
