<svg width="160" height="35" viewBox="0 0 160 35" xmlns="http://www.w3.org/2000/svg"><title>FormBucket Logo</title><g fill="#fff"><path d="M35.226 15.655c0-.173.032-.334.097-.485.064-.151.152-.28.262-.388.111-.108.238-.192.382-.254.144-.061.296-.092.455-.092h6.351c.153 0 .286.026.4.078.113.053.208.122.285.208.077.087.134.183.17.291.037.108.056.221.056.337 0 .111-.019.222-.056.333-.037.111-.093.209-.17.296-.077.086-.172.155-.285.207-.114.052-.247.078-.4.078h-5.072v3.674h4.814c.153 0 .286.026.4.079.113.053.208.122.285.207.077.087.134.185.17.296.037.111.056.221.056.332 0 .117-.019.231-.056.341-.037.112-.093.21-.17.296-.076.087-.172.156-.285.207-.114.052-.247.078-.4.078h-4.814v4.747c0 .196-.035.371-.106.521-.071.151-.164.275-.281.374-.117.098-.25.171-.4.221-.15.05-.302.073-.456.073-.153 0-.304-.024-.451-.073-.147-.05-.279-.123-.396-.221-.117-.1-.21-.224-.28-.374-.071-.151-.106-.325-.106-.521v-10.866m12.115 5.427c0 .74.071 1.421.216 2.045.144.625.369 1.163.677 1.616.306.452.696.806 1.169 1.062.472.256 1.036.383 1.693.383.656 0 1.221-.127 1.693-.383s.862-.61 1.169-1.062c.307-.453.533-.991.681-1.616.147-.624.221-1.306.221-2.045 0-.732-.073-1.411-.216-2.035-.145-.624-.37-1.164-.677-1.62-.307-.456-.698-.812-1.173-1.071-.476-.259-1.042-.388-1.698-.388-.657 0-1.223.129-1.698.388-.476.259-.865.615-1.169 1.071-.304.456-.528.996-.672 1.62-.145.624-.216 1.303-.216 2.035zm-2.605 0c0-1.034.138-1.976.414-2.829.277-.853.682-1.583 1.22-2.193.537-.609 1.201-1.081 1.993-1.417.791-.335 1.703-.503 2.734-.503 1.036 0 1.951.168 2.743.503.792.335 1.456.808 1.993 1.417.537.609.942 1.34 1.215 2.193.273.853.41 1.795.41 2.829 0 1.033-.136 1.976-.41 2.825-.273.85-.678 1.578-1.215 2.188-.537.609-1.201 1.082-1.993 1.418-.792.334-1.706.503-2.743.503-1.031 0-1.943-.169-2.734-.503-.792-.336-1.456-.809-1.993-1.418-.537-.609-.943-1.337-1.22-2.188-.276-.849-.414-1.792-.414-2.825zm18.667-.885c.38 0 .764-.019 1.15-.06.387-.04.737-.131 1.05-.272.313-.142.567-.348.764-.619.196-.271.294-.64.294-1.107 0-.462-.086-.825-.257-1.089-.172-.265-.393-.465-.663-.6-.27-.136-.571-.222-.902-.259-.332-.037-.654-.056-.967-.056h-2.439v4.062h1.969zm-4.409-4.551c0-.167.032-.323.096-.471.064-.148.152-.275.263-.383.11-.108.24-.194.391-.259.15-.065.308-.097.474-.097h4.142c.62 0 1.216.05 1.79.148.573.098 1.082.275 1.524.531.442.255.796.601 1.063 1.038.267.437.4.994.4 1.671 0 .369-.057.716-.17 1.043-.114.326-.285.619-.516.878-.23.258-.521.479-.875.665-.352.184-.771.322-1.256.415v.037c.46.068.841.175 1.141.324.301.148.545.34.732.576.187.238.327.518.418.844.092.328.162.697.212 1.108.043.369.08.719.111 1.047l.083.872.064.813v.11c0 .185-.036.349-.106.489-.071.143-.163.26-.277.355-.114.097-.242.169-.387.217-.145.05-.293.074-.446.074-.141 0-.281-.022-.419-.065-.138-.044-.264-.108-.377-.194-.114-.086-.209-.197-.285-.333-.076-.136-.128-.292-.152-.47-.068-.659-.123-1.234-.165-1.726-.043-.493-.094-.916-.152-1.27-.058-.353-.136-.644-.234-.872-.098-.228-.235-.406-.41-.534-.175-.13-.399-.221-.672-.272-.273-.052-.612-.079-1.017-.079h-2.55v4.644c0 .196-.036.369-.106.517-.071.148-.164.269-.281.363-.117.097-.247.169-.391.217-.144.05-.293.074-.446.074-.153 0-.302-.025-.446-.074-.145-.049-.273-.12-.387-.217-.113-.095-.206-.215-.276-.363-.07-.148-.106-.32-.106-.517v-10.876zm19.929 9.056l3.727-8.466c.141-.351.283-.641.423-.872.141-.231.291-.415.451-.554.159-.139.333-.235.52-.291.187-.056.401-.083.64-.083.233 0 .456.037.667.111.212.074.4.191.562.351.162.16.29.366.385.619.095.253.144.557.144.914v10.21c0 .18-.03.334-.088.467-.058.133-.136.244-.234.332-.098.09-.211.158-.336.203-.125.047-.253.069-.382.069s-.254-.022-.373-.069c-.119-.045-.229-.113-.327-.203-.098-.088-.176-.199-.234-.332-.058-.132-.087-.287-.087-.467v-9.822l-4.078 9.388c-.062.173-.143.324-.244.454-.101.128-.217.238-.345.328-.129.09-.266.156-.41.203-.144.046-.29.069-.437.069-.283 0-.55-.085-.805-.255-.255-.169-.447-.435-.576-.799l-4.068-9.332v9.767c0 .18-.029.334-.087.467-.058.133-.137.244-.235.332-.098.09-.208.158-.331.203-.123.047-.249.069-.378.069s-.255-.022-.377-.069c-.123-.045-.232-.113-.327-.203-.095-.088-.172-.199-.23-.332-.058-.132-.088-.287-.088-.467v-10.21c0-.357.048-.661.144-.914.095-.253.225-.459.391-.619.165-.16.356-.277.571-.351.214-.074.442-.111.681-.111.24 0 .455.029.644.088.19.058.367.157.529.296.162.138.315.325.455.558.142.234.283.526.423.877l3.664 8.447h.056m13.171 1.374h2.319c.51 0 .959-.035 1.349-.106.389-.071.718-.192.985-.365.266-.172.468-.404.603-.697.135-.292.202-.657.202-1.095 0-.462-.089-.835-.267-1.121-.178-.286-.428-.51-.75-.669-.323-.16-.709-.269-1.16-.329-.45-.058-.947-.087-1.486-.087h-1.795v4.468zm0-9.998v4.108h2.283c.368 0 .718-.038 1.049-.115.331-.078.62-.201.865-.369.245-.17.44-.387.584-.651.145-.266.217-.585.217-.961 0-.406-.078-.738-.23-.997-.153-.258-.357-.463-.611-.614-.255-.151-.548-.255-.88-.314-.331-.058-.677-.088-1.04-.088h-2.237zm-2.374-.462c0-.166.03-.32.091-.462.062-.141.145-.266.253-.374.108-.108.233-.192.378-.254.144-.061.299-.092.464-.092l4.649.009c.577 0 1.11.083 1.597.249.488.166.908.395 1.261.688.353.292.628.642.824 1.048.197.406.295.852.295 1.338 0 .363-.063.71-.189 1.039-.125.329-.302.626-.529.89-.227.265-.495.492-.805.678-.31.188-.653.319-1.027.393v.038c.46.068.878.194 1.251.379.375.184.694.419.957.701.264.283.468.609.613.978.144.37.216.776.216 1.219 0 .444-.08.882-.239 1.316-.159.434-.416.821-.768 1.164-.354.341-.808.618-1.363.831-.555.211-1.228.318-2.02.318h-4.722c-.165 0-.32-.031-.464-.093-.145-.061-.27-.144-.378-.249-.108-.105-.191-.229-.253-.373-.062-.145-.091-.297-.091-.457v-10.921zm12.269.019c0-.196.036-.371.107-.521.07-.151.162-.276.275-.374.114-.098.245-.172.391-.221.148-.05.301-.074.46-.074.154 0 .305.024.452.074.147.049.279.123.395.221.116.099.21.223.281.374.071.151.106.325.106.521v7.468c0 .524.085.974.253 1.354.169.378.391.692.666.941.277.249.592.434.944.554.353.12.713.18 1.082.18.373 0 .737-.06 1.09-.18.353-.12.667-.306.944-.554.275-.249.499-.563.667-.941.169-.379.253-.829.253-1.354v-7.468c0-.196.035-.371.106-.521.07-.151.164-.276.28-.374.117-.098.249-.172.396-.221.146-.05.3-.074.46-.074.153 0 .303.024.45.074.148.049.279.123.396.221.117.099.211.223.281.374.07.151.106.325.106.521v7.543c0 .811-.145 1.52-.433 2.123-.289.603-.678 1.104-1.169 1.504-.492.4-1.066.698-1.726.896-.66.197-1.36.295-2.103.295-.743 0-1.443-.098-2.099-.295-.658-.197-1.231-.496-1.721-.896-.492-.4-.879-.902-1.165-1.504-.285-.603-.429-1.312-.429-2.123v-7.543m12.2 5.501c0-1.076.156-2.047.465-2.912.31-.865.74-1.6 1.293-2.206.553-.606 1.209-1.071 1.97-1.394.761-.323 1.59-.485 2.485-.485.558 0 1.135.066 1.731.198.594.133 1.208.337 1.841.614.202.087.349.21.441.369.092.16.138.323.138.489 0 .117-.02.231-.059.342-.04.11-.098.211-.175.3-.077.089-.169.16-.275.212-.108.052-.229.078-.364.078-.111 0-.234-.024-.368-.074-.988-.351-1.866-.526-2.633-.526-.639 0-1.202.111-1.693.333-.491.221-.902.543-1.234.965-.33.422-.583.938-.754 1.55-.172.614-.257 1.313-.257 2.101 0 .72.075 1.379.225 1.975.15.597.38 1.11.691 1.538.31.427.696.762 1.16 1.001.463.24 1.007.361 1.633.361.436 0 .905-.061 1.408-.18.504-.12 1.05-.313 1.638-.577l.235-.079.216-.022c.129 0 .244.024.345.073.101.05.189.118.262.203.074.085.131.185.17.296.04.111.06.224.06.341 0 .191-.055.38-.165.569-.111.188-.295.342-.552.465-1.362.64-2.627.961-3.793.961-.901 0-1.726-.168-2.475-.499-.749-.331-1.39-.802-1.924-1.408-.533-.606-.947-1.331-1.242-2.174-.296-.843-.443-1.775-.443-2.798m15.5 5.402c0 .197-.035.367-.105.513-.071.144-.165.265-.28.365-.117.098-.247.171-.391.221-.145.05-.294.073-.446.073-.154 0-.302-.024-.446-.073-.145-.05-.273-.121-.387-.217-.114-.095-.205-.217-.272-.365-.067-.148-.101-.319-.101-.517v-10.931c0-.197.035-.369.107-.517.07-.148.162-.27.275-.365.114-.095.242-.168.387-.217.144-.049.293-.074.446-.074.154 0 .302.025.447.074.144.05.273.122.387.217.113.095.205.217.276.365.07.148.105.32.105.517v4.671l4.796-5.308c.123-.185.266-.317.428-.397.163-.079.33-.12.501-.12.148 0 .291.026.428.079.139.052.261.125.369.217.107.093.194.202.261.328.068.126.102.263.102.411 0 .203-.074.41-.222.619l-4.252 4.403 4.732 5.382c.086.117.145.233.18.347.032.113.049.222.049.328 0 .16-.035.309-.105.447-.071.138-.165.259-.281.36-.117.102-.25.182-.4.24-.151.058-.302.088-.455.088-.178 0-.351-.041-.521-.125-.168-.083-.315-.223-.438-.42l-5.173-6.093v5.475m10.539 1.171c-.16 0-.311-.032-.456-.097-.144-.065-.272-.151-.382-.259-.11-.108-.2-.233-.267-.378-.067-.144-.101-.297-.101-.456v-10.894c0-.154.029-.303.087-.448.058-.144.141-.272.249-.383.107-.111.231-.199.372-.263.142-.065.295-.097.46-.097h6.701c.153 0 .287.026.4.078.114.053.209.122.286.208.076.087.134.183.17.291.037.108.055.221.055.337 0 .111-.018.222-.055.333-.036.111-.094.209-.17.296-.077.086-.172.155-.286.207-.113.052-.247.078-.4.078h-5.467v3.739h5.118c.153 0 .289.026.405.079.117.051.213.122.29.207.076.085.133.182.17.29.037.108.054.221.054.338 0 .11-.019.221-.059.333-.04.111-.098.209-.175.294-.078.088-.173.157-.285.208-.114.051-.247.078-.401.078h-5.118v4.054h5.67c.153 0 .287.026.401.077.113.052.208.122.285.208.076.085.134.183.17.291.037.108.055.219.055.337 0 .111-.018.221-.055.331-.036.112-.094.21-.17.296-.077.087-.172.157-.285.207-.114.053-.247.079-.401.079h-6.866m9.6-11.409c-.159 0-.299-.026-.418-.079-.12-.052-.218-.121-.295-.207-.076-.086-.135-.185-.175-.296-.04-.111-.059-.224-.059-.342 0-.116.02-.232.059-.346.04-.114.1-.213.18-.299.08-.086.178-.157.294-.212.117-.056.255-.083.414-.083h8.698c.153 0 .289.028.406.083.117.055.214.126.294.212.08.086.14.184.18.295.039.111.059.225.059.342 0 .117-.02.231-.059.341-.04.111-.099.211-.175.3-.078.089-.175.16-.295.212-.119.053-.256.079-.41.079h-3.093v10.22c0 .196-.035.371-.105.521-.071.151-.165.276-.282.379-.116.1-.249.176-.395.225-.148.05-.297.075-.452.075-.153 0-.304-.025-.451-.075-.147-.049-.279-.125-.396-.225-.116-.103-.21-.228-.28-.379-.071-.151-.107-.325-.107-.521v-10.22h-3.139m-130.593 4.552h-10.642c-.5 0-.905.406-.905.908 0 .501.405.908.905.908h10.642c.501 0 .906-.406.906-.908s-.405-.908-.906-.908m-3.158 3.876h-7.05c-.501 0-.905.406-.905.908 0 .501.404.908.905.908h7.05c.499 0 .906-.407.906-.908 0-.502-.406-.908-.906-.908m-3.582 3.875h-2.689c-.5 0-.905.406-.905.908 0 .501.405.908.905.908h2.689c.5 0 .906-.406.906-.908s-.405-.908-.906-.908m-1.913-24.6c2.239-.646 4.688-.597 6.901.14.158.052.319.077.476.077.632 0 1.221-.401 1.432-1.037.262-.793-.165-1.649-.956-1.913-2.788-.928-5.866-.99-8.687-.176-.801.231-1.264 1.07-1.033 1.873.229.803 1.066 1.269 1.867 1.036"/><path d="M14.056 16.739c-6.445 0-9.962-1.8-9.962-2.724 0-.925 3.517-2.724 9.962-2.724 6.447 0 9.963 1.799 9.963 2.724 0 .924-3.516 2.724-9.963 2.724zm9.547 1.033l-1.306 9.686c-.028.21-.263.416-.475.417l-4.029.015c-1.163.005-2.109.957-2.109 2.124v2.61c0 .164-.138.303-.302.303h-7.755c-.223 0-.479-.216-.516-.437l-.056-.337-.159-.951-.234-1.397-.29-1.732-.323-1.929-.332-1.988-.321-1.919-.289-1.722-.225-1.352-.18-1.062c-.041-.237-.09-.439.062-.647.122-.169.305-.281.517-.272.094.003.211.065.301.092l.321.101.736.232c.54.165 1.087.299 1.642.407.588.114 1.181.215 1.775.292.619.082 1.241.133 1.863.176.637.044 1.275.066 1.913.069l.227.001c3.21 0 6.379-.444 8.641-1.36.086-.046.18-.077.284-.077.344 0 .622.279.622.624v.031zm-2.287-14.621c-.427-.26-.984-.122-1.242.308-.259.429-.122.988.306 1.246 3.428 2.077 5.575 5.596 5.88 9.545h-.444l.014-.237c0-2.981-5.922-4.54-11.773-4.54-5.85 0-11.772 1.559-11.772 4.54l.019.284h-.384l-.063-.087h-.001c.315-3.903 2.436-7.389 5.812-9.465.427-.261.56-.82.299-1.249-.261-.427-.819-.563-1.245-.3-4.209 2.588-6.722 7.084-6.722 12.028 0 .502.405.908.905.908l1.331.017.004.003.03-.006c.137 0 .247.095.28.223l.004.003 2.77 16.419c.184 1.095 1.195 1.95 2.301 1.95h7.755c.691 0 1.239-.393 1.753-.811.487-.398.987-.776 1.484-1.16l1.453-1.122 1.452-1.126 1.345-1.056c.472-.368.894-.724 1.107-1.304.056-.15.093-.307.115-.465l1.498-11.165.008-.007c.002-.232.189-.419.42-.419l.034.007 1.156.019c.5 0 .906-.406.906-.908 0-4.982-2.541-9.495-6.798-12.075z"/></g></svg>
