<?xml version="1.0" standalone="no"?>
<!DOCTYPE svg PUBLIC "-//W3C//DTD SVG 20010904//EN"
 "http://www.w3.org/TR/2001/REC-SVG-20010904/DTD/svg10.dtd">
<svg version="1.0" xmlns="http://www.w3.org/2000/svg"
 width="948.000000pt" height="948.000000pt" viewBox="0 0 948.000000 948.000000"
 preserveAspectRatio="xMidYMid meet">
<metadata>
Created by potrace 1.11, written by Peter Selinger 2001-2013
</metadata>
<g transform="translate(0.000000,948.000000) scale(0.100000,-0.100000)"
fill="#000000" stroke="none">
<path d="M4435 9449 c-372 -22 -858 -117 -982 -191 -287 -172 -270 -590 29
-737 54 -27 82 -34 150 -38 72 -4 102 0 223 30 160 40 258 59 435 83 172 23
575 24 755 0 206 -27 474 -85 608 -132 196 -69 407 0 513 168 100 157 79 368
-50 506 -78 83 -177 125 -466 197 -250 62 -496 99 -774 115 -195 11 -246 11
-441 -1z"/>
<path d="M6555 8761 c-72 -18 -130 -64 -166 -132 -18 -34 -23 -60 -23 -114 0
-117 31 -159 203 -271 726 -476 1224 -1168 1436 -1998 35 -137 77 -374 91
-508 l6 -68 -58 0 -59 0 -2 80 c-11 479 -579 860 -1609 1079 -952 202 -2193
210 -3174 20 -854 -165 -1428 -451 -1629 -810 -51 -92 -72 -165 -78 -276 l-6
-103 -53 0 c-30 0 -54 5 -56 11 -11 34 44 390 88 563 211 836 714 1535 1456
2020 134 88 171 143 171 251 -1 97 -53 181 -138 224 -65 32 -155 32 -221 -2
-122 -62 -363 -236 -544 -393 -124 -107 -364 -354 -461 -474 -537 -666 -838
-1468 -866 -2312 -7 -212 0 -249 63 -318 62 -69 99 -77 362 -86 215 -6 235 -9
252 -27 23 -24 16 8 89 -427 141 -836 226 -1337 281 -1665 95 -559 182 -1080
280 -1660 138 -819 139 -825 160 -895 48 -162 174 -306 341 -390 135 -69 61
-65 1329 -65 896 0 1157 3 1200 13 101 23 208 86 390 229 96 75 393 306 660
512 672 519 975 759 1046 827 75 72 125 148 158 236 26 69 26 64 201 1373 36
270 86 639 110 820 24 182 65 483 89 670 25 187 50 356 56 376 20 72 25 73
284 79 254 5 262 7 327 72 64 64 74 104 72 276 -15 1247 -665 2430 -1723 3137
-191 127 -245 148 -335 126z m-1335 -2291 c882 -54 1605 -223 2015 -470 93
-56 207 -156 231 -201 120 -233 -526 -559 -1402 -708 -714 -122 -1627 -138
-2383 -41 -720 93 -1339 297 -1589 526 -125 114 -131 187 -23 295 272 271
1029 501 1906 579 337 30 929 39 1245 20z m2062 -1616 c33 -17 64 -56 78 -100
9 -27 8 -60 -4 -152 -26 -193 -213 -1580 -266 -1977 -28 -203 -57 -424 -66
-490 -18 -134 -29 -163 -76 -197 l-33 -23 -625 -5 c-609 -5 -627 -6 -690 -27
-185 -63 -326 -204 -387 -387 l-27 -81 -4 -428 -4 -427 -25 -20 c-25 -20 -42
-20 -1120 -20 -1089 0 -1095 0 -1132 21 -20 11 -44 32 -54 45 -14 19 -41 159
-107 552 -395 2353 -590 3527 -590 3556 0 19 4 46 9 59 14 37 68 85 111 98 35
11 51 8 197 -39 87 -28 221 -69 298 -91 923 -264 2298 -315 3395 -125 362 62
574 119 949 253 87 31 119 32 173 5z"/>
<path d="M3150 3835 c-128 -40 -199 -182 -158 -317 17 -57 88 -133 146 -155
45 -17 120 -18 1557 -18 1634 0 1543 -3 1623 55 81 58 119 197 79 291 -20 49
-72 106 -121 132 l-41 22 -1520 2 c-1281 1 -1527 0 -1565 -12z"/>
<path d="M3266 2765 c-126 -45 -194 -185 -154 -317 15 -51 82 -126 133 -149
38 -18 92 -19 1075 -19 981 0 1037 1 1075 19 157 71 196 277 76 404 -14 16
-44 39 -66 50 l-40 22 -1030 2 c-858 2 -1036 0 -1069 -12z"/>
<path d="M3485 1698 c-32 -11 -92 -52 -113 -78 -102 -123 -63 -313 79 -384
l53 -26 428 0 c463 0 459 0 533 55 50 39 88 123 88 194 0 101 -53 182 -148
227 l-50 24 -420 -1 c-265 0 -431 -4 -450 -11z"/>
</g>
</svg>
