<svg width="200" height="200" viewBox="0 0 200 200" xmlns="http://www.w3.org/2000/svg"><title>Shield</title><desc>Shield</desc><g fill="none"><circle fill="#EDE7F6" cx="100" cy="100" r="100"/><g><g id="Group"><path d="M145.017 60.05c-29.633 0-44.45-16.933-44.45-16.933s-14.817 16.933-44.45 16.933v38.34c0 15.854 7.402 30.8 20.013 40.408l24.437 18.619 24.437-18.619c12.611-9.608 20.013-24.554 20.013-40.408v-38.34z" id="Shape" fill="#fff"/><path d="M100.567 159.533c-.452 0-.904-.145-1.283-.432l-24.437-18.618c-13.055-9.949-20.847-25.683-20.847-42.094v-38.34c0-1.17.948-2.117 2.117-2.117 28.345 0 42.715-16.049 42.857-16.21.401-.459.981-.721 1.59-.721h.004c.608 0 1.188.263 1.59.717.143.163 14.625 16.214 42.859 16.214 1.169 0 2.117.947 2.117 2.117v38.34c0 16.41-7.793 32.145-20.847 42.091l-24.437 18.62c-.378.287-.831.432-1.283.432zm-42.333-97.394v36.25c0 15.098 7.17 29.573 19.179 38.726l23.154 17.64 23.154-17.642c12.01-9.151 19.179-23.626 19.179-38.724v-36.25c-23.802-.63-37.819-11.751-42.333-16.011-4.514 4.26-18.531 15.381-42.333 16.011z" id="Shape" fill="#673AB7"/></g><g id="Group"><path d="M100.567 54.37c6.721 5.073 18.729 11.954 35.983 13.72v30.301c0 13.128-6.235 25.716-16.677 33.673l-19.306 14.709-19.306-14.709c-10.443-7.957-16.678-20.545-16.678-33.673v-30.301c17.254-1.766 29.262-8.646 35.983-13.72" id="Shape" fill="#EDE7F6"/><path d="M100.567 148.89c-.452 0-.904-.145-1.283-.432l-19.305-14.709c-10.966-8.357-17.512-21.574-17.512-35.359v-30.301c0-1.085.822-1.995 1.902-2.106 16.544-1.693 28.122-8.167 34.923-13.302.754-.571 1.796-.571 2.551 0 6.801 5.135 18.379 11.609 34.923 13.302 1.08.112 1.902 1.021 1.902 2.106v30.301c0 13.783-6.546 27.002-17.511 35.357l-19.306 14.711c-.378.287-.831.432-1.283.432zm-33.867-78.912v28.412c0 12.473 5.923 24.431 15.844 31.992l18.023 13.731 18.024-13.734c9.92-7.559 15.843-19.519 15.843-31.99v-28.412c-15.539-1.955-26.789-7.902-33.867-12.981-7.078 5.079-18.328 11.026-33.867 12.981z" id="Shape" fill="#673AB7"/></g><path d="M100.567 148.89c-1.169 0-2.117-.947-2.117-2.117v-92.404c0-1.17.948-2.117 2.117-2.117s2.117.947 2.117 2.117v92.404c0 1.17-.948 2.117-2.117 2.117z" id="Shape" fill="#673AB7"/><g id="Group"><path d="M157.491 79.254l-8.615-4.641 5.14-8.327c.86-1.393 2.257-2.42 3.883-2.856l16.502-4.422-6.483 10.502 10.866 5.854-16.502 4.422c-1.627.436-3.35.245-4.791-.532z" id="Shape" fill="#fff"/><path d="M160.533 82.135c-1.41 0-2.796-.343-4.045-1.017l-8.615-4.641c-.514-.277-.89-.752-1.041-1.317-.151-.562-.063-1.164.243-1.66l5.14-8.328c1.154-1.867 2.979-3.21 5.14-3.787l16.499-4.424c.834-.229 1.727.085 2.246.781.518.695.559 1.637.103 2.375l-5.304 8.593 8.889 4.787c.764.413 1.199 1.249 1.099 2.11-.1.862-.716 1.573-1.554 1.798l-16.502 4.421c-.761.205-1.532.306-2.297.306zm-8.676-8.32l6.638 3.574.001.002c.957.515 2.135.639 3.238.349l11.353-3.043-6.173-3.324c-.514-.277-.89-.754-1.041-1.317-.151-.562-.063-1.164.243-1.66l3.683-5.966-11.352 3.043c-1.099.294-2.057.994-2.631 1.922l-3.959 6.418z" id="Shape" fill="#673AB7"/></g><path d="M111.232 88.739c-.69 0-1.388-.165-2.035-.515-.999-.537-1.713-1.432-2.004-2.516-.29-1.085-.12-2.216.48-3.185 1.191-1.933 3.699-2.607 5.696-1.523 1 .537 1.713 1.43 2.003 2.516.291 1.085.122 2.216-.476 3.185h-.001c-.808 1.308-2.216 2.038-3.662 2.038zm.06-4.262l-.009.134 1.811.978-1.801-1.112zM111.281 86.73c-.936 0-1.792-.624-2.044-1.571-.301-1.131.371-2.29 1.501-2.59l47.961-12.779c1.13-.308 2.289.37 2.59 1.499.301 1.131-.371 2.29-1.501 2.59l-47.961 12.779c-.182.05-.366.072-.546.072z" id="Shape" fill="#673AB7"/><g><path d="M157.247 126.03l-7.12-6.713 7.12-6.713c1.191-1.123 2.806-1.753 4.49-1.753h17.084l-8.98 8.467 8.98 8.467h-17.084c-1.684 0-3.299-.631-4.49-1.753z" id="Shape" fill="#fff"/><path d="M178.821 129.9h-17.084c-2.238 0-4.348-.827-5.942-2.33l-7.121-6.714c-.424-.399-.665-.957-.665-1.54 0-.583.241-1.141.665-1.54l7.121-6.714c1.594-1.503 3.704-2.33 5.942-2.33h17.084c.867 0 1.647.529 1.967 1.335.32.806.117 1.726-.515 2.321l-7.347 6.927 7.347 6.927c.631.595.835 1.515.515 2.321-.319.806-1.1 1.335-1.967 1.335zm-20.122-5.409c.793.748 1.9 1.176 3.038 1.176h11.753l-5.101-4.81c-.424-.399-.665-.957-.665-1.54 0-.583.241-1.141.665-1.54l5.101-4.81h-11.753c-1.138 0-2.245.428-3.038 1.176l-5.488 5.174 5.488 5.174z" id="Shape" fill="#673AB7"/></g><path d="M111.15 123.548c-1.084 0-2.168-.413-2.993-1.238-1.651-1.65-1.651-4.337 0-5.986 1.65-1.65 4.337-1.65 5.986 0 1.651 1.65 1.651 4.337 0 5.986-.825.825-1.909 1.238-2.993 1.238zM160.861 121.433h-49.711c-1.169 0-2.117-.947-2.117-2.117s.948-2.117 2.117-2.117h49.711c1.169 0 2.117.947 2.117 2.117s-.948 2.117-2.117 2.117z" fill="#673AB7"/></g></g></svg>
