<svg width="200" height="200" viewBox="0 0 200 200" xmlns="http://www.w3.org/2000/svg"><title>Heart</title><desc>Heart</desc><g fill="none"><circle fill="#EDE7F6" cx="100" cy="100" r="100"/><g><path d="M65.195 80.869c-1.508 3.328-2.279 7.148-2.033 11.328 1.377 24.426 36.213 41.869 42.557 51.344 6.18-9.475 40.721-26.459 42.574-51.344 1.738-23.443-30.623-36.082-42.574-9.738-6.377-12.475-16.623-16.197-25.475-14.131l-.082.082 2.623 2.623v13.115h-13.115l-4.049-4.049-.082.082-.344.689z" id="Shape" fill="#fff"/><path d="M105.72 145.18h.01c.551-.003 1.063-.283 1.364-.744 1.748-2.683 6.301-6.287 11.573-10.46 12.628-9.997 29.924-23.688 31.261-41.658.996-13.421-8.422-22.98-18.239-25.487-8.35-2.133-19.27.093-26.045 12.147-7.231-11.706-17.865-14.091-25.772-12.247-.298.069-.57.221-.786.437-.64.64-.722 1.759-.082 2.4l2.142 2.143v10.797h-10.797l-3.568-3.569c-.307-.307-.724-.48-1.159-.48h-.003c-.437.001-.855.176-1.162.486-.122.123-.304.347-.383.503l-.344.688-.027.057c-1.697 3.744-2.429 7.816-2.176 12.101.999 17.735 18.478 31.595 31.239 41.716 5.262 4.173 9.807 7.777 11.592 10.443.304.455.815.728 1.362.728zm20.364-75.775c1.662 0 3.277.216 4.793.604 8.494 2.168 16.643 10.444 15.782 22.067-1.231 16.534-17.874 29.709-30.027 39.33-4.676 3.702-8.549 6.768-10.923 9.473-2.387-2.682-6.247-5.743-10.905-9.439-12.276-9.734-29.087-23.066-30.004-39.335-.191-3.232.255-6.315 1.324-9.187l2.389 2.389c.307.307.724.48 1.159.48h13.115c.906 0 1.639-.734 1.639-1.639v-13.115c0-.435-.173-.852-.48-1.159l-.405-.405c8.315-.664 15.905 4.314 20.721 13.736.287.56.869.93 1.498.893.629-.014 1.194-.388 1.455-.961 4.611-10.163 12.119-13.73 18.87-13.73z" id="Shape" fill="#0A94E3"/><path d="M105.723 145.176h.011c.551-.004 1.063-.283 1.362-.745 1.747-2.683 6.303-6.29 11.578-10.465 12.625-9.995 29.916-23.684 31.252-41.65.997-13.419-8.421-22.976-18.239-25.482-8.352-2.131-19.269.095-26.041 12.152-7.231-11.71-17.865-14.099-25.77-12.251-.882.206-1.43 1.087-1.223 1.969.205.881 1.093 1.43 1.969 1.223 9.421-2.199 18.265 2.765 23.641 13.286.287.56.866.922 1.498.893.629-.014 1.194-.388 1.455-.961 5.744-12.67 15.987-15.09 23.66-13.133 8.494 2.168 16.643 10.442 15.78 22.062-1.228 16.532-17.868 29.704-30.017 39.323-4.679 3.705-8.557 6.774-10.929 9.481-2.387-2.681-6.244-5.739-10.901-9.432-12.279-9.736-29.094-23.069-30.017-39.343-.213-3.756.423-7.307 1.891-10.556l.319-.628c.408-.808.083-1.795-.725-2.202-.807-.411-1.793-.085-2.201.724l-.349.692c-1.718 3.798-2.449 7.866-2.206 12.155 1.005 17.742 18.487 31.605 31.252 41.726 5.261 4.171 9.802 7.772 11.591 10.438.304.454.815.726 1.361.726zM104.097 107.098c.419 0 .839-.16 1.159-.48.64-.64.64-1.678 0-2.318l-32.787-32.787c-.64-.64-1.678-.64-2.318 0-.64.64-.64 1.678 0 2.318l32.787 32.787c.32.32.74.48 1.159.48zM141.802 144.803c.419 0 .839-.16 1.159-.48.64-.64.64-1.678 0-2.318l-16.392-16.393c-.64-.64-1.678-.64-2.318 0-.64.64-.64 1.678 0 2.318l16.392 16.393c.32.32.74.48 1.159.48z" id="Shape" fill="#673AB7"/><path id="Shape" fill="#EDE7F6" d="M69.671 84.147h13.115v-13.115l-16.393-16.393v13.115h-13.115z"/><path d="M69.671 85.787h13.115c.906 0 1.639-.734 1.639-1.639v-13.115c0-.435-.173-.852-.48-1.159l-16.393-16.393c-.469-.469-1.173-.608-1.787-.355-.613.254-1.012.852-1.012 1.514v11.475h-11.475c-.663 0-1.262.399-1.514 1.012-.255.613-.114 1.318.355 1.787l16.393 16.393c.307.307.724.48 1.159.48zm11.475-3.279h-10.797l-13.115-13.115h9.157c.906 0 1.639-.734 1.639-1.639v-9.157l13.115 13.115v10.797zM141.802 144.804c.171 0 .346-.027.519-.085.858-.287 1.322-1.215 1.036-2.074l-3.279-9.836c-.287-.858-1.205-1.326-2.073-1.037-.858.287-1.322 1.215-1.036 2.074l3.279 9.836c.229.687.868 1.121 1.554 1.121zM141.802 144.804c.687 0 1.326-.435 1.554-1.121.287-.859-.178-1.787-1.036-2.074l-9.836-3.279c-.866-.291-1.787.179-2.073 1.037-.287.859.178 1.787 1.036 2.074l9.836 3.279c.173.058.347.085.519.085z" fill="#673AB7"/></g></g></svg>
