<?xml version="1.0" encoding="UTF-8" standalone="no"?>
<svg width="50px" height="50px" viewBox="0 0 50 50" version="1.1" xmlns="http://www.w3.org/2000/svg" xmlns:xlink="http://www.w3.org/1999/xlink" xmlns:sketch="http://www.bohemiancoding.com/sketch/ns">
    <!-- Generator: Sketch 3.4.1 (15681) - http://www.bohemiancoding.com/sketch -->
    <title>Oval 1 + Group</title>
    <desc>Created with Sketch.</desc>
    <defs></defs>
    <g id="Page-1" stroke="none" stroke-width="1" fill="none" fill-rule="evenodd" sketch:type="MSPage">
        <g id="Oval-1-+-Group" sketch:type="MSLayerGroup">
            <circle id="Oval-1" fill="#613DC1" sketch:type="MSShapeGroup" cx="25" cy="25" r="25"></circle>
            <g id="Group" transform="translate(10.000000, 15.000000)" fill="#F5EFED" sketch:type="MSShapeGroup">
                <rect id="Rectangle-path" x="10.6534091" y="2.5094697" width="19.3181818" height="0.946969697"></rect>
                <rect id="Rectangle-path" x="10.5587121" y="9.70643939" width="19.4128788" height="0.946969697"></rect>
                <rect id="Rectangle-path" x="10.6534091" y="17.6136364" width="19.3181818" height="0.946969697"></rect>
                <path d="M5.35037879,0.142045455 L0.520833333,0.142045455 C0.236742424,0.142045455 0.0473484848,0.331439394 0.0473484848,0.615530303 L0.0473484848,5.39772727 C0.0473484848,5.68181818 0.236742424,5.87121212 0.520833333,5.87121212 L5.3030303,5.87121212 C5.58712121,5.87121212 5.77651515,5.68181818 5.77651515,5.39772727 L5.77651515,0.615530303 C5.82386364,0.378787879 5.58712121,0.142045455 5.35037879,0.142045455 L5.35037879,0.142045455 Z M4.87689394,4.97159091 L1.04166667,4.97159091 L1.04166667,1.13636364 L4.87689394,1.13636364 L4.87689394,4.97159091 L4.87689394,4.97159091 Z" id="Shape"></path>
                <path d="M5.35037879,7.48106061 L0.520833333,7.48106061 C0.236742424,7.48106061 0.0473484848,7.67045455 0.0473484848,7.95454545 L0.0473484848,12.7367424 C0.0473484848,13.0208333 0.236742424,13.2102273 0.520833333,13.2102273 L5.3030303,13.2102273 C5.58712121,13.2102273 5.77651515,13.0208333 5.77651515,12.7367424 L5.77651515,7.95454545 C5.82386364,7.67045455 5.58712121,7.48106061 5.35037879,7.48106061 L5.35037879,7.48106061 Z M4.87689394,12.2632576 L1.04166667,12.2632576 L1.04166667,8.4280303 L4.87689394,8.4280303 L4.87689394,12.2632576 L4.87689394,12.2632576 Z" id="Shape"></path>
                <path d="M5.35037879,15.1041667 L0.520833333,15.1041667 C0.236742424,15.1041667 0.0473484848,15.2935606 0.0473484848,15.5776515 L0.0473484848,20.3598485 C0.0473484848,20.6439394 0.236742424,20.8333333 0.520833333,20.8333333 L5.3030303,20.8333333 C5.58712121,20.8333333 5.77651515,20.6439394 5.77651515,20.3598485 L5.77651515,15.5776515 C5.82386364,15.2935606 5.58712121,15.1041667 5.35037879,15.1041667 L5.35037879,15.1041667 Z M4.87689394,19.8863636 L1.04166667,19.8863636 L1.04166667,16.0511364 L4.87689394,16.0511364 L4.87689394,19.8863636 L4.87689394,19.8863636 Z" id="Shape"></path>
            </g>
        </g>
    </g>
</svg>