<?xml version="1.0" encoding="UTF-8" standalone="no"?>
<svg width="50px" height="50px" viewBox="0 0 50 50" version="1.1" xmlns="http://www.w3.org/2000/svg" xmlns:xlink="http://www.w3.org/1999/xlink" xmlns:sketch="http://www.bohemiancoding.com/sketch/ns">
    <!-- Generator: Sketch 3.4.1 (15681) - http://www.bohemiancoding.com/sketch -->
    <title>Oval 1 + Shape</title>
    <desc>Created with Sketch.</desc>
    <defs></defs>
    <g id="Page-1" stroke="none" stroke-width="1" fill="none" fill-rule="evenodd" sketch:type="MSPage">
        <g id="Oval-1-+-Shape" sketch:type="MSLayerGroup">
            <circle id="Oval-1" fill="#613DC1" sketch:type="MSShapeGroup" cx="25" cy="25" r="25"></circle>
            <path d="M35.3091787,25.7681159 C34.705314,25.7681159 34.1417069,25.9291465 33.6586151,26.1706924 L28.8276973,20.0515298 C29.6731079,19.2061192 30.1561997,18.0386473 30.1561997,16.7504026 C30.1561997,14.1336554 28.0225443,12 25.4057971,12 C22.7890499,12 20.6553945,14.1336554 20.6553945,16.7504026 C20.6553945,17.9983897 21.1384863,19.1658615 21.9838969,20.0112721 L17.1127214,26.1706924 C16.6296296,25.9291465 16.0660225,25.7681159 15.5024155,25.7681159 C13.5700483,25.7681159 12,27.3381643 12,29.2705314 C12,31.2028986 13.5700483,32.7729469 15.5024155,32.7729469 C17.4347826,32.7729469 19.0048309,31.2028986 19.0048309,29.2705314 C19.0048309,28.3848631 18.6827697,27.6199678 18.1594203,26.9758454 L23.0305958,20.8164251 C23.5539452,21.1384863 24.1175523,21.3397746 24.7616747,21.4202899 L24.7616747,30.0354267 C23.1513688,30.3574879 21.9033816,31.7665056 21.9033816,33.4975845 C21.9033816,35.4299517 23.47343,37 25.4057971,37 C27.3381643,37 28.9082126,35.4299517 28.9082126,33.4975845 C28.9082126,31.8067633 27.7004831,30.3574879 26.0499195,30.0354267 L26.0499195,21.4202899 C26.6537842,21.3397746 27.2173913,21.1384863 27.7407407,20.8566828 L32.6119163,27.0161031 C32.0885668,27.6199678 31.8067633,28.4251208 31.8067633,29.2705314 C31.8067633,31.2028986 33.3768116,32.7729469 35.3091787,32.7729469 C37.2415459,32.7729469 38.8115942,31.2028986 38.8115942,29.2705314 C38.8518519,27.3381643 37.2415459,25.7681159 35.3091787,25.7681159 L35.3091787,25.7681159 Z M25.4057971,13.3285024 C27.2979066,13.3285024 28.8276973,14.8582931 28.8276973,16.7504026 C28.8276973,18.6425121 27.2979066,20.1723027 25.4057971,20.1723027 C23.5136876,20.1723027 21.9838969,18.6425121 21.9838969,16.7504026 C21.9838969,14.8582931 23.5136876,13.3285024 25.4057971,13.3285024 L25.4057971,13.3285024 Z M15.5024155,31.4444444 C14.294686,31.4444444 13.3285024,30.4782609 13.3285024,29.2705314 C13.3285024,28.0628019 14.294686,27.0966184 15.5024155,27.0966184 C16.7101449,27.0966184 17.6763285,28.0628019 17.6763285,29.2705314 C17.6763285,30.4782609 16.6698873,31.4444444 15.5024155,31.4444444 L15.5024155,31.4444444 Z M27.5797101,33.5378422 C27.5797101,34.7455717 26.6135266,35.7117552 25.4057971,35.7117552 C24.1980676,35.7117552 23.2318841,34.7455717 23.2318841,33.5378422 C23.2318841,32.3301127 24.1980676,31.3639291 25.4057971,31.3639291 C26.6135266,31.3639291 27.5797101,32.3301127 27.5797101,33.5378422 L27.5797101,33.5378422 Z M35.3091787,31.4444444 C34.1014493,31.4444444 33.1352657,30.4782609 33.1352657,29.2705314 C33.1352657,28.0628019 34.1014493,27.0966184 35.3091787,27.0966184 C36.5169082,27.0966184 37.4830918,28.0628019 37.4830918,29.2705314 C37.4830918,30.4782609 36.5169082,31.4444444 35.3091787,31.4444444 L35.3091787,31.4444444 Z" id="Shape" fill="#F5EFED" sketch:type="MSShapeGroup" transform="translate(25.406167, 24.500000) scale(-1, 1) rotate(-270.000000) translate(-25.406167, -24.500000) "></path>
        </g>
    </g>
</svg>