<svg width="200" height="200" viewBox="0 0 200 200" xmlns="http://www.w3.org/2000/svg"><title>List</title><desc>List</desc><g fill="none"><circle fill="#EDE7F6" cx="100" cy="100" r="100"/><g><path d="M55.357 64.071h60.714c1.972 0 3.571-1.599 3.571-3.571v-7.143c0-1.973-1.599-3.571-3.571-3.571h-60.714c-1.973 0-3.571 1.599-3.571 3.571v7.143c0 1.973 1.599 3.571 3.571 3.571z" id="Shape" fill="#fff"/><path d="M116.071 65.857h-60.714c-2.954 0-5.357-2.403-5.357-5.357v-7.143c0-2.954 2.403-5.357 5.357-5.357h60.714c2.954 0 5.357 2.403 5.357 5.357v7.143c0 2.954-2.403 5.357-5.357 5.357zm-60.714-14.286c-.985 0-1.786.801-1.786 1.786v7.143c0 .984.8 1.786 1.786 1.786h60.714c.985 0 1.786-.801 1.786-1.786v-7.143c0-.984-.8-1.786-1.786-1.786h-60.714z" id="Shape" fill="#673AB7"/><path d="M83.929 92.643h60.714c1.972 0 3.571-1.599 3.571-3.571v-7.143c0-1.972-1.599-3.571-3.571-3.571h-60.714c-1.973 0-3.571 1.599-3.571 3.571v7.143c0 1.973 1.599 3.571 3.571 3.571z" id="Shape" fill="#EDE7F6"/><path d="M144.643 94.429h-60.714c-2.954 0-5.357-2.403-5.357-5.357v-7.143c0-2.954 2.403-5.357 5.357-5.357h60.714c2.954 0 5.357 2.403 5.357 5.357v7.143c0 2.954-2.403 5.357-5.357 5.357zm-60.714-14.286c-.985 0-1.786.801-1.786 1.786v7.143c0 .984.8 1.786 1.786 1.786h60.714c.985 0 1.786-.801 1.786-1.786v-7.143c0-.984-.8-1.786-1.786-1.786h-60.714z" id="Shape" fill="#673AB7"/><path d="M83.929 121.214h60.714c1.972 0 3.571-1.599 3.571-3.571v-7.143c0-1.973-1.599-3.571-3.571-3.571h-60.714c-1.973 0-3.571 1.599-3.571 3.571v7.143c0 1.972 1.599 3.571 3.571 3.571z" id="Shape" fill="#EDE7F6"/><path d="M144.643 123h-60.714c-2.954 0-5.357-2.403-5.357-5.357v-7.143c0-2.954 2.403-5.357 5.357-5.357h60.714c2.954 0 5.357 2.403 5.357 5.357v7.143c0 2.954-2.403 5.357-5.357 5.357zm-60.714-14.286c-.985 0-1.786.8-1.786 1.786v7.143c0 .985.8 1.786 1.786 1.786h60.714c.985 0 1.786-.8 1.786-1.786v-7.143c0-.985-.8-1.786-1.786-1.786h-60.714z" id="Shape" fill="#673AB7"/><path d="M83.929 149.786h60.714c1.972 0 3.571-1.599 3.571-3.571v-7.143c0-1.973-1.599-3.571-3.571-3.571h-60.714c-1.973 0-3.571 1.599-3.571 3.571v7.143c0 1.972 1.599 3.571 3.571 3.571z" id="Shape" fill="#EDE7F6"/><path d="M144.643 151.571h-60.714c-2.954 0-5.357-2.403-5.357-5.357v-7.143c0-2.954 2.403-5.357 5.357-5.357h60.714c2.954 0 5.357 2.403 5.357 5.357v7.143c0 2.954-2.403 5.357-5.357 5.357zm-60.714-14.286c-.985 0-1.786.8-1.786 1.786v7.143c0 .985.8 1.786 1.786 1.786h60.714c.985 0 1.786-.8 1.786-1.786v-7.143c0-.985-.8-1.786-1.786-1.786h-60.714zM71.429 114.071c0-.982.804-1.786 1.786-1.786s1.786.804 1.786 1.786-.804 1.786-1.786 1.786-1.786-.804-1.786-1.786zm-7.143 0c0-.982.804-1.786 1.786-1.786s1.786.804 1.786 1.786-.804 1.786-1.786 1.786-1.786-.804-1.786-1.786zM71.429 85.5c0-.983.804-1.786 1.786-1.786s1.786.803 1.786 1.786c0 .982-.804 1.786-1.786 1.786s-1.786-.804-1.786-1.786zm-7.143 0c0-.983.804-1.786 1.786-1.786s1.786.803 1.786 1.786c0 .982-.804 1.786-1.786 1.786s-1.786-.804-1.786-1.786zM71.429 142.643c0-.982.804-1.786 1.786-1.786s1.786.804 1.786 1.786-.804 1.786-1.786 1.786-1.786-.804-1.786-1.786zm-7.143 0c0-.982.804-1.786 1.786-1.786s1.786.804 1.786 1.786-.804 1.786-1.786 1.786-1.786-.804-1.786-1.786zm-7.143 0c0-.982.804-1.786 1.786-1.786s1.786.804 1.786 1.786-.804 1.786-1.786 1.786-1.786-.804-1.786-1.786zm0-7.143c0-.982.804-1.786 1.786-1.786s1.786.804 1.786 1.786-.804 1.786-1.786 1.786-1.786-.804-1.786-1.786zm0-7.143c0-.982.804-1.786 1.786-1.786s1.786.804 1.786 1.786-.804 1.786-1.786 1.786-1.786-.804-1.786-1.786zm0-7.143c0-.982.804-1.786 1.786-1.786s1.786.804 1.786 1.786-.804 1.786-1.786 1.786-1.786-.804-1.786-1.786zm0-7.143c0-.982.804-1.786 1.786-1.786s1.786.804 1.786 1.786-.804 1.786-1.786 1.786-1.786-.804-1.786-1.786zm0-7.143c0-.982.804-1.786 1.786-1.786s1.786.804 1.786 1.786-.804 1.786-1.786 1.786-1.786-.804-1.786-1.786zm0-7.143c0-.983.804-1.786 1.786-1.786s1.786.803 1.786 1.786c0 .982-.804 1.786-1.786 1.786s-1.786-.804-1.786-1.786zm0-7.143c0-.983.804-1.786 1.786-1.786s1.786.803 1.786 1.786c0 .982-.804 1.786-1.786 1.786s-1.786-.804-1.786-1.786zm0-7.143c0-.983.804-1.786 1.786-1.786s1.786.803 1.786 1.786c0 .982-.804 1.786-1.786 1.786s-1.786-.804-1.786-1.786zm0-7.143c0-.983.804-1.786 1.786-1.786s1.786.803 1.786 1.786c0 .982-.804 1.786-1.786 1.786s-1.786-.804-1.786-1.786zm0-7.143c0-.983.804-1.786 1.786-1.786s1.786.803 1.786 1.786c0 .982-.804 1.786-1.786 1.786s-1.786-.804-1.786-1.786z" fill="#673AB7"/></g></g></svg>
