<?xml version="1.0" encoding="UTF-8" standalone="no"?>
<svg width="174px" height="38px" viewBox="0 0 174 38" version="1.1" xmlns="http://www.w3.org/2000/svg" xmlns:xlink="http://www.w3.org/1999/xlink" xmlns:sketch="http://www.bohemiancoding.com/sketch/ns">
    <!-- Generator: Sketch 3.4.3 (16618) - http://www.bohemiancoding.com/sketch -->
    <title>Desktop</title>
    <desc>Created with Sketch.</desc>
    <defs>
        <path id="path-1" d="M0.0360824742,0.576031746 L174.411254,0.576031746 L174.411254,38 L0.0360824742,38"></path>
    </defs>
    <g id="Page-1" stroke="none" stroke-width="1" fill="none" fill-rule="evenodd" sketch:type="MSPage">
        <g id="Desktop" sketch:type="MSArtboardGroup">
            <g id="final" sketch:type="MSLayerGroup">
                <g id="Group">
                    <path d="M38.528866,17.1223175 C38.528866,16.9335238 38.5637457,16.7573968 38.6347079,16.592127 C38.7050687,16.4274603 38.8006873,16.2857143 38.9215636,16.1680952 C39.0424399,16.0504762 39.1813574,15.9575873 39.3395189,15.8900317 C39.497079,15.8230794 39.6630584,15.7893016 39.837457,15.7893016 L46.7839347,15.7893016 C46.9517182,15.7893016 47.0972509,15.818254 47.2217354,15.8749524 C47.3456186,15.9328571 47.4496564,16.008254 47.5338488,16.1023492 C47.6180412,16.1970476 47.6799828,16.3026032 47.7202749,16.4202222 C47.760567,16.5384444 47.7810137,16.6614921 47.7810137,16.7887619 C47.7810137,16.91 47.760567,17.0312381 47.7202749,17.1524762 C47.6799828,17.2737143 47.6180412,17.3810794 47.5338488,17.4757778 C47.4496564,17.569873 47.3456186,17.6452698 47.2217354,17.7025714 C47.0972509,17.759873 46.9517182,17.7882222 46.7839347,17.7882222 L41.2368557,17.7882222 L41.2368557,21.8071746 L46.5024914,21.8071746 C46.6696735,21.8071746 46.8158076,21.836127 46.9402921,21.8934286 C47.0641753,21.9513333 47.1682131,22.0267302 47.2518041,22.1202222 C47.3359966,22.2155238 47.3979381,22.3228889 47.4382302,22.4435238 C47.4785223,22.5647619 47.4989691,22.6853968 47.4989691,22.8066349 C47.4989691,22.9345079 47.4785223,23.0587619 47.4382302,23.18 C47.3979381,23.3024444 47.3359966,23.4098095 47.2518041,23.5033016 C47.1682131,23.5986032 47.0641753,23.674 46.9402921,23.7300952 C46.8158076,23.7873968 46.6696735,23.815746 46.5024914,23.815746 L41.2368557,23.815746 L41.2368557,29.0072698 C41.2368557,29.222 41.1983677,29.4126032 41.1213918,29.5772698 C41.0438144,29.7419365 40.9415808,29.8776508 40.8140893,29.9868254 C40.6865979,30.0941905 40.5410653,30.1738095 40.3762887,30.2286984 C40.2121134,30.2829841 40.0455326,30.3089206 39.8777491,30.3089206 C39.7099656,30.3089206 39.5457904,30.2829841 39.384622,30.2286984 C39.2234536,30.1738095 39.0791237,30.0941905 38.9516323,29.9868254 C38.8241409,29.8776508 38.7219072,29.7419365 38.6449313,29.5772698 C38.567354,29.4126032 38.528866,29.222 38.528866,29.0072698 L38.528866,17.1223175" id="Fill-1" fill="#EDE7F6" sketch:type="MSShapeGroup"></path>
                    <path d="M51.7783505,23.0587619 C51.7783505,23.867619 51.8565292,24.6131429 52.0146907,25.2959365 C52.1722509,25.9793333 52.4188144,26.5674286 52.7549828,27.0632381 C53.0899485,27.5572381 53.516323,27.9444762 54.0335052,28.2243492 C54.5494845,28.5042222 55.1670962,28.6429524 55.8857388,28.6429524 C56.6031787,28.6429524 57.2207904,28.5042222 57.7379725,28.2243492 C58.2545533,27.9444762 58.6809278,27.5572381 59.0164948,27.0632381 C59.3520619,26.5674286 59.5998282,25.9793333 59.7609966,25.2959365 C59.9221649,24.6131429 60.0027491,23.867619 60.0027491,23.0587619 C60.0027491,22.257746 59.9233677,21.5152381 59.7664089,20.8324444 C59.6082474,20.150254 59.3616838,19.5591429 59.0261168,19.0609206 C58.6905498,18.5626984 58.2629725,18.1724444 57.7433849,17.8895556 C57.2225945,17.6066667 56.6031787,17.4655238 55.8857388,17.4655238 C55.1670962,17.4655238 54.5482818,17.6066667 54.0280928,17.8895556 C53.5079038,18.1724444 53.0821306,18.5626984 52.7495704,19.0609206 C52.4176117,19.5591429 52.1722509,20.150254 52.0146907,20.8324444 C51.8565292,21.5152381 51.7783505,22.257746 51.7783505,23.0587619 L51.7783505,23.0587619 Z M48.9290378,23.0587619 C48.9290378,21.9278095 49.0799828,20.8969841 49.3818729,19.9644762 C49.6843643,19.0319683 50.1281787,18.2327619 50.7157216,17.566254 C51.3032646,16.9003492 52.0297251,16.3834286 52.8957045,16.0166984 C53.7610825,15.6499683 54.7581615,15.4666032 55.8857388,15.4666032 C57.0193299,15.4666032 58.0194158,15.6499683 58.8853952,16.0166984 C59.7513746,16.3834286 60.4778351,16.9003492 61.0647766,17.566254 C61.6523196,18.2327619 62.0949313,19.0319683 62.3938144,19.9644762 C62.6926976,20.8969841 62.8418385,21.9278095 62.8418385,23.0587619 C62.8418385,24.1891111 62.6926976,25.2205397 62.3938144,26.1488254 C62.0949313,27.0789206 61.6523196,27.8751111 61.0647766,28.541619 C60.4778351,29.208127 59.7513746,29.7250476 58.8853952,30.0929841 C58.0194158,30.4585079 57.0193299,30.6430794 55.8857388,30.6430794 C54.7581615,30.6430794 53.7610825,30.4585079 52.8957045,30.0929841 C52.0297251,29.7250476 51.3032646,29.208127 50.7157216,28.541619 C50.1281787,27.8751111 49.6843643,27.0789206 49.3818729,26.1488254 C49.0799828,25.2205397 48.9290378,24.1891111 48.9290378,23.0587619 L48.9290378,23.0587619 Z" id="Fill-2" fill="#EDE7F6" sketch:type="MSShapeGroup"></path>
                    <path d="M69.3463058,22.0900635 C69.762457,22.0900635 70.1816151,22.0689524 70.6043814,22.0249206 C71.0277491,21.9808889 71.4102234,21.8813651 71.7524055,21.7269524 C72.0945876,21.5713333 72.3730241,21.3463492 72.5883162,21.0495873 C72.8030069,20.7534286 72.9100515,20.3499048 72.9100515,19.8384127 C72.9100515,19.3335556 72.8162371,18.9360635 72.6286082,18.6471429 C72.440378,18.357619 72.1986254,18.1386667 71.9033505,17.9908889 C71.6080756,17.8425079 71.2791237,17.7478095 70.9170962,17.708 C70.5544674,17.6675873 70.2020619,17.6470794 69.8598797,17.6470794 L67.1921821,17.6470794 L67.1921821,22.0900635 L69.3463058,22.0900635 L69.3463058,22.0900635 Z M64.5244845,17.1120635 C64.5244845,16.9299048 64.5593643,16.7586032 64.6297251,16.5969524 C64.7000859,16.4353016 64.7963058,16.2959683 64.9171821,16.1783492 C65.037457,16.060127 65.1799828,15.9660317 65.3447595,15.8954603 C65.5089347,15.8248889 65.6821306,15.7893016 65.8631443,15.7893016 L70.393299,15.7893016 C71.0710481,15.7893016 71.7235395,15.8435873 72.3513746,15.9509524 C72.9786082,16.0583175 73.5342784,16.2519365 74.0177835,16.5318095 C74.5006873,16.8110794 74.8879725,17.1892698 75.1802405,17.6675873 C75.4725086,18.1453016 75.6180412,18.7545079 75.6180412,19.4952063 C75.6180412,19.8987302 75.5560997,20.2787302 75.4322165,20.6358095 C75.307732,20.9928889 75.1201031,21.3131746 74.8681271,21.5960635 C74.6167526,21.877746 74.2980241,22.1202222 73.9113402,22.3228889 C73.5258591,22.523746 73.0676117,22.6751429 72.5378007,22.7764762 L72.5378007,22.8168889 C73.0411512,22.8910794 73.4573024,23.0086984 73.7856529,23.1709524 C74.1146048,23.3326032 74.3816151,23.5425079 74.5866838,23.8012698 C74.7911512,24.0612381 74.9439003,24.3676508 75.0443299,24.7247302 C75.1447595,25.0830159 75.2217354,25.4865397 75.2758591,25.9371111 C75.3227663,26.3406349 75.3630584,26.7230476 75.3967354,27.0825397 C75.4304124,27.4426349 75.4598797,27.7617143 75.487543,28.0367619 C75.5140034,28.3606667 75.537457,28.6568254 75.5579038,28.9258413 L75.5579038,29.0464762 C75.5579038,29.2491429 75.5188144,29.4276825 75.4424399,29.5814921 C75.3648625,29.7377143 75.2638316,29.8661905 75.1399485,29.9699365 C75.0154639,30.0760952 74.8747423,30.1545079 74.7171821,30.2075873 C74.5590206,30.261873 74.3966495,30.2890159 74.228866,30.2890159 C74.0743127,30.2890159 73.9215636,30.2648889 73.7706186,30.2184444 C73.6196735,30.1707937 73.4819588,30.1002222 73.3580756,30.0067302 C73.2335911,29.9126349 73.1295533,29.7907937 73.0459622,29.6424127 C72.9623711,29.4940317 72.9064433,29.3233333 72.8799828,29.1279048 C72.8060137,28.4071111 72.7452749,27.7786032 72.6989691,27.2399683 C72.6520619,26.7007302 72.596134,26.2380952 72.5323883,25.8508571 C72.4686426,25.4642222 72.3832474,25.1463492 72.2762027,24.8966349 C72.1685567,24.6475238 72.0188144,24.4526984 71.8281787,24.3121587 C71.6369416,24.1698095 71.3915808,24.0702857 71.0926976,24.0141905 C70.7944158,23.9568889 70.4233677,23.9279365 69.980756,23.9279365 L67.1921821,23.9279365 L67.1921821,29.0072698 C67.1921821,29.222 67.1530928,29.4107937 67.0767182,29.5724444 C66.9991409,29.7346984 66.8969072,29.8661905 66.7694158,29.9699365 C66.641323,30.0760952 66.4993986,30.1545079 66.3412371,30.2075873 C66.183677,30.261873 66.0207045,30.2890159 65.852921,30.2890159 C65.6851375,30.2890159 65.5227663,30.261873 65.3652062,30.2075873 C65.2070447,30.1545079 65.066323,30.0760952 64.9418385,29.9699365 C64.8179553,29.8661905 64.7169244,29.7346984 64.6399485,29.5724444 C64.5629725,29.4107937 64.5244845,29.222 64.5244845,29.0072698 L64.5244845,17.1120635 L64.5244845,17.1120635 Z" id="Fill-3" fill="#EDE7F6" sketch:type="MSShapeGroup"></path>
                    <path d="M86.3207045,27.018 L90.3974227,17.7580635 C90.5519759,17.3744444 90.7065292,17.0565714 90.8604811,16.8038413 C91.0150344,16.5517143 91.1792096,16.3496508 91.3542096,16.198254 C91.5280069,16.046254 91.7180412,15.9406984 91.9225086,15.880381 C92.1269759,15.8194603 92.3609107,15.7893016 92.6225086,15.7893016 C92.87689,15.7893016 93.1210481,15.8297143 93.3519759,15.9105397 C93.5841065,15.9913651 93.7891753,16.1192381 93.9671821,16.2941587 C94.1445876,16.4690794 94.2847079,16.6946667 94.3887457,16.9709206 C94.4927835,17.2471746 94.5457045,17.580127 94.5457045,17.970381 L94.5457045,29.1375556 C94.5457045,29.3341905 94.5132302,29.5030794 94.4494845,29.6478413 C94.3857388,29.7932063 94.3003436,29.9144444 94.193299,30.0109524 C94.0856529,30.1092698 93.9629725,30.1834603 93.8252577,30.2329206 C93.6881443,30.2847937 93.5486254,30.3089206 93.4079038,30.3089206 C93.2671821,30.3089206 93.1300687,30.2847937 93.0001718,30.2329206 C92.8696735,30.1834603 92.7493986,30.1092698 92.642354,30.0109524 C92.5353093,29.9144444 92.4493127,29.7932063 92.3861684,29.6478413 C92.3224227,29.5030794 92.2905498,29.3341905 92.2905498,29.1375556 L92.2905498,18.3944127 L87.830756,28.662254 C87.7634021,28.8516508 87.6743986,29.0169206 87.5637457,29.1586667 C87.4530928,29.2986032 87.3268041,29.4186349 87.1866838,29.5169524 C87.0453608,29.6152698 86.8956186,29.6876508 86.7380584,29.7389206 C86.5804983,29.7889841 86.421134,29.8149206 86.2599656,29.8149206 C85.9508591,29.8149206 85.6579897,29.7220317 85.3795533,29.536254 C85.1005155,29.3516825 84.8906357,29.0603492 84.7499141,28.662254 L80.3003436,18.4553333 L80.3003436,29.1375556 C80.3003436,29.3341905 80.2684708,29.5030794 80.2047251,29.6478413 C80.1409794,29.7932063 80.0549828,29.9144444 79.9479381,30.0109524 C79.8402921,30.1092698 79.7200172,30.1834603 79.5859107,30.2329206 C79.4512027,30.2847937 79.313488,30.3089206 79.1727663,30.3089206 C79.0314433,30.3089206 78.8943299,30.2847937 78.7602234,30.2329206 C78.6255155,30.1834603 78.5064433,30.1092698 78.4024055,30.0109524 C78.2983677,29.9144444 78.2147766,29.7932063 78.1510309,29.6478413 C78.0872852,29.5030794 78.054811,29.3341905 78.054811,29.1375556 L78.054811,17.970381 C78.054811,17.580127 78.1071306,17.2471746 78.2117698,16.9709206 C78.3158076,16.6946667 78.457732,16.4690794 78.6393471,16.2941587 C78.8203608,16.1192381 79.0284364,15.9913651 79.2635739,15.9105397 C79.49811,15.8297143 79.7464777,15.7893016 80.0080756,15.7893016 C80.2702749,15.7893016 80.5054124,15.8212698 80.7128866,15.8852063 C80.9209622,15.9491429 81.1140034,16.0571111 81.2920103,16.2085079 C81.4694158,16.3599048 81.6359966,16.5637778 81.7899485,16.8189206 C81.9451031,17.0752698 82.099055,17.3943492 82.2530069,17.7785714 L86.2599656,27.018 L86.3207045,27.018" id="Fill-4" fill="#EDE7F6" sketch:type="MSShapeGroup"></path>
                    <path d="M100.726632,28.5217143 L103.26323,28.5217143 C103.820704,28.5217143 104.312027,28.4831111 104.738402,28.4059048 C105.164175,28.3286984 105.523797,28.1953968 105.815464,28.0066032 C106.106529,27.8190159 106.327234,27.5650794 106.475172,27.2447937 C106.622509,26.9257143 106.696478,26.5264127 106.696478,26.0474921 C106.696478,25.5426349 106.599055,25.1342857 106.40421,24.8212381 C106.209364,24.5087937 105.93634,24.2639048 105.583935,24.0895873 C105.230928,23.9140635 104.808162,23.7952381 104.315034,23.7300952 C103.822509,23.6661587 103.279467,23.6347937 102.689519,23.6347937 L100.726632,23.6347937 L100.726632,28.5217143 L100.726632,28.5217143 Z M100.726632,17.5867619 L100.726632,22.0798095 L103.22354,22.0798095 C103.625859,22.0798095 104.008333,22.0381905 104.370962,21.9543492 C104.73299,21.8693016 105.049313,21.7347937 105.317526,21.5502222 C105.585137,21.3644444 105.799227,21.1267937 105.956186,20.8384762 C106.114347,20.547746 106.193127,20.1985079 106.193127,19.787746 C106.193127,19.3438095 106.108333,18.9800952 105.941151,18.6972063 C105.773969,18.4149206 105.550258,18.1911429 105.272423,18.025873 C104.993385,17.8612063 104.672852,17.7466032 104.310223,17.6826667 C103.948196,17.6187302 103.56933,17.5867619 103.173024,17.5867619 L100.726632,17.5867619 L100.726632,17.5867619 Z M98.1298969,17.0819048 C98.1298969,16.9003492 98.1623711,16.7320635 98.2297251,16.5770476 C98.297079,16.4226349 98.388488,16.2857143 98.5063574,16.1680952 C98.6242268,16.0504762 98.7613402,15.9575873 98.9195017,15.8900317 C99.0770619,15.8230794 99.2460481,15.7893016 99.4270619,15.7893016 L104.511684,15.7995556 C105.142526,15.7995556 105.725258,15.8900317 106.258076,16.0721905 C106.792096,16.253746 107.251546,16.5046667 107.637027,16.8243492 C108.02311,17.1440317 108.323797,17.5264444 108.537887,17.970381 C108.75378,18.4149206 108.860825,18.9022857 108.860825,19.4342857 C108.860825,19.8317778 108.791667,20.2111746 108.653952,20.5706667 C108.516838,20.9301587 108.323797,21.2552698 108.07543,21.5441905 C107.827062,21.8343175 107.533591,22.0822222 107.195017,22.2860952 C106.856443,22.4917778 106.481186,22.6353333 106.072251,22.7155556 L106.072251,22.7565714 C106.575601,22.8307619 107.032045,22.9682857 107.440979,23.1709524 C107.851117,23.3718095 108.199914,23.6287619 108.487973,23.9375873 C108.777234,24.2470159 108.999742,24.6040952 109.157904,25.007619 C109.315464,25.4123492 109.394244,25.8568889 109.394244,26.3406349 C109.394244,26.8261905 109.307045,27.3051111 109.132646,27.7798095 C108.958247,28.2545079 108.678007,28.6779365 108.292526,29.0525079 C107.905842,29.425873 107.409107,29.7280635 106.801718,29.9614921 C106.19433,30.1925079 105.458247,30.3089206 104.592268,30.3089206 L99.4270619,30.3089206 C99.2460481,30.3089206 99.0770619,30.2751429 98.9195017,30.2075873 C98.7613402,30.1412381 98.6242268,30.0501587 98.5063574,29.9355556 C98.388488,29.8209524 98.297079,29.6846349 98.2297251,29.5272063 C98.1623711,29.3685714 98.1298969,29.2020952 98.1298969,29.0271746 L98.1298969,17.0819048 L98.1298969,17.0819048 Z" id="Fill-5" fill="#EDE7F6" sketch:type="MSShapeGroup"></path>
                    <path d="M111.548969,17.1018095 C111.548969,16.8870794 111.58866,16.6964762 111.665636,16.5318095 C111.742612,16.3665397 111.843041,16.2302222 111.966924,16.122254 C112.09201,16.0148889 112.234536,15.9340635 112.394502,15.880381 C112.556271,15.8260952 112.724055,15.7995556 112.897852,15.7995556 C113.066237,15.7995556 113.231014,15.8260952 113.392182,15.880381 C113.552749,15.9340635 113.697079,16.0148889 113.82457,16.122254 C113.95146,16.2302222 114.054296,16.3665397 114.131873,16.5318095 C114.20945,16.6964762 114.247337,16.8870794 114.247337,17.1018095 L114.247337,25.27 C114.247337,25.843619 114.339948,26.3358095 114.52457,26.7507937 C114.709192,27.1645714 114.952148,27.5071746 115.253436,27.7798095 C115.556529,28.0518413 115.900515,28.2545079 116.285997,28.386 C116.672079,28.5174921 117.065979,28.5826349 117.469502,28.5826349 C117.877835,28.5826349 118.275945,28.5174921 118.661426,28.386 C119.047509,28.2545079 119.391495,28.0518413 119.693986,27.7798095 C119.995275,27.5071746 120.239433,27.1645714 120.423454,26.7507937 C120.608677,26.3358095 120.700687,25.843619 120.700687,25.27 L120.700687,17.1018095 C120.700687,16.8870794 120.738574,16.6964762 120.816753,16.5318095 C120.893729,16.3665397 120.995962,16.2302222 121.123454,16.122254 C121.250945,16.0148889 121.395275,15.9340635 121.557045,15.880381 C121.71701,15.8260952 121.885395,15.7995556 122.060395,15.7995556 C122.227577,15.7995556 122.391753,15.8260952 122.552921,15.880381 C122.714691,15.9340635 122.858419,16.0148889 122.985911,16.122254 C123.114003,16.2302222 123.216237,16.3665397 123.293213,16.5318095 C123.369588,16.6964762 123.409278,16.8870794 123.409278,17.1018095 L123.409278,25.3520317 C123.409278,26.2393016 123.250515,27.0149841 122.935997,27.674254 C122.619674,28.3335238 122.1939,28.8818095 121.656873,29.3197143 C121.119244,29.7570159 120.490808,30.0833333 119.769158,30.2992698 C119.047509,30.5146032 118.281357,30.6219683 117.469502,30.6219683 C116.657045,30.6219683 115.891495,30.5146032 115.174055,30.2992698 C114.454811,30.0833333 113.828179,29.7570159 113.291753,29.3197143 C112.754124,28.8818095 112.330155,28.3335238 112.018041,27.674254 C111.705928,27.0149841 111.548969,26.2393016 111.548969,25.3520317 L111.548969,17.1018095" id="Fill-6" fill="#EDE7F6" sketch:type="MSShapeGroup"></path>
                    <path d="M124.889261,23.1190794 C124.889261,21.9416825 125.05945,20.8806984 125.398024,19.9343175 C125.736598,18.9885397 126.207474,18.1839048 126.811856,17.5210159 C127.416838,16.858127 128.133677,16.3496508 128.966581,15.9967937 C129.798883,15.6433333 130.705155,15.4666032 131.684794,15.4666032 C132.295189,15.4666032 132.926632,15.5389841 133.577921,15.6831429 C134.228007,15.8285079 134.899141,16.0516825 135.591323,16.3544762 C135.812027,16.4491746 135.973196,16.5836825 136.073625,16.7586032 C136.174055,16.9335238 136.22457,17.1120635 136.22457,17.293619 C136.22457,17.4220952 136.202921,17.5463492 136.159622,17.6675873 C136.115722,17.7882222 136.052577,17.898 135.968385,17.9957143 C135.884192,18.0934286 135.783162,18.1706349 135.667096,18.2279365 C135.548625,18.2852381 135.416924,18.3135873 135.268986,18.3135873 C135.14811,18.3135873 135.013402,18.2870476 134.866667,18.2327619 C133.785997,17.8491429 132.825601,17.6573333 131.986684,17.6573333 C131.287887,17.6573333 130.671478,17.7785714 130.13445,18.0210476 C129.597423,18.2629206 129.148196,18.6151746 128.784966,19.076 C128.42354,19.5374286 128.147509,20.102 127.95988,20.7715238 C127.772251,21.4428571 127.678436,22.2076825 127.678436,23.069619 C127.678436,23.8573651 127.760223,24.5781587 127.924399,25.2295873 C128.088574,25.8828254 128.34055,26.4437778 128.679725,26.9118413 C129.0189,27.3793016 129.441065,27.7448254 129.948625,28.0066032 C130.454983,28.2695873 131.050344,28.4010794 131.734708,28.4010794 C132.211598,28.4010794 132.72457,28.3347302 133.274828,28.2044444 C133.825687,28.0729524 134.422852,27.8624444 135.066924,27.5729206 C135.154124,27.5313016 135.24012,27.5035556 135.324313,27.4860635 C135.407302,27.4697778 135.486684,27.4619365 135.560653,27.4619365 C135.701375,27.4619365 135.827062,27.487873 135.938316,27.5421587 C136.048368,27.5970476 136.144588,27.6712381 136.22457,27.7647302 C136.305756,27.8582222 136.367698,27.9673968 136.410997,28.0880317 C136.454897,28.2092698 136.476546,28.3335238 136.476546,28.4613968 C136.476546,28.6700952 136.416409,28.8769841 136.295533,29.0832698 C136.174055,29.2889524 135.973196,29.4578413 135.691753,29.5923492 C134.201546,30.2926349 132.818986,30.6430794 131.543471,30.6430794 C130.557818,30.6430794 129.655155,30.4597143 128.836082,30.0972063 C128.016409,29.7346984 127.315808,29.2201905 126.731271,28.5566984 C126.147938,27.8944127 125.695103,27.1012381 125.373368,26.1789841 C125.049828,25.2567302 124.889261,24.2379683 124.889261,23.1190794" id="Fill-7" fill="#EDE7F6" sketch:type="MSShapeGroup"></path>
                    <path d="M141.842612,29.0271746 C141.842612,29.2431111 141.804725,29.4288889 141.727749,29.588127 C141.650172,29.7455556 141.547337,29.8776508 141.421048,29.9868254 C141.292955,30.0941905 141.15043,30.1738095 140.992869,30.2286984 C140.834708,30.2829841 140.671735,30.3089206 140.504553,30.3089206 C140.336168,30.3089206 140.173797,30.2829841 140.016237,30.2286984 C139.858076,30.1738095 139.717955,30.096 139.593471,29.9916508 C139.468986,29.8873016 139.369759,29.754 139.29579,29.5923492 C139.222423,29.4306984 139.185739,29.2431111 139.185739,29.0271746 L139.185739,17.0716508 C139.185739,16.8563175 139.224227,16.668127 139.302405,16.5064762 C139.37878,16.3448254 139.47921,16.2115238 139.603694,16.1077778 C139.728179,16.0034286 139.868299,15.9244127 140.02646,15.870127 C140.183419,15.8164444 140.346392,15.7893016 140.514175,15.7893016 C140.68256,15.7893016 140.844931,15.8164444 141.003093,15.870127 C141.160052,15.9244127 141.301375,16.0034286 141.425859,16.1077778 C141.549742,16.2115238 141.650172,16.3448254 141.727749,16.5064762 C141.804725,16.668127 141.842612,16.8563175 141.842612,17.0716508 L141.842612,22.1805397 L147.087801,16.3749841 C147.222509,16.1729206 147.378265,16.0281587 147.556271,15.9406984 C147.734278,15.8538413 147.917096,15.8092063 148.104725,15.8092063 C148.266495,15.8092063 148.422852,15.8381587 148.573196,15.8954603 C148.724742,15.9527619 148.858849,16.0317778 148.976718,16.1325079 C149.093385,16.2338413 149.189003,16.3532698 149.262371,16.4907937 C149.33634,16.6289206 149.373625,16.7785079 149.373625,16.9401587 C149.373625,17.1627302 149.293041,17.3883175 149.131271,17.6169206 L144.480241,22.4326667 L149.65567,28.3196508 C149.749485,28.448127 149.814433,28.5747937 149.85232,28.6990476 C149.887801,28.8226984 149.906443,28.942127 149.906443,29.0573333 C149.906443,29.2328571 149.868557,29.3957143 149.791581,29.5465079 C149.714003,29.6979048 149.611168,29.8293968 149.484278,29.940381 C149.356787,30.0519683 149.210653,30.1394286 149.046478,30.2027619 C148.8811,30.2666984 148.715722,30.2992698 148.54854,30.2992698 C148.353694,30.2992698 148.164261,30.2540317 147.979038,30.1623492 C147.795017,30.071873 147.635052,29.9186667 147.500344,29.7027302 L141.842612,23.0388571 L141.842612,29.0271746" id="Fill-8" fill="#EDE7F6" sketch:type="MSShapeGroup"></path>
                    <path d="M153.370962,30.3089206 C153.195962,30.3089206 153.030584,30.2739365 152.872423,30.2027619 C152.715464,30.1321905 152.575344,30.0380952 152.455069,29.919873 C152.334794,29.802254 152.23677,29.6653333 152.162801,29.5060952 C152.089433,29.3486667 152.052749,29.1809841 152.052749,29.0072698 L152.052749,17.0921587 C152.052749,16.923873 152.084021,16.7604127 152.148368,16.602381 C152.212113,16.4443492 152.302921,16.3044127 152.420189,16.1831746 C152.537457,16.0619365 152.673368,15.9660317 152.82732,15.8954603 C152.982474,15.8248889 153.149656,15.7893016 153.33067,15.7893016 L160.659622,15.7893016 C160.827405,15.7893016 160.97354,15.818254 161.097423,15.8749524 C161.221907,15.9328571 161.325945,16.008254 161.410137,16.1023492 C161.493127,16.1970476 161.556271,16.3026032 161.595962,16.4202222 C161.636254,16.5384444 161.6561,16.6614921 161.6561,16.7887619 C161.6561,16.91 161.636254,17.0312381 161.595962,17.1524762 C161.556271,17.2737143 161.493127,17.3810794 161.410137,17.4757778 C161.325945,17.569873 161.221907,17.6452698 161.097423,17.7025714 C160.97354,17.759873 160.827405,17.7882222 160.659622,17.7882222 L154.679553,17.7882222 L154.679553,21.877746 L160.277148,21.877746 C160.444931,21.877746 160.592869,21.9066984 160.720361,21.9646032 C160.848454,22.0206984 160.953694,22.0979048 161.037285,22.1913968 C161.120876,22.2848889 161.182216,22.3904444 161.223711,22.5086667 C161.264003,22.6268889 161.283247,22.7505397 161.283247,22.8778095 C161.283247,22.9984444 161.262199,23.1190794 161.2189,23.2415238 C161.175601,23.3627619 161.111254,23.470127 161.027663,23.563619 C160.942869,23.6595238 160.838832,23.7349206 160.71555,23.791619 C160.590464,23.8477143 160.444931,23.8766667 160.277148,23.8766667 L154.679553,23.8766667 L154.679553,28.3106032 L160.880928,28.3106032 C161.048711,28.3106032 161.194845,28.3389524 161.31933,28.3950476 C161.443213,28.4523492 161.547251,28.5283492 161.631443,28.6230476 C161.714433,28.7165397 161.777577,28.8226984 161.817268,28.9409206 C161.85756,29.0585397 161.877405,29.1809841 161.877405,29.3094603 C161.877405,29.4306984 161.85756,29.5513333 161.817268,29.6719683 C161.777577,29.7944127 161.714433,29.9017778 161.631443,29.995873 C161.547251,30.0911746 161.443213,30.1671746 161.31933,30.2220635 C161.194845,30.2799683 161.048711,30.3089206 160.880928,30.3089206 L153.370962,30.3089206" id="Fill-9" fill="#EDE7F6" sketch:type="MSShapeGroup"></path>
                    <path d="M163.870361,17.8292381 C163.696564,17.8292381 163.543814,17.8008889 163.413316,17.7429841 C163.282216,17.6862857 163.17457,17.6102857 163.090378,17.5161905 C163.007388,17.4220952 162.943041,17.314127 162.899141,17.1928889 C162.855842,17.0716508 162.834192,16.9473968 162.834192,16.8189206 C162.834192,16.6916508 162.855842,16.5649841 162.899141,16.440127 C162.943041,16.315873 163.008591,16.2066984 163.09579,16.1126032 C163.18299,16.0185079 163.290034,15.9406984 163.417526,15.880381 C163.545017,15.8194603 163.696564,15.7893016 163.870361,15.7893016 L173.384107,15.7893016 C173.55189,15.7893016 173.699828,15.8194603 173.827921,15.880381 C173.955412,15.9406984 174.061856,16.0185079 174.149656,16.1126032 C174.236856,16.2066984 174.302405,16.3140635 174.346306,16.4353016 C174.389003,16.5571429 174.411254,16.6813968 174.411254,16.8092698 C174.411254,16.9371429 174.389003,17.062 174.346306,17.1826349 C174.302405,17.303873 174.238058,17.4130476 174.155069,17.5107619 C174.070275,17.6084762 173.96323,17.6862857 173.832131,17.7429841 C173.702234,17.8008889 173.55189,17.8292381 173.384107,17.8292381 L170.001375,17.8292381 L170.001375,29.0072698 C170.001375,29.222 169.963488,29.4126032 169.886512,29.5772698 C169.808935,29.7419365 169.7061,29.8794603 169.578608,29.9916508 C169.451718,30.1014286 169.306787,30.1846667 169.146821,30.237746 C168.985052,30.2926349 168.821478,30.3197778 168.652491,30.3197778 C168.484708,30.3197778 168.320533,30.2926349 168.159364,30.237746 C167.998797,30.1846667 167.853866,30.1014286 167.726375,29.9916508 C167.599485,29.8794603 167.496649,29.7419365 167.420275,29.5772698 C167.342698,29.4126032 167.303608,29.222 167.303608,29.0072698 L167.303608,17.8292381 L163.870361,17.8292381" id="Fill-10" fill="#EDE7F6" sketch:type="MSShapeGroup"></path>
                    <path d="M21.0312715,22.8078413 L9.39166667,22.8078413 C8.84501718,22.8078413 8.40180412,23.252381 8.40180412,23.8012698 C8.40180412,24.3495556 8.84501718,24.7940952 9.39166667,24.7940952 L21.0312715,24.7940952 C21.5791237,24.7940952 22.0217354,24.3495556 22.0217354,23.8012698 C22.0217354,23.252381 21.5791237,22.8078413 21.0312715,22.8078413" id="Fill-11" fill="#EDE7F6" sketch:type="MSShapeGroup"></path>
                    <path d="M17.5775773,27.0469524 L9.86675258,27.0469524 C9.31890034,27.0469524 8.87689003,27.4908889 8.87689003,28.0397778 C8.87689003,28.5880635 9.31890034,29.0332063 9.86675258,29.0332063 L17.5775773,29.0332063 C18.1236254,29.0332063 18.5680412,28.5880635 18.5680412,28.0397778 C18.5680412,27.4908889 18.1236254,27.0469524 17.5775773,27.0469524" id="Fill-12" fill="#EDE7F6" sketch:type="MSShapeGroup"></path>
                    <g id="Group-17">
                        <mask id="mask-2" sketch:name="Clip 14" fill="white">
                            <use xlink:href="#path-1"></use>
                        </mask>
                        <g id="Clip-14"></g>
                        <path d="M13.6602234,31.2854603 L10.7195017,31.2854603 C10.1728522,31.2854603 9.72963918,31.7293968 9.72963918,32.2788889 C9.72963918,32.8271746 10.1728522,33.2717143 10.7195017,33.2717143 L13.6602234,33.2717143 C14.2074742,33.2717143 14.6506873,32.8271746 14.6506873,32.2788889 C14.6506873,31.7293968 14.2074742,31.2854603 13.6602234,31.2854603" id="Fill-13" fill="#EDE7F6" sketch:type="MSShapeGroup" mask="url(#mask-2)"></path>
                        <path d="M11.5680412,4.37904762 C14.0168385,3.67273016 16.6959622,3.72580952 19.1158935,4.53225397 C19.2890893,4.58955556 19.4646907,4.61669841 19.6366838,4.61669841 C20.3282646,4.61669841 20.9723368,4.1775873 21.2026632,3.48273016 C21.4895189,2.61536508 21.0222509,1.67863492 20.1568729,1.39031746 C17.1079038,0.375174603 13.7408076,0.307015873 10.6551546,1.19730159 C9.77955326,1.44942857 9.27319588,2.36746032 9.5257732,3.24568254 C9.77654639,4.12390476 10.6918385,4.6335873 11.5680412,4.37904762" id="Fill-15" fill="#EDE7F6" sketch:type="MSShapeGroup" mask="url(#mask-2)"></path>
                        <path d="M15.3735395,18.3081587 C8.3242268,18.3081587 4.47723368,16.3393968 4.47723368,15.3284762 C4.47723368,14.3169524 8.3242268,12.3487937 15.3735395,12.3487937 C22.4246564,12.3487937 26.2704467,14.3169524 26.2704467,15.3284762 C26.2704467,16.3393968 22.4246564,18.3081587 15.3735395,18.3081587 L15.3735395,18.3081587 Z M25.8152062,19.4385079 L24.3863402,30.0320635 C24.3556701,30.2612698 24.0988832,30.4874603 23.8667526,30.4880635 L19.4604811,30.5049524 C18.1885739,30.510381 17.1536082,31.5514603 17.1536082,32.828381 L17.1536082,35.6826032 C17.1536082,35.8623492 17.0026632,36.013746 16.8234536,36.013746 L8.34106529,36.013746 C8.09690722,36.013746 7.81726804,35.7773016 7.77637457,35.5360317 C7.75592784,35.4135873 7.73608247,35.2899365 7.71503436,35.1674921 C7.65670103,34.8206667 7.59896907,34.4738413 7.54123711,34.1270159 C7.45584192,33.6173333 7.37044674,33.1088571 7.28505155,32.5991746 C7.179811,31.9670476 7.07396907,31.3367302 6.96812715,30.7046032 C6.85085911,30.0019048 6.73238832,29.2973968 6.6145189,28.5946984 C6.49304124,27.8696825 6.37276632,27.145873 6.25128866,26.4208571 C6.13402062,25.7217778 6.0161512,25.0220952 5.90008591,24.3224127 C5.79484536,23.6939048 5.68960481,23.0666032 5.58376289,22.4393016 C5.5007732,21.9465079 5.41958763,21.4531111 5.33719931,20.9609206 C5.27345361,20.5736825 5.20790378,20.1870476 5.13994845,19.7998095 C5.09484536,19.5410476 5.0419244,19.3196825 5.20790378,19.0922857 C5.34140893,18.9077143 5.54106529,18.7852698 5.77319588,18.7943175 C5.87603093,18.7973333 6.00412371,18.8648889 6.10214777,18.8944444 C6.22001718,18.9306349 6.33668385,18.9668254 6.45335052,19.0048254 C6.72216495,19.0892698 6.98917526,19.1767302 7.25798969,19.2587619 C7.84914089,19.4391111 8.44690722,19.5856825 9.05369416,19.7039048 C9.69656357,19.8281587 10.3454467,19.9391429 10.9955326,20.0235873 C11.6726804,20.1128571 12.3528351,20.1695556 13.0335911,20.2166032 C13.7305842,20.264254 14.4275773,20.288381 15.1257732,20.2926032 C15.2087629,20.2938095 15.2905498,20.2938095 15.3735395,20.2938095 C18.8843643,20.2938095 22.3500859,19.8076508 24.8241409,18.8057778 C24.9179553,18.7557143 25.0207904,18.7219365 25.1344502,18.7219365 C25.5103093,18.7219365 25.8152062,19.0271429 25.8152062,19.404127 C25.8152062,19.414381 25.8091924,19.4240317 25.8152062,19.4385079 L25.8152062,19.4385079 Z M23.313488,3.44714286 C22.8462199,3.16244444 22.2376289,3.31384127 21.9549828,3.78431746 C21.6717354,4.2535873 21.822079,4.86460317 22.2899485,5.14749206 C26.0389175,7.41904762 28.3878866,11.2679048 28.7210481,15.5872381 L28.2351375,15.5872381 C28.2435567,15.5021905 28.2501718,15.4153333 28.2501718,15.3284762 C28.2501718,12.0677143 21.7733677,10.3625397 15.3735395,10.3625397 C8.97491409,10.3625397 2.49750859,12.0677143 2.49750859,15.3284762 C2.49750859,15.4334286 2.50472509,15.5365714 2.5185567,15.6391111 L2.09879725,15.6391111 C2.05670103,15.6391111 2.02783505,15.5504444 2.02963918,15.5444127 L2.0290378,15.5444127 C2.37302405,11.2751429 4.69312715,7.46247619 8.38616838,5.19152381 C8.85283505,4.90561905 8.99896907,4.29460317 8.71331615,3.82593651 C8.4282646,3.35907937 7.81726804,3.21069841 7.35180412,3.49780952 C2.74828179,6.32790476 0,11.2455873 0,16.6536508 C0,17.2031429 0.443213058,17.6470794 0.989862543,17.6470794 L2.445189,17.6651746 L2.45,17.6681905 C2.46142612,17.6669841 2.47104811,17.6621587 2.4830756,17.6621587 C2.63341924,17.6621587 2.75369416,17.7665079 2.78977663,17.9058413 L2.79458763,17.9088571 L5.82431271,35.8671746 C6.0257732,37.0644762 7.13170103,38 8.34106529,38 L16.8234536,38 C17.5787801,38 18.1789519,37.5705397 18.7406357,37.1127302 C19.2728522,36.6778413 19.8201031,36.2634603 20.3637457,35.8436508 C20.8941581,35.4346984 21.4233677,35.025746 21.9531787,34.6167937 C22.4829897,34.2066349 23.0121993,33.795873 23.5408076,33.3851111 C24.032732,33.0020952 24.5222509,32.6154603 25.0123711,32.2306349 C25.5283505,31.8277143 25.9902062,31.4386667 26.2235395,30.8047302 C26.2842784,30.6406667 26.3257732,30.4693651 26.3492268,30.2956508 L27.9879725,18.0837778 L27.9969931,18.0759365 C27.9993986,17.8226032 28.203866,17.618127 28.4564433,17.618127 C28.4696735,17.618127 28.4804983,17.6247619 28.4937285,17.6259683 C28.9814433,17.6344127 29.7048969,17.6470794 29.7578179,17.6470794 C30.3044674,17.6470794 30.7482818,17.2031429 30.7482818,16.6536508 C30.7482818,11.2045714 27.9687285,6.26819048 23.313488,3.44714286 L23.313488,3.44714286 Z" id="Fill-16" fill="#EDE7F6" sketch:type="MSShapeGroup" mask="url(#mask-2)"></path>
                    </g>
                </g>
            </g>
        </g>
    </g>
</svg>