<?xml version="1.0" encoding="UTF-8" standalone="no"?>
<svg width="200px" height="200px" viewBox="0 0 200 200" version="1.1" xmlns="http://www.w3.org/2000/svg" xmlns:xlink="http://www.w3.org/1999/xlink">
    <!-- Generator: Sketch 40.1 (33804) - http://www.bohemiancoding.com/sketch -->
    <title>Autoresponder</title>
    <desc>Created with Sketch.</desc>
    <defs></defs>
    <g id="Page-1" stroke="none" stroke-width="1" fill="none" fill-rule="evenodd">
        <g id="Autoresponder">
            <circle id="Oval-1" fill="#e7ebf6" cx="100" cy="100" r="100"></circle>
            <g id="inbox" transform="translate(51.000000, 56.000000)">
                <path d="M14.7004315,31.6666667 L13.0670982,31.6666667 L1.63376486,52.9 L1.63376486,54.5333333 L31.0337649,54.5333333 L31.0337649,64.3333333 C31.0337649,66.1375367 32.4962282,67.6 34.3004315,67.6 L63.7004284,67.6 C65.5046318,67.6 66.9670951,66.1375367 66.9670951,64.3333333 L66.9670951,54.5333333 L96.3670951,54.5333333 L96.3670951,52.9 L84.9337618,31.6666667 L83.3004284,31.6666667" id="Shape" fill="#e7ebf6"></path>
                <path d="M63.7007976,69.2333333 L34.3007976,69.2333333 C31.5987793,69.2333333 29.4007976,67.0353516 29.4007976,64.3333333 L29.4007976,56.1666667 L1.63413089,56.1666667 C0.732128927,56.1666667 0.000797556667,55.4361329 0.000797556667,54.5333333 L0.000797556667,52.9 C0.000797556667,52.6304361 0.0677897033,52.3640625 0.196191427,52.1263998 L11.6295248,30.8930664 C11.9142415,30.3635091 12.4669271,30.0333333 13.0674642,30.0333333 L14.7007976,30.0333333 C15.6027995,30.0333333 16.3341309,30.7638671 16.3341309,31.6666667 C16.3341309,32.5694662 15.6027995,33.3 14.7007976,33.3 L14.0428386,33.3 L3.48917648,52.9 L31.0341309,52.9 C31.9361329,52.9 32.6674642,53.6305338 32.6674642,54.5333333 L32.6674642,64.3333333 C32.6674642,65.2345377 33.4003907,65.9666667 34.3007976,65.9666667 L63.7007976,65.9666667 C64.6012044,65.9666667 65.3341309,65.2345377 65.3341309,64.3333333 L65.3341309,54.5333333 C65.3341309,53.6305338 66.0654623,52.9 66.9674642,52.9 L94.5124186,52.9 L83.9587565,33.3 L83.3007976,33.3 C82.3987956,33.3 81.6674642,32.5694662 81.6674642,31.6666667 C81.6674642,30.7638671 82.3987956,30.0333333 83.3007976,30.0333333 L84.9341309,30.0333333 C85.534668,30.0333333 86.0873536,30.3635091 86.3720704,30.8930664 L97.8054037,52.1263998 C97.9338054,52.3640625 98.0007976,52.6304361 98.0007976,52.9 L98.0007976,54.5333333 C98.0007976,55.4361329 97.2694662,56.1666667 96.3674642,56.1666667 L68.6007976,56.1666667 L68.6007976,64.3333333 C68.6007976,67.0353516 66.4028158,69.2333333 63.7007976,69.2333333 L63.7007976,69.2333333 Z" id="Shape" fill="#3a64b7"></path>
                <polygon id="Shape" fill="#FFFFFF" points="76.7670966 67.6 21.2337649 67.6 21.2337649 2.26666667 66.9670966 2.26666667 76.7670966 12.0666667"></polygon>
                <path d="M76.7674642,49.6333333 C75.8654623,49.6333333 75.1341309,48.9027995 75.1341309,48 L75.1341309,12.7429687 L66.2911621,3.9 L22.8674642,3.9 L22.8674642,48 C22.8674642,48.9027995 22.1361329,49.6333333 21.2341309,49.6333333 C20.3321289,49.6333333 19.6007976,48.9027995 19.6007976,48 L19.6007976,2.26666667 C19.6007976,1.36386715 20.3321289,0.633333333 21.2341309,0.633333333 L66.9674642,0.633333333 C67.4005208,0.633333333 67.8160318,0.80559904 68.1222818,1.11184904 L77.9222818,10.911849 C78.2285318,11.218099 78.4007976,11.6328125 78.4007976,12.0666667 L78.4007976,48 C78.4007976,48.9027995 77.6694662,49.6333333 76.7674642,49.6333333 L76.7674642,49.6333333 Z" id="Shape" fill="#3a64b7"></path>
                <path d="M66.9670966,64.3333333 C66.9670966,66.1375367 65.5046332,67.6 63.7004299,67.6 L34.300433,67.6 C32.4962296,67.6 31.0337663,66.1375367 31.0337663,64.3333333 L31.0337663,54.5333333 L1.63376633,54.5333333 L1.63376633,83.9333333 C1.63376633,85.7373373 3.09622964,87.2 4.900433,87.2 L93.100433,87.2 C94.9046364,87.2 96.3670997,85.7373373 96.3670997,83.9333333 L96.3670997,54.5333333 L66.9670997,54.5333333 L66.9670997,64.3333333 L66.9670966,64.3333333 Z" id="Shape" fill="#FFFFFF"></path>
                <path d="M93.1007976,88.8333333 L4.90079756,88.8333333 C2.19877929,88.8333333 0.000797556667,86.6353516 0.000797556667,83.9333333 L0.000797556667,54.5333333 C0.000797556667,53.6305338 0.732128927,52.9 1.63413089,52.9 L31.0341309,52.9 C31.9361329,52.9 32.6674642,53.6305338 32.6674642,54.5333333 L32.6674642,64.3333333 C32.6674642,65.2345377 33.4003907,65.9666667 34.3007976,65.9666667 L63.7007976,65.9666667 C64.6012044,65.9666667 65.3341309,65.2345377 65.3341309,64.3333333 L65.3341309,54.5333333 C65.3341309,53.6305338 66.0654623,52.9 66.9674642,52.9 L96.3674642,52.9 C97.2694662,52.9 98.0007976,53.6305338 98.0007976,54.5333333 L98.0007976,83.9333333 C98.0007976,86.6353516 95.8028158,88.8333333 93.1007976,88.8333333 L93.1007976,88.8333333 Z M3.26746422,56.1666667 L3.26746422,83.9333333 C3.26746422,84.8345377 4.00039071,85.5666667 4.90079756,85.5666667 L93.1007976,85.5666667 C94.0012044,85.5666667 94.7341309,84.8345377 94.7341309,83.9333333 L94.7341309,56.1666667 L68.6007976,56.1666667 L68.6007976,64.3333333 C68.6007976,67.0353516 66.4028158,69.2333333 63.7007976,69.2333333 L34.3007976,69.2333333 C31.5987793,69.2333333 29.4007976,67.0353516 29.4007976,64.3333333 L29.4007976,56.1666667 L3.26746422,56.1666667 L3.26746422,56.1666667 Z" id="Shape" fill="#3a64b7"></path>
                <path d="M53.9007976,23.5 L44.1007976,23.5 C43.1987956,23.5 42.4674642,22.7694662 42.4674642,21.8666667 C42.4674642,20.9638671 43.1987956,20.2333333 44.1007976,20.2333333 L53.9007976,20.2333333 C54.8027995,20.2333333 55.5341309,20.9638671 55.5341309,21.8666667 C55.5341309,22.7694662 54.8027995,23.5 53.9007976,23.5 L53.9007976,23.5 Z" id="Shape" fill="#3a64b7"></path>
                <path d="M63.7007976,33.3 L34.3007976,33.3 C33.3987956,33.3 32.6674642,32.5694662 32.6674642,31.6666667 C32.6674642,30.7638671 33.3987956,30.0333333 34.3007976,30.0333333 L63.7007976,30.0333333 C64.6027995,30.0333333 65.3341309,30.7638671 65.3341309,31.6666667 C65.3341309,32.5694662 64.6027995,33.3 63.7007976,33.3 L63.7007976,33.3 Z" id="Shape" fill="#3a64b7"></path>
                <path d="M63.7007976,43.1 L34.3007976,43.1 C33.3987956,43.1 32.6674642,42.3694662 32.6674642,41.4666667 C32.6674642,40.5638671 33.3987956,39.8333333 34.3007976,39.8333333 L63.7007976,39.8333333 C64.6027995,39.8333333 65.3341309,40.5638671 65.3341309,41.4666667 C65.3341309,42.3694662 64.6027995,43.1 63.7007976,43.1 L63.7007976,43.1 Z" id="Shape" fill="#3a64b7"></path>
                <polygon id="Shape" fill="#FFFFFF" points="66.9670966 2.26666667 66.9670966 12.0666667 76.7670966 12.0666667"></polygon>
                <path d="M76.7674642,13.7 L66.9674642,13.7 C66.0654623,13.7 65.3341309,12.9694662 65.3341309,12.0666667 L65.3341309,2.26666667 C65.3341309,1.60631506 65.7320963,1.00976571 66.3422038,0.757747437 C66.9523113,0.50094399 67.6541342,0.642903687 68.122282,1.11184904 L77.922282,10.911849 C78.3896323,11.3791993 78.5291993,12.0810222 78.2763836,12.6919272 C78.023568,13.3028323 77.4278158,13.7 76.7674642,13.7 L76.7674642,13.7 Z M68.6007976,10.4333333 L72.8244955,10.4333333 L68.6007976,6.20963542 L68.6007976,10.4333333 L68.6007976,10.4333333 Z" id="Shape" fill="#3a64b7"></path>
            </g>
        </g>
    </g>
</svg>