<svg width="200" height="200" viewBox="0 0 200 200" xmlns="http://www.w3.org/2000/svg"><title>Group</title><desc>Created with Sketch.</desc><g fill="none"><circle fill="#EDE7F6" cx="100" cy="100" r="100"/><g><path d="M83.131 40.814c-3.623-3.95-16.412-1.005-20.258 3.188s9.2 1.181 12.823 5.131c3.623 3.95 10.623 27.32 10.623 27.32s.435-31.69-3.188-35.639z" id="Shape" fill="#fff"/><path d="M86.318 78.536c-.907 0-1.727-.594-1.994-1.485-2.653-8.859-7.76-23.89-10.164-26.511-1.164-1.27-4.73-1.555-7.334-1.764-3.339-.269-5.75-.462-6.549-2.496-.462-1.175-.104-2.415 1.06-3.686 2.897-3.158 10-5.725 15.833-5.725h.002c3.383 0 5.975.877 7.497 2.536 3.878 4.231 3.839 29.447 3.735 37.076-.014 1.028-.777 1.893-1.794 2.035l-.291.02zm-20.833-34.061c.557.058 1.154.106 1.674.148 3.475.279 7.8.626 10.073 3.102 1.969 2.146 4.645 8.859 6.881 15.215-.33-10.295-1.192-19.221-2.517-20.719-.692-.753-2.305-1.184-4.425-1.184-4.024 0-9.019 1.523-11.686 3.439z" id="Shape" fill="#673AB7"/><path d="M116.744 40.814c3.623-3.95 16.412-1.005 20.258 3.188s-9.2 1.181-12.823 5.131c-3.623 3.95-10.623 27.32-10.623 27.32s-.435-31.69 3.188-35.639z" id="Shape" fill="#fff"/><path d="M113.558 78.536l-.291-.02c-1.017-.141-1.78-1.006-1.794-2.035-.104-7.628-.144-32.845 3.735-37.076 1.522-1.659 4.116-2.536 7.499-2.536h.002c5.833 0 12.933 2.569 15.828 5.725 1.166 1.27 1.522 2.51 1.06 3.686-.798 2.035-3.21 2.228-6.547 2.496-2.604.209-6.171.494-7.334 1.764-2.405 2.621-7.511 17.651-10.164 26.511-.267.891-1.086 1.485-1.994 1.485zm4.722-36.315c-1.326 1.498-2.189 10.426-2.519 20.721 2.238-6.357 4.913-13.072 6.883-15.218 2.271-2.476 6.596-2.823 10.073-3.102.519-.042 1.115-.09 1.672-.148-2.665-1.915-7.658-3.439-11.682-3.439-2.122 0-3.735.432-4.427 1.185z" id="Shape" fill="#673AB7"/><path d="M120.522 97.501c.19-1.358.313-2.744.313-4.167 0-13.807-9.328-20.833-20.833-20.833-11.506 0-20.833 7.026-20.833 20.833 0 1.423.122 2.809.313 4.167h41.042z" id="Shape" fill="#fff"/><path d="M120.522 99.584h-41.042c-1.038 0-1.919-.765-2.063-1.792-.224-1.595-.334-3.053-.334-4.458 0-13.921 8.995-22.917 22.917-22.917 13.922 0 22.917 8.996 22.917 22.917 0 1.398-.108 2.854-.332 4.455-.142 1.029-1.023 1.795-2.063 1.795zm-39.183-4.167h37.321c.059-.723.09-1.413.09-2.083 0-13.824-9.686-18.75-18.75-18.75s-18.75 4.926-18.75 18.75c0 .672.031 1.362.09 2.083z" id="Shape" fill="#673AB7"/><path d="M68.751 97.501v58.333c0 2.301 1.865 4.167 4.167 4.167h54.167c2.301 0 4.167-1.865 4.167-4.167v-58.333h-62.5z" id="Shape" fill="#EDE7F6"/><path d="M127.083 162.084h-54.167c-3.446 0-6.25-2.804-6.25-6.25v-58.333c0-1.151.932-2.083 2.083-2.083h62.5c1.152 0 2.083.933 2.083 2.083v58.333c0 3.446-2.804 6.25-6.25 6.25zm-56.25-62.5v56.25c0 1.148.934 2.083 2.083 2.083h54.167c1.149 0 2.083-.935 2.083-2.083v-56.25h-58.333zM93.75 91.251c-1.152 0-2.083-.933-2.083-2.083v-4.167c0-1.151.932-2.083 2.083-2.083 1.152 0 2.083.933 2.083 2.083v4.167c0 1.151-.932 2.083-2.083 2.083zM106.25 91.251c-1.152 0-2.083-.933-2.083-2.083v-4.167c0-1.151.932-2.083 2.083-2.083 1.152 0 2.083.933 2.083 2.083v4.167c0 1.151-.932 2.083-2.083 2.083zM147.917 107.918c-1.152 0-2.083-.933-2.083-2.083 0-3.446-2.804-6.25-6.25-6.25h-79.167c-3.446 0-6.25 2.804-6.25 6.25 0 1.151-.932 2.083-2.083 2.083-1.152 0-2.083-.933-2.083-2.083 0-5.743 4.673-10.417 10.417-10.417h79.167c5.743 0 10.417 4.673 10.417 10.417 0 1.151-.932 2.083-2.083 2.083z" fill="#673AB7"/></g></g></svg>