<svg width="300" height="62" viewBox="0 0 300 62" xmlns="http://www.w3.org/2000/svg"><title>Deal With It</title><desc>Deal With It</desc><g fill="none"><path fill="#673AB7" d="M10.757 36.944v-11.551l-10.757-.866v-23.596h143.426v36.013h-12.007v12.368h-11.087v11.978h-84.69v-11.978h-12.697v-12.368zM179.544 49.2v-12.006h-12.678v-24.012h-27.578v-12.251h160.712v24.311h-12.606v11.952h-12.235v12.006h-12.181v12.09h-71.986v-12.09z"/><path fill="#EDE7F6" d="M23.904 12.883h11.952v11.952h-11.952zM47.809 12.883h11.952v11.952h-11.952zM35.857 24.835h11.952v11.952h-11.952zM59.761 24.835h11.952v11.952h-11.952zM47.809 36.788h11.952v11.952h-11.952zM71.713 36.788h11.952v11.952h-11.952zM179.283 12.883h11.952v11.952h-11.952zM203.187 12.883h11.952v11.952h-11.952zM191.235 24.835h11.952v11.952h-11.952zM215.139 24.835h11.952v11.952h-11.952zM203.187 36.788h11.952v11.952h-11.952zM227.092 36.788h11.952v11.952h-11.952z"/></g></svg>
