<svg width="101" height="127" viewBox="0 0 101 127" xmlns="http://www.w3.org/2000/svg"><title>Designer</title><desc>Created with Sketch.</desc><g fill="none"><g><path d="M71.018 17.115c13.392 4.751 23.228 16.56 21.366 32.897-.389 3.418-1.139 5.446-1.806 6.863l-.056-.028c.361-5.557-4.862-7.53-8.447-6.252-14.003 4.973-25.756-8.335-43.344 4.973-2.445-4.168-3.084-12.392 3.112-17.365-7.946.917-11.753 5.779-18.004 8.919-6.39 3.195-10.336 3.418-10.197 8.613l-.139.083c-1.056-1.528-1.945-2.167-2.278-3.612-4.279-17.699 5.918-27.785 20.172-34.203 2.723-1.223.667-17.615 3.668-14.698 8.308 8.058 30.591 11.892 35.953 13.809z" id="Shape" fill="#e7ebf6"/><path d="M91.273 66.516c0 4.807 1.723 14.281-3.751 17.254-.5 10.558-12.336 27.062-12.336 27.062-7.085 7.335-17.615 12.503-18.949 12.503-.167 0-1.889-.917-4.39-.917-2.445 0-4.001.917-4.168.917-3.612 0-10.475-3.779-20.116-12.503 0 0-11.781-16.504-12.281-27.062-5.446-2.723-3.779-12.448-3.779-17.254 0-1.278.445-2.362 1.056-3.306h8.28v11.114c0 6.14 4.973 11.114 11.114 11.114h7.057c4.279 0 8.252-2.139 10.642-5.696l1.75-2.64 1.75 2.64c2.389 3.556 6.363 5.696 10.642 5.696h7.057c6.14 0 11.114-4.973 11.114-11.114v-11.114h8.252c.611.945 1.056 2.028 1.056 3.306zM90.523 56.847l.056.028c-.5 1.139-.972 1.862-1.084 2.64 0 0-1.973-1.389-2.306.389.806.834 2.112 1.889 3.029 3.306h-77.658c.917-1.417 2.223-2.473 3.029-3.306-.722-1.945-1.445-3.167-2.084-4.084l.139-.083c-.139-5.196 3.806-5.418 10.197-8.613 6.252-3.14 10.058-8.002 18.004-8.919-6.196 4.973-5.557 13.198-3.112 17.365 17.588-13.309 29.341 0 43.344-4.973 3.584-1.278 8.808.695 8.447 6.252z" id="Shape" fill="#fff"/><path d="M56.231 126.124c-.558 0-.962-.16-1.286-.288-.482-.19-1.609-.632-3.097-.632-1.381 0-2.35.407-2.815.605-.316.133-.75.315-1.343.315-6.082 0-15.318-7.201-21.996-13.244-.148-.133-.281-.282-.396-.445-.479-.67-11.275-15.884-12.662-27.049-4.655-3.579-4.268-11.038-4.004-16.117.053-1.02.103-1.959.103-2.754 0-3.348 1.977-5.706 3.56-7.274-.67-1.389-1.296-2.171-1.863-2.879-.71-.885-1.513-1.888-1.902-3.495-3.956-16.356 3.16-28.843 21.151-37.124.379-1.207.539-4.336.638-6.276.256-5.033.412-8.072 2.925-9.063.602-.239 2.172-.624 3.75.904 5.843 5.663 20.1 9.282 28.619 11.442 2.778.705 4.974 1.264 6.342 1.75 15.912 5.649 25.014 19.712 23.191 35.824-.522 4.618-1.682 7.006-2.45 8.588-.205.423-.438.904-.471 1.085-.054.298-.155.581-.296.838 1.136 1.446 2.12 3.316 2.12 5.679 0 .806.053 1.753.109 2.778.271 5.001.67 12.351-3.983 16.052-1.37 11.174-12.243 26.425-12.724 27.095-.08.111-.167.214-.262.312-7.086 7.318-18.251 13.371-20.958 13.371zm-26.58-17.156c10.905 9.822 16.001 11.35 17.6 11.567.921-.364 2.514-.887 4.596-.887 2.001 0 3.591.459 4.525.79 2.456-.933 10.712-5.305 16.679-11.399 1.195-1.701 11.271-16.304 11.696-25.389.046-.971.596-1.848 1.45-2.312 2.962-1.609 2.644-7.467 2.412-11.743-.061-1.137-.117-2.184-.117-3.08 0-1.525-1.372-2.825-2.582-3.97l-.695-.67c-.643-.648-.928-1.571-.76-2.469.256-1.376 1.08-2.442 2.258-2.92.374-.152.748-.233 1.108-.26.623-1.294 1.412-3.091 1.802-6.526 1.848-16.323-8.877-26.181-19.528-29.963-1.127-.402-3.317-.955-5.851-1.598-7.954-2.021-20.615-5.234-28.257-10.52-.049.738-.087 1.495-.119 2.133-.273 5.318-.487 9.518-3.339 10.799-16.059 7.223-21.969 17.075-18.599 31.008.088.369.237.581.837 1.33.868 1.083 2.179 2.719 3.43 6.051.383 1.018.136 2.163-.629 2.936-.206.206-.442.431-.695.67-1.21 1.145-2.582 2.445-2.582 3.97 0 .879-.053 1.916-.111 3.044-.213 4.097-.535 10.289 2.348 11.738.898.45 1.481 1.351 1.529 2.352.418 8.965 10.189 23.302 11.593 25.318zM90.535 59.62l-.176-.005c-1.532-.095-2.696-1.414-2.599-2.947.083-1.324-.3-2.317-1.137-2.949-.95-.714-2.435-.928-3.611-.51-6.349 2.258-12.173 1.186-17.805.163-7.856-1.438-15.277-2.789-24.803 4.415-.634.475-1.446.657-2.221.507-.78-.155-1.454-.638-1.855-1.324-1.92-3.294-2.918-8.612-1.311-13.588-1.308.746-2.567 1.606-3.896 2.515-1.852 1.267-3.766 2.575-6.029 3.706-1.461.73-2.799 1.313-3.995 1.832-4.336 1.883-4.731 2.239-4.686 4.246.035 1.533-1.18 2.806-2.715 2.841-1.591-.035-2.807-1.18-2.84-2.716-.133-5.926 3.831-7.646 8.027-9.47 1.115-.483 2.361-1.023 3.723-1.704 1.925-.963 3.602-2.108 5.379-3.324 3.724-2.545 7.577-5.177 13.55-5.864 1.231-.149 2.405.548 2.882 1.688.476 1.142.141 2.464-.824 3.237-3.696 2.971-4.294 7.489-3.546 10.919 10.132-6.314 18.605-4.765 26.157-3.384 5.142.936 9.997 1.823 14.948.068 2.928-1.031 6.386-.521 8.816 1.311 2.352 1.775 3.538 4.52 3.337 7.733-.092 1.473-1.315 2.605-2.77 2.605zM50.973 107.047c-6.494 0-10.034-2.746-10.418-3.059-1.122-.918-1.286-2.572-.368-3.695.919-1.123 2.571-1.287 3.697-.367.072.054 2.468 1.869 7.089 1.869s7.015-1.813 7.115-1.892c1.136-.877 2.782-.692 3.676.428.896 1.123.736 2.746-.374 3.657-.382.313-3.921 3.059-10.416 3.059z" fill="#3a64b7"/></g><g><path fill="#3a64b7" d="M3.611 77.385v-3.878l-3.611-.291v-7.922h48.153v12.091h-4.031v4.152h-3.722v4.021h-28.433v-4.021h-4.263v-4.152zM60.279 81.499v-4.031h-4.256v-8.062h-9.259v-4.113h53.956v8.162h-4.232v4.013h-4.108v4.031h-4.09v4.059h-24.168v-4.059z"/><path fill="#e7ebf6" d="M8.025 69.307h4.013v4.013h-4.013zM16.051 69.307h4.013v4.013h-4.013zM12.038 73.319h4.013v4.013h-4.013zM20.064 73.319h4.013v4.013h-4.013zM16.051 77.332h4.013v4.013h-4.013zM24.076 77.332h4.013v4.013h-4.013zM60.191 69.307h4.013v4.013h-4.013zM68.216 69.307h4.013v4.013h-4.013zM64.204 73.319h4.013v4.013h-4.013zM72.229 73.319h4.013v4.013h-4.013zM68.216 77.332h4.013v4.013h-4.013zM76.242 77.332h4.013v4.013h-4.013z"/></g></g></svg>