<svg width="97" height="126" viewBox="0 0 97 126" xmlns="http://www.w3.org/2000/svg"><title>Dick</title><desc>Dick</desc><g fill="none"><path d="M93.134 43.089c-.393 3.538-1.149 5.685-1.845 7.227l-.151-.091c2.51-15.512-30.601-2.147-49.137-4.112-9.374-.998-16.873-5.14-15.391-10.341-4.264-.242-19.655 4.808-19.171 13.547l-.121.091c-1.179-1.663-2.117-2.359-2.48-3.931-4.687-19.262 6.441-30.238 21.923-37.223 2.963-1.33 6.652-2.449 8.436 4.082 5.02-15.361 28.847-7.136 34.713-5.05 14.545 5.171 25.249 18.022 23.223 35.802z" id="Shape" fill="#EDE7F6"/><path d="M91.29 53.339c-.534 0-1.063-.142-1.533-.416-1.075-.632-1.801-1.949-1.603-3.177.319-1.981-.239-2.548-.425-2.734-2.522-2.56-13.356-.957-22.058.337-8.342 1.24-16.968 2.516-23.987 1.772-7.929-.842-14.23-3.673-16.864-7.574-.514-.765-.892-1.559-1.128-2.377-3.304.783-8.271 2.74-11.174 5.64-1.468 1.465-2.141 2.885-2.061 4.341.056 1.007-.39 1.973-1.193 2.581-.656.49-1.547.759-2.348.62-.809-.124-1.592-.526-2.064-1.193-.31-.434-.599-.794-.862-1.122-.791-.983-1.689-2.097-2.097-3.88-4.364-17.921 3.582-31.614 23.626-40.653 1.538-.694 4.731-2.126 7.87-.65.664.316 1.27.726 1.813 1.243 1.323-1.583 2.971-2.861 4.928-3.824 6.883-3.381 17.245-2.652 30.793 2.167 17.313 6.157 27.208 21.462 25.215 38.991-.464 4.149-1.414 6.626-2.091 8.126-.354.785-1.022 1.382-1.843 1.642-.298.094-.608.142-.915.142zm-64.968-20.6l.458.015c.918.05 1.76.517 2.291 1.264.534.75.697 1.698.446 2.581-.109.381-.157.865.316 1.562 1.308 1.94 5.679 4.22 12.488 4.946 6.251.664 14.493-.561 22.46-1.742 10.766-1.598 20.219-2.997 25.475.035 1.299-16.956-10.064-27.247-21.359-31.263-14.883-5.295-22.41-4.246-26.101-2.439-2.327 1.143-3.871 2.968-4.725 5.578-.413 1.267-1.6 2.043-2.947 2.085-1.335-.032-2.489-.939-2.844-2.227-.632-2.315-1.335-2.749-1.471-2.811-.416-.195-1.358.038-2.808.691-16.288 7.347-22.98 17.157-20.839 30.705.331-.405.691-.8 1.081-1.19 4.846-4.84 13.811-7.79 18.078-7.79z" id="Shape" fill="#0A94E3"/><path d="M91.289 50.316c-.605 1.361-1.149 2.238-1.3 3.115 0 0-2.147-1.512-2.51.423 1.482 1.512 4.445 3.75 4.445 7.197 0 5.231-1.3 15.542-7.257 18.778-.544 11.49-8.92 29.452-8.92 29.452-.484.484-.968.998-1.512 1.482-4.324 4.022-9.767 7.318-13.97 9.465-3.326 1.693-5.866 2.661-6.471 2.661-.151 0-2.026-.998-4.778-.998-2.631 0-4.354.998-4.505.998-1.724 0-4.354-.786-7.68-2.449-3.87-1.996-8.678-5.171-13.97-9.767-.514-.454-1.028-.907-1.542-1.391 0 0-8.376-17.961-8.92-29.452-5.927-2.963-7.257-13.547-7.257-18.778 0-3.447 2.963-5.685 4.445-7.197-.786-2.117-1.572-3.447-2.268-4.445l.121-.091c-.484-8.739 14.907-13.789 19.171-13.547-1.482 5.201 6.017 9.344 15.391 10.341 18.536 1.965 51.647-11.4 49.137 4.112l.151.091z" id="Shape" fill="#fff"/><path d="M91.142 53.25c-.159 0-.322-.012-.484-.038-1.651-.266-2.77-1.819-2.504-3.467.319-1.981-.239-2.548-.425-2.734-2.522-2.56-13.356-.957-22.058.337-8.342 1.24-16.968 2.516-23.987 1.772-7.929-.845-14.23-3.673-16.864-7.574-.514-.765-.892-1.559-1.128-2.377-3.304.783-8.271 2.74-11.174 5.64-1.468 1.465-2.141 2.885-2.061 4.341.094 1.668-1.184 3.095-2.85 3.186-1.745.177-3.095-1.184-3.186-2.85-.177-3.186 1.146-6.281 3.824-8.956 5.029-5.02 14.534-7.994 18.536-7.775.918.05 1.76.517 2.291 1.264.534.75.697 1.698.446 2.581-.109.381-.157.865.316 1.562 1.308 1.94 5.679 4.22 12.488 4.946 6.251.664 14.493-.561 22.46-1.742 12.113-1.801 22.566-3.349 27.253 1.397 1.925 1.949 2.628 4.624 2.091 7.946-.239 1.485-1.524 2.542-2.982 2.542zM33.652 70.15h-.602c-1.671 0-3.024-1.352-3.024-3.024 0-1.671 1.352-3.024 3.024-3.024h.602c1.671 0 3.024 1.352 3.024 3.024 0 1.671-1.352 3.024-3.024 3.024zM63.908 70.15h-.602c-1.671 0-3.024-1.352-3.024-3.024 0-1.671 1.352-3.024 3.024-3.024h.602c1.671 0 3.024 1.352 3.024 3.024 0 1.671-1.352 3.024-3.024 3.024zM40.609 66.521h-14.741c-1.671 0-3.024-1.352-3.024-3.024 0-1.671 1.352-3.024 3.024-3.024h14.741c1.671 0 3.024 1.352 3.024 3.024 0 1.671-1.352 3.024-3.024 3.024zM71.305 66.521h-14.741c-1.671 0-3.024-1.352-3.024-3.024 0-1.671 1.352-3.024 3.024-3.024h14.741c1.671 0 3.024 1.352 3.024 3.024 0 1.671-1.352 3.024-3.024 3.024zM54.594 102.807h-12.095c-1.671 0-3.024-1.352-3.024-3.024 0-1.671 1.352-3.024 3.024-3.024h12.095c1.671 0 3.024 1.352 3.024 3.024 0 1.671-1.352 3.024-3.024 3.024zM53.794 125.91c-.381 0-1.025-.165-1.379-.307-.523-.207-1.745-.691-3.399-.691-1.506 0-2.599.464-3.065.661-.372.157-1.036.337-1.441.337-2.318 0-5.357-.93-9.033-2.767-4.636-2.392-9.671-5.909-14.599-10.191-.552-.487-1.096-.966-1.633-1.474-.281-.263-.505-.576-.667-.921-.337-.723-7.917-17.092-9.08-28.968-7.001-5.12-7.379-17.88-7.379-20.538 0-3.659 2.165-6.228 3.88-7.932-.434-.895-.833-1.512-1.161-1.981-.295-.416-.585-.777-.847-1.104-.791-.983-1.689-2.097-2.097-3.88-4.364-17.921 3.582-31.614 23.626-40.653 1.538-.694 4.731-2.126 7.87-.65.664.316 1.27.726 1.813 1.243 1.323-1.583 2.971-2.861 4.928-3.824 6.883-3.381 17.245-2.652 30.793 2.167 17.313 6.157 27.211 21.462 25.212 38.994-.458 4.143-1.412 6.62-2.088 8.124-.195.437-.387.839-.564 1.205-.216.446-.484.998-.517 1.193-.059.325-.168.635-.322.921 1.231 1.571 2.303 3.606 2.303 6.178 0 2.607-.375 15.175-7.376 20.487-1.146 11.883-8.75 28.295-9.086 29.019-.148.316-.348.605-.596.853l-.31.313c-.416.425-.845.859-1.311 1.276-5.097 4.734-11.351 8.245-14.629 9.919-2.678 1.364-6.213 2.991-7.846 2.991zm-29.975-18.438c.345.316.694.623 1.039.927 5.758 5.002 10.445 7.849 13.359 9.352 3.104 1.55 4.937 1.97 5.803 2.076 1.001-.396 2.731-.963 4.996-.963 2.209 0 3.945.502 4.961.865.856-.298 2.566-1.001 4.914-2.197 3-1.533 8.72-4.739 13.285-8.986l.053-.047c.351-.313.673-.641.989-.963 1.282-2.841 7.967-18.081 8.428-27.849.05-1.057.65-2.011 1.577-2.516 3.901-2.12 5.679-9.842 5.679-16.12 0-1.654-1.479-3.062-2.782-4.302-.292-.278-.564-.537-.8-.78-.691-.706-.995-1.704-.812-2.675.278-1.488 1.172-2.64 2.448-3.157.41-.168.818-.254 1.214-.283.115-.236.236-.493.357-.768.558-1.24 1.237-3.065 1.6-6.331 2.026-17.768-9.638-28.499-21.229-32.618-14.883-5.295-22.41-4.246-26.101-2.439-2.327 1.143-3.871 2.968-4.725 5.578-.413 1.267-1.6 2.043-2.947 2.085-1.335-.032-2.489-.939-2.844-2.227-.632-2.315-1.335-2.749-1.471-2.811-.416-.195-1.358.038-2.808.691-17.481 7.884-23.91 18.609-20.225 33.749.097.428.263.661.924 1.482.331.413.694.865 1.081 1.414.673.963 1.665 2.525 2.637 5.138.408 1.098.145 2.336-.676 3.171-.236.242-.505.499-.797.777-1.302 1.243-2.782 2.652-2.782 4.305 0 5.339 1.488 14.024 5.587 16.073.977.49 1.615 1.471 1.668 2.563.458 9.709 7.046 24.784 8.398 27.784z" fill="#673AB7"/></g></svg>
