<svg width="200" height="231" viewBox="0 0 200 231" xmlns="http://www.w3.org/2000/svg"><title>Hipster</title><desc>Hipster</desc><g fill="none"><path d="M192.601 202.759c5.76 4.96 3.28 14.32-4.16 15.84-17.36 3.52-48.6 8.4-88.44 8.4-40.56 0-70.92-4.76-87.92-8.28-7.44-1.52-9.8-10.96-4-15.88 11.64-9.8 28.32-17.72 51.48-21.68.56-.08 1.2-.4 1.8-.88l.08.24c.76 2.92 4.56 6.28 10.52 9l.04.12c-.16.04-.32.08-.4.16-7.76 4.64-6.52 21.4 0 24.96 3.48 1.92 23.92-8.64 29.12-11.4 5.2 2.76 25.64 13.32 29.12 11.4 6.52-3.56 7.76-20.32 0-24.96-.36-.2-.96-.24-1.8-.12 5.84-2.64 9.68-5.92 11.04-9.04.44.28.88.44 1.32.52 23.88 3.56 40.68 11.64 52.2 21.6zM128.241 24.639c19.28 6.84 33.44 23.84 30.76 47.36-.56 4.92-1.64 7.84-2.6 9.88l-.08-.04c.52-8-7-10.84-12.16-9-20.16 7.16-37.08-12-62.4 7.16-3.52-6-4.44-17.84 4.48-25-11.44 1.32-16.92 8.32-25.92 12.84-9.2 4.6-14.88 4.92-14.68 12.4l-.2.12c-1.52-2.2-2.8-3.12-3.28-5.2-6.16-25.48 8.52-40 29.04-49.24 3.92-1.76.96-25.36 5.28-21.16 11.96 11.6 44.04 17.12 51.76 19.88z" id="Shape" fill="#e7ebf6"/><path d="M157.401 95.759c0 6.92 2.48 20.56-5.4 24.84-.72 15.2-17.76 38.96-17.76 38.96-10.2 10.56-25.36 18-27.28 18-.24 0-2.72-1.32-6.32-1.32-3.52 0-5.76 1.32-6 1.32-5.2 0-15.08-5.44-28.96-18 0 0-16.96-23.76-17.68-38.96-7.84-3.92-5.44-17.92-5.44-24.84 0-1.84.64-3.4 1.52-4.76h11.92v16c0 8.84 7.16 16 16 16h10.16c6.16 0 11.88-3.08 15.32-8.2l2.52-3.8 2.52 3.8c3.44 5.12 9.16 8.2 15.32 8.2h10.16c8.84 0 16-7.16 16-16v-16h11.88c.88 1.36 1.52 2.92 1.52 4.76zM156.321 81.839l.08.04c-.72 1.64-1.4 2.68-1.56 3.8 0 0-2.84-2-3.32.56 1.16 1.2 3.04 2.72 4.36 4.76h-111.8c1.32-2.04 3.2-3.56 4.36-4.76-1.04-2.8-2.08-4.56-3-5.88l.2-.12c-.2-7.48 5.48-7.8 14.68-12.4 9-4.52 14.48-11.52 25.92-12.84-8.92 7.16-8 19-4.48 25 25.32-19.16 42.24 0 62.4-7.16 5.16-1.84 12.68 1 12.16 9zM134.241 159.559c-2.6 10.2 1.2 18.88 4.84 21.08-1.36 3.12-5.2 6.4-11.04 9.04l-.04.04c-6.04.96-22.68 9.84-27.28 12.36-5.04-2.76-24.72-13.24-28.72-12.44l-.04-.12c-5.96-2.72-9.76-6.08-10.52-9l-.08-.24c3.56-2.72 7.16-11.24 4.32-20.72 13.88 12.56 23.76 18 28.96 18 .24 0 2.48-1.32 6-1.32 3.6 0 6.08 1.32 6.32 1.32 1.92 0 17.08-7.44 27.28-18z" id="Shape" fill="#fff"/><path d="M100.002 231c-40.078 0-70.371-4.539-88.727-8.348-4.953-1.027-8.799-4.711-10.041-9.613-1.24-4.906.393-9.984 4.266-13.246 13.305-11.207 31.27-18.809 53.396-22.594 1.596-.75 5.525-7.883 2.945-16.512-.633-2.113.568-4.344 2.686-4.977 2.119-.621 4.346.57 4.979 2.688 2.598 8.68.506 16.633-2.316 21.18-1.936 3.117-4.402 5.07-6.947 5.504-20.701 3.543-37.387 10.551-49.588 20.828-1.533 1.293-2.154 3.223-1.664 5.164.49 1.938 1.951 3.336 3.91 3.742 17.988 3.734 47.703 8.184 87.102 8.184 38.564 0 68.957-4.531 87.662-8.332 1.967-.402 3.441-1.797 3.947-3.734.504-1.926-.098-3.852-1.607-5.152-12.252-10.566-29.141-17.523-50.197-20.684-2.441-.367-4.723-2.051-6.598-4.875-2.918-4.395-5.195-12.395-2.834-21.668.545-2.137 2.734-3.434 4.863-2.887 2.143.543 3.436 2.723 2.891 4.863-2.287 8.973 1.387 15.926 3.07 16.707 22.369 3.332 40.615 10.918 54.027 22.484 3.816 3.289 5.398 8.359 4.125 13.234-1.275 4.883-5.143 8.543-10.094 9.547-19.064 3.875-50.025 8.496-89.256 8.496zM106.953 181.574c-.803 0-1.385-.23-1.852-.414-.693-.273-2.316-.91-4.459-.91-1.988 0-3.383.586-4.053.871-.455.191-1.08.453-1.934.453-8.756 0-22.053-10.367-31.666-19.066-.213-.191-.404-.406-.57-.641-.689-.965-16.232-22.867-18.229-38.941-6.701-5.152-6.145-15.891-5.764-23.203.076-1.469.148-2.82.148-3.965 0-4.82 2.846-8.215 5.125-10.473-.965-2-1.865-3.125-2.682-4.145-1.021-1.273-2.178-2.719-2.738-5.031-5.695-23.547 4.549-41.523 30.449-53.445.545-1.738.775-6.242.918-9.035.369-7.246.594-11.621 4.211-13.047.867-.344 3.127-.898 5.398 1.301 8.412 8.152 28.938 13.363 41.201 16.473 4 1.016 7.16 1.82 9.131 2.52 22.908 8.133 36.012 28.379 33.387 51.574-.752 6.648-2.422 10.086-3.527 12.363-.295.609-.631 1.301-.678 1.563-.078.43-.223.836-.426 1.207 1.635 2.082 3.053 4.773 3.053 8.176 0 1.16.076 2.523.156 4 .391 7.199.965 17.781-5.734 23.109-1.973 16.086-17.625 38.043-18.318 39.008-.115.16-.24.309-.377.449-10.201 10.535-26.275 19.25-30.172 19.25zm-38.266-24.699c15.699 14.141 23.035 16.34 25.338 16.652 1.326-.523 3.619-1.277 6.617-1.277 2.881 0 5.17.66 6.514 1.137 3.535-1.344 15.422-7.637 24.012-16.41 1.721-2.449 16.227-23.473 16.838-36.551.066-1.398.857-2.66 2.088-3.328 4.264-2.316 3.807-10.75 3.473-16.906-.088-1.637-.168-3.145-.168-4.434 0-2.195-1.975-4.066-3.717-5.715-.363-.344-.703-.668-1-.965-.926-.934-1.336-2.262-1.094-3.555.369-1.98 1.555-3.516 3.25-4.203.539-.219 1.076-.336 1.596-.375.896-1.863 2.033-4.449 2.594-9.395 2.66-23.5-12.779-37.691-28.113-43.137-1.623-.578-4.775-1.375-8.424-2.301-11.451-2.91-29.678-7.535-40.68-15.145-.07 1.063-.125 2.152-.172 3.07-.393 7.656-.701 13.703-4.807 15.547-23.119 10.398-31.627 24.582-26.775 44.641.127.531.342.836 1.205 1.914 1.25 1.559 3.137 3.914 4.938 8.711.551 1.465.195 3.113-.906 4.227-.297.297-.637.621-1 .965-1.742 1.648-3.717 3.52-3.717 5.715 0 1.266-.076 2.758-.16 4.383-.307 5.898-.77 14.813 3.381 16.898 1.293.648 2.133 1.945 2.201 3.387.602 12.906 14.668 33.547 16.689 36.449zM156.338 85.832l-.254-.008c-2.205-.137-3.881-2.035-3.742-4.242.119-1.906-.432-3.336-1.637-4.246-1.367-1.027-3.506-1.336-5.199-.734-9.141 3.25-17.525 1.707-25.633.234-11.311-2.07-21.994-4.016-35.707 6.355-.912.684-2.082.945-3.197.73-1.123-.223-2.094-.918-2.67-1.906-2.764-4.742-4.201-12.398-1.887-19.563-1.883 1.074-3.695 2.313-5.609 3.621-2.666 1.824-5.422 3.707-8.68 5.336-2.104 1.051-4.029 1.891-5.752 2.637-6.242 2.711-6.811 3.223-6.746 6.113.051 2.207-1.699 4.039-3.908 4.09-2.291-.051-4.041-1.699-4.088-3.91-.191-8.531 5.516-11.008 11.557-13.633 1.605-.695 3.398-1.473 5.359-2.453 2.771-1.387 5.186-3.035 7.744-4.785 5.361-3.664 10.908-7.453 19.508-8.441 1.771-.215 3.463.789 4.148 2.43.686 1.645.203 3.547-1.186 4.66-5.32 4.277-6.182 10.781-5.105 15.719 14.586-9.09 26.785-6.859 37.656-4.871 7.402 1.348 14.393 2.625 21.52.098 4.215-1.484 9.193-.75 12.691 1.887 3.387 2.555 5.094 6.508 4.805 11.133-.133 2.121-1.893 3.75-3.988 3.75zM156.002 95h-20c-2.209 0-4-1.789-4-4 0-2.211 1.791-4 4-4h20c2.209 0 4 1.789 4 4 0 2.211-1.791 4-4 4zM64.002 95h-20c-2.209 0-4-1.789-4-4 0-2.211 1.791-4 4-4h20c2.209 0 4 1.789 4 4 0 2.211-1.791 4-4 4zM71.973 193.5c-.555 0-1.119-.113-1.656-.359-7.084-3.227-11.613-7.352-12.752-11.609-.57-2.133.699-4.324 2.832-4.895 2.125-.578 4.326.695 4.898 2.832.271 1.02 2.367 3.672 8.338 6.391 2.01.918 2.898 3.289 1.982 5.297-.672 1.473-2.123 2.344-3.643 2.344zM128.006 193.715c-1.52 0-2.973-.871-3.643-2.344-.916-2.012-.027-4.383 1.984-5.297 5.545-2.523 8.352-5.352 9.133-7.16.871-2.031 3.229-2.969 5.256-2.086 2.029.875 2.965 3.227 2.088 5.258-1.828 4.238-6.502 8.238-13.164 11.27-.537.246-1.1.359-1.654.359zM108.002 151h-16c-2.209 0-4-1.789-4-4 0-2.211 1.791-4 4-4h16c2.209 0 4 1.789 4 4 0 2.211-1.791 4-4 4z" id="Shape" fill="#3a64b7"/><path d="M82.157 122.999h-10.156c-8.836 0-16-7.164-16-16v-16h44v20l-2.54 3.81c-3.411 5.117-9.154 8.19-15.304 8.19z" id="Shape" fill="#e7ebf6"/><path d="M82.158 127h-10.156c-11.027 0-20-8.973-20-20v-16c0-2.211 1.791-4 4-4h44c2.209 0 4 1.789 4 4v20c0 .789-.234 1.563-.672 2.219l-2.541 3.809c-4.162 6.246-11.127 9.973-18.631 9.973zm-22.156-32v12c0 6.617 5.383 12 12 12h10.156c4.822 0 9.299-2.395 11.975-6.41l1.869-2.801v-14.789h-36z" id="Shape" fill="#3a64b7"/><path d="M128.001 122.999h-10.156c-6.15 0-11.893-3.074-15.304-8.19l-2.54-3.81v-20h44v16c0 8.836-7.164 16-16 16z" id="Shape" fill="#e7ebf6"/><path d="M128.002 127h-10.156c-7.506 0-14.471-3.727-18.633-9.973l-2.539-3.809c-.438-.656-.672-1.43-.672-2.219v-20c0-2.211 1.791-4 4-4h44c2.209 0 4 1.789 4 4v16c0 11.027-8.973 20-20 20zm-24-17.211l1.867 2.801c2.676 4.016 7.152 6.41 11.977 6.41h10.156c6.617 0 12-5.383 12-12v-12h-36v14.789z" id="Shape" fill="#3a64b7"/><path d="M101.907 202.709s-26.322 14.256-30.322 12.06c-6.498-3.568-7.735-20.335 0-24.973 3.317-1.989 30.322 12.913 30.322 12.913" id="Shape" fill="#fff"/><path d="M72.5 218.957c-1.602 0-2.346-.41-2.84-.68-5.303-2.914-7.309-10.051-7.418-15.762-.139-7.293 2.586-13.332 7.287-16.148 1.85-1.109 5.299-3.168 34.311 12.84 1.279.707 2.072 2.059 2.066 3.52-.006 1.461-.809 2.805-2.096 3.5-19.607 10.621-27.672 12.73-31.311 12.73zm.529-25.281c-1.785 1.559-2.861 4.848-2.787 8.688.078 4.113 1.461 7.445 2.877 8.629 2.85-.23 11.563-3.98 20.217-8.328-8.633-4.473-17.307-8.445-20.307-8.988z" id="Shape" fill="#3a64b7"/><path d="M99.532 202.709s26.322 14.256 30.322 12.06c6.497-3.568 7.735-20.335 0-24.973-3.317-1.989-30.322 12.913-30.322 12.913" id="Shape" fill="#fff"/><path d="M128.938 218.957c-3.639 0-11.701-2.109-31.311-12.73-1.287-.695-2.09-2.039-2.096-3.5-.006-1.461.787-2.813 2.068-3.52 29.016-16.012 32.461-13.945 34.311-12.84 4.701 2.816 7.424 8.855 7.285 16.152-.107 5.707-2.113 12.848-7.418 15.758-.494.27-1.238.68-2.84.68zm-20.836-16.293c8.656 4.344 17.369 8.098 20.219 8.328 1.414-1.184 2.799-4.512 2.877-8.625.072-3.844-1.002-7.133-2.787-8.691-3.002.543-11.674 4.516-20.309 8.988z" fill="#3a64b7"/></g></svg>
