<svg width="127" height="127" viewBox="0 0 127 127" xmlns="http://www.w3.org/2000/svg"><title>Jane</title><desc>Jane</desc><g fill="none"><path d="M101.359 47.742c-.693 6.09-1.899 8.019-2.261 9.798 3.045 2.894 5.095 16.069-1.236 23.606-.513 10.461-6.482 21.013-10.733 26.771-.603.814-1.236 1.598-1.929 2.321-5.969 6.602-14.471 10.16-21.948 10.16-7.356 0-14.591-2.08-21.978-10.371-.573-.663-1.146-1.357-1.749-2.11-4.462-5.638-10.22-16.31-10.733-26.771-6.542-7.537-4.311-20.711-1.236-23.606-1.929-5.095-2.02-7.477-2.563-9.798 0 0 33.072 15.677 62.315-12.24 4.402 17.124 14.049 12.24 14.049 12.24z" id="Shape" fill="#fff"/><path d="M108.021 120.247c-7.235 1.929-15.014 3.196-21.706 3.075l-.935.121c-.693-3.799-.301-8.26.03-13.024l-.211-.181c.693-.724 1.326-1.507 1.929-2.321 4.251-5.758 10.22-16.31 10.733-26.771 6.331-7.537 4.281-20.711 1.236-23.606.362-1.779 1.568-3.708 2.261-9.798 0 0-9.647 4.884-14.049-12.24-29.243 27.917-62.315 12.24-62.315 12.24.543 2.321.633 4.703 2.563 9.798-3.075 2.894-5.306 16.069 1.236 23.606.513 10.461 6.271 21.134 10.733 26.771.603.754 1.176 1.447 1.749 2.11l-.09.09c.332 4.944.784 9.497.06 13.386l-.995-.151c-7.024-.181-14.712-1.718-21.767-3.799-11.516-3.377-17.878-15.616-14.23-27.073 5.517-17.214 1.055-31.173 4.371-48.327 4.582-23.726 26.741-40.307 54.688-40.307 27.947 0 48.719 17.335 54.085 40.307 4.07 17.244-.573 31.414 5.216 48.99 3.799 11.516-2.864 23.937-14.591 27.103z" id="Shape" fill="#e7ebf6"/><path d="M17.641 122.442c-6.311-1.852-11.485-6.068-14.567-11.874-3.118-5.873-3.715-12.618-1.68-18.992 2.94-9.206 2.888-17.426 2.834-26.126-.044-6.913-.088-14.058 1.422-21.878 4.864-25.172 28.576-42.751 57.663-42.751 28.128 0 51.048 17.132 57.033 42.634 1.918 8.173 1.965 15.66 2.011 22.899.053 8.597.105 16.72 3.113 25.849 2.076 6.297 1.456 13.263-1.7 19.107-3.188 5.903-8.501 10.107-14.958 11.838-5.772 1.549-14.369 3.365-22.562 3.174-1.665-.038-2.984-1.419-2.946-3.082.037-1.666 1.447-2.95 3.081-2.947 5.84.156 13.243-.922 20.865-2.968 4.839-1.298 8.822-4.451 11.214-8.879 2.407-4.457 2.862-9.554 1.279-14.353-3.306-10.034-3.362-19.016-3.417-27.701-.046-7.225-.088-14.046-1.852-21.56-5.332-22.717-25.893-37.982-51.163-37.982-26.158 0-47.435 15.571-51.743 37.864-1.398 7.237-1.354 14.079-1.313 20.697.054 8.788.112 17.877-3.119 27.996-1.537 4.817-1.089 9.907 1.262 14.335 2.314 4.357 6.2 7.525 10.94 8.915 7.661 2.252 14.921 3.518 20.997 3.665 1.663.041 2.981 1.422 2.94 3.088-.04 1.64-1.381 2.941-3.012 2.941-6.668-.162-14.466-1.513-22.624-3.91zM63.248 123.411c-10.571 0-18.619-4.201-26.095-13.628-4.752-5.988-10.46-16.67-11.299-27.466-5.968-7.775-4.911-19.896-1.681-25.263-1.064-3.08-1.446-5.129-1.761-6.819-.116-.627-.222-1.198-.359-1.764-.277-1.128.122-2.311 1.02-3.047.901-.736 2.14-.886 3.193-.395 1.275.598 31.633 14.388 58.953-11.706.773-.736 1.881-1.01 2.909-.718 1.029.294 1.825 1.113 2.092 2.146 1.794 6.96 4.31 9.392 6.105 10.207 1.93.871 3.667.112 3.683.106.986-.503 2.173-.418 3.081.218.91.633 1.397 1.716 1.272 2.815-.518 4.525-1.332 6.983-1.87 8.609l-.078.233c3.187 5.264 4.262 17.473-1.593 25.349-.986 12.639-8.84 24.133-11.274 27.418-6.172 8.326-16.494 13.705-26.297 13.705zm-34.199-71.006c.299 1.128.711 2.449 1.331 4.081.433 1.142.134 2.432-.757 3.268-1.722 1.616-4.154 12.986 1.451 19.428.445.509.704 1.154.737 1.831.446 9.086 5.376 19.116 10.063 25.025 7.933 9.995 15.255 11.344 21.373 11.344 7.958 0 16.378-4.422 21.454-11.267 4.619-6.236 9.716-16.104 10.157-25.101.032-.659.28-1.287.702-1.79 5.482-6.533 3.144-17.891 1.471-19.487-.739-.704-1.072-1.734-.883-2.738.125-.662.34-1.345.617-2.185.286-.863.632-1.911.96-3.412-1.185-.059-2.508-.324-3.891-.951-3.383-1.534-6.058-4.758-7.981-9.61-22.362 18.689-46.362 14.668-56.804 11.564zM82.208 71.771h-.601c-1.665 0-3.015-1.348-3.015-3.015 0-1.666 1.35-3.015 3.015-3.015h.601c1.665 0 3.015 1.348 3.015 3.015 0 1.666-1.35 3.015-3.015 3.015zM52.042 71.771h-.601c-1.665 0-3.015-1.348-3.015-3.015 0-1.666 1.35-3.015 3.015-3.015h.601c1.665 0 3.015 1.348 3.015 3.015 0 1.666-1.35 3.015-3.015 3.015zM70.277 68.968c-.736 0-1.474-.268-2.054-.807-1.219-1.136-1.288-3.044-.153-4.263 3.37-3.615 8.389-2.67 12.423-1.911 1.515.286 4.335.824 4.937.406 1.058-1.287 2.951-1.466 4.24-.406 1.285 1.06 1.465 2.962.406 4.248-2.629 3.2-6.917 2.394-10.702 1.675-2.713-.506-5.782-1.092-6.891.097-.593.636-1.4.96-2.207.96zM63.313 105.234c-4.457 0-6.963-1.036-7.235-1.154-1.525-.665-2.223-2.444-1.557-3.969.665-1.528 2.436-2.226 3.969-1.56h-.001c.003 0 1.687.654 4.825.654 3.162 0 4.847-.662 4.864-.668 1.537-.624 3.29.106 3.926 1.622.637 1.519-.044 3.262-1.554 3.922-.272.118-2.778 1.154-7.235 1.154zM63.313 91.367c-1.909 0-3.094-.771-3.412-1.01-1.335-.992-1.612-2.882-.618-4.219.922-1.237 2.607-1.572 3.919-.813.15 0 .166.015.107.065l.004.003c1.32-.839 3.085-.524 4.032.748.994 1.337.714 3.227-.623 4.219-.318.236-1.503 1.007-3.409 1.007zm.183-5.85l.006.006-.006-.006zm-.362-.003l-.006.006.006-.006zm.356 0l.006.003-.006-.003zm-.35-.003l-.006.003.006-.003zm.344-.003l.004.003-.004-.003zm-.178-.118l-.165.121.171-.118-.006-.003zM57.179 68.965c-.71 0-1.422-.25-1.996-.757-1.809-1.596-4.085-1.234-7.619-.442-3.239.718-7.263 1.622-10.322-1.245-1.214-1.139-1.276-3.047-.137-4.26 1.136-1.216 3.043-1.275 4.262-.138.727.68 2.751.233 4.886-.241 3.662-.818 8.687-1.937 12.926 1.811 1.247 1.104 1.363 3.009.261 4.254-.596.674-1.425 1.019-2.26 1.019z" fill="#3a64b7"/></g></svg>
