<svg width="97" height="126" viewBox="0 0 97 126" xmlns="http://www.w3.org/2000/svg"><title>Paul</title><desc>Created with Sketch.</desc><g fill="none"><path d="M48.26 84.666c16.51-.212 28.847-.756 34.139 8.83l.242.06c-1.633 8.315-3.719 15.724-3.719 15.724-1.391 1.451-3.084 2.812-4.899 4.082-8.195 5.745-19.201 9.525-20.38 9.525-.181 0-2.026-.998-4.778-.998-2.661 0-4.354.998-4.536.998-3.326 0-12.488-2.963-21.59-9.616-1.633-1.21-3.296-2.54-4.899-3.991 0 0-2.117-7.439-3.719-15.784 6.531-9.585 17.024-8.618 34.139-8.83z" id="Shape" fill="#e7ebf6"/><path d="M41.819 46.112c18.566 1.965 51.677-11.4 49.137 4.112l.181.091c-.605 1.361-1.149 2.238-1.3 3.115 0 0-2.147-1.512-2.51.423 1.482 1.512 4.445 3.75 4.445 7.197 0 5.231-1.3 15.542-7.257 18.778-.181 4.112-.968 9.071-1.875 13.728l-.242-.06c-5.292-9.585-17.629-9.041-34.139-8.83-17.115.212-27.607-.756-34.139 8.83-.907-4.657-1.693-9.585-1.875-13.668-5.957-2.963-7.287-13.547-7.287-18.778 0-3.447 2.963-5.685 4.445-7.197-.786-2.117-1.572-3.447-2.268-4.445l.151-.091c-.484-8.739 14.877-13.789 19.171-13.547-1.482 5.201 5.987 9.344 15.361 10.341z" id="Shape" fill="#fff"/><path d="M26.458 35.771c-4.294-.242-19.655 4.808-19.171 13.547l-.151.091c-1.149-1.663-2.117-2.359-2.48-3.931-4.657-19.262 6.441-30.238 21.953-37.223 2.963-1.33 6.652-2.449 8.406 4.082 5.05-15.361 28.877-7.136 34.713-5.05 14.575 5.171 25.279 18.022 23.253 35.802-.393 3.538-1.149 5.685-1.845 7.227l-.181-.091c2.54-15.512-30.571-2.147-49.137-4.112-9.374-.998-16.843-5.14-15.361-10.341z" id="Shape" fill="#e7ebf6"/><path d="M33.486 70.151h-.602c-1.67 0-3.024-1.354-3.024-3.024s1.354-3.024 3.024-3.024h.602c1.67 0 3.024 1.354 3.024 3.024s-1.354 3.024-3.024 3.024zM63.744 70.151h-.602c-1.67 0-3.024-1.354-3.024-3.024s1.354-3.024 3.024-3.024h.602c1.67 0 3.024 1.354 3.024 3.024s-1.354 3.024-3.024 3.024zM40.443 66.522h-14.74c-1.67 0-3.024-1.354-3.024-3.024s1.354-3.024 3.024-3.024h14.74c1.67 0 3.024 1.354 3.024 3.024s-1.354 3.024-3.024 3.024zM71.139 66.522h-14.74c-1.67 0-3.024-1.354-3.024-3.024s1.354-3.024 3.024-3.024h14.74c1.67 0 3.024 1.354 3.024 3.024s-1.354 3.024-3.024 3.024zM53.637 125.921c-.605 0-1.045-.173-1.398-.312-.526-.205-1.753-.687-3.374-.687-1.503 0-2.56.443-3.067.656-.344.145-.815.343-1.459.343-5.283 0-18.135-5.008-28.528-14.41-.421-.382-.726-.874-.881-1.42-.201-.713-4.734-16.866-5.615-28.509-6.991-5.141-7.368-17.879-7.368-20.532 0-3.645 2.151-6.21 3.873-7.917-.729-1.512-1.409-2.359-2.027-3.132-.772-.963-1.646-2.055-2.071-3.806-4.348-17.988 3.604-31.675 23.64-40.684 1.541-.695 4.75-2.139 7.886-.648.659.312 1.255.722 1.795 1.234 1.323-1.581 2.969-2.858 4.927-3.82 6.876-3.372 17.232-2.646 30.78 2.165 17.316 6.151 27.222 21.453 25.237 38.986-.568 5.026-1.831 7.626-2.665 9.346-.223.461-.477.983-.512 1.183-.059.323-.168.632-.322.912 1.236 1.575 2.306 3.608 2.306 6.181 0 2.606-.375 15.162-7.366 20.486-.871 11.645-5.395 27.837-5.594 28.55-.136.483-.39.924-.74 1.286-7.927 8.187-24.75 14.549-27.456 14.549zm-33.117-18.316c9.449 8.293 19.777 11.903 23.319 12.241 1-.394 2.742-.972 5.026-.972 2.314 0 4.124.561 5.104.921 2.805-.732 15.592-5.665 22.247-12.101.943-3.489 4.812-18.295 5.265-27.998.05-1.056.648-2.011 1.578-2.516 3.907-2.122 5.686-9.85 5.686-16.132 0-1.66-1.493-3.074-2.81-4.322-.275-.26-.532-.502-.756-.729-.7-.704-1.008-1.708-.827-2.684.279-1.5 1.174-2.659 2.457-3.18.408-.165.814-.252 1.208-.283.676-1.407 1.536-3.362 1.959-7.102 2.011-17.763-9.659-28.491-21.251-32.608-14.89-5.287-22.407-4.245-26.092-2.435-2.33 1.144-3.879 2.969-4.735 5.583-.416 1.27-1.559 2.173-2.954 2.08-1.336-.035-2.491-.945-2.839-2.235-.483-1.794-1.082-2.633-1.45-2.807-.408-.19-1.352.041-2.816.7-17.475 7.858-23.907 18.581-20.239 33.746.096.402.26.632.912 1.447.943 1.178 2.371 2.959 3.731 6.585.416 1.107.148 2.355-.685 3.194-.224.226-.48.47-.754.729-1.317 1.248-2.81 2.661-2.81 4.322 0 5.336 1.491 14.024 5.6 16.088.976.49 1.611 1.469 1.663 2.56.45 9.622 4.274 24.266 5.262 27.908zM82.402 96.509c-1.066 0-2.098-.563-2.65-1.561-4.022-7.279-13.399-7.503-29.631-7.283l-1.825.025c-1.701.022-3.335.032-4.908.043-15.097.094-21.973.433-26.782 7.461-.943 1.378-2.823 1.729-4.204.787-1.378-.943-1.73-2.824-.787-4.204 6.798-9.935 17.257-10 31.734-10.092 1.559-.01 3.18-.021 4.866-.043l1.82-.025c16.229-.227 29.038-.402 35.01 10.405.808 1.462.276 3.301-1.184 4.11-.464.255-.966.376-1.46.376zM90.97 53.243c-.161 0-.323-.012-.489-.04-1.648-.267-2.767-1.82-2.498-3.47.32-1.974-.238-2.54-.421-2.724-2.519-2.556-13.334-.951-22.024.34-8.354 1.239-16.99 2.519-24.028 1.769-7.923-.842-14.223-3.675-16.851-7.579-.512-.76-.886-1.553-1.121-2.367-3.298.775-8.255 2.724-11.161 5.616-1.481 1.472-2.162 2.903-2.082 4.373.09 1.667-1.189 3.092-2.857 3.182-1.627.077-3.092-1.189-3.182-2.857-.173-3.198 1.161-6.305 3.855-8.986 5.036-5.013 14.478-7.982 18.525-7.738.915.053 1.758.521 2.289 1.27.532.75.692 1.701.439 2.582-.108.376-.155.853.312 1.546 1.305 1.94 5.67 4.22 12.475 4.943 6.272.669 14.521-.555 22.5-1.738 12.097-1.795 22.543-3.343 27.219 1.395 1.921 1.949 2.622 4.621 2.082 7.943-.241 1.484-1.524 2.538-2.981 2.538zM48.313 102.234c-4.457 0-6.963-1.036-7.235-1.154-1.525-.665-2.223-2.444-1.557-3.969.665-1.528 2.436-2.226 3.969-1.56h-.001c.003 0 1.687.654 4.825.654 3.162 0 4.847-.662 4.864-.668 1.537-.624 3.29.106 3.926 1.622.637 1.519-.044 3.262-1.554 3.922-.272.118-2.778 1.154-7.235 1.154z" fill="#3a64b7"/></g></svg>