<svg width="200" height="200" viewBox="0 0 200 200" xmlns="http://www.w3.org/2000/svg"><title>Robot</title><desc>Created with Sketch.</desc><g fill="none"><circle fill="#e7ebf6" cx="100" cy="100" r="100"/><g transform="translate(37 36)"><path d="M93.133 86.783h-55.033c-3.507 0-6.35-2.843-6.35-6.35v-21.167c0-3.507 2.843-6.35 6.35-6.35h55.033c3.507 0 6.35 2.843 6.35 6.35v21.167c0 3.507-2.843 6.35-6.35 6.35z" id="Shape" fill="#fff"/><path d="M93.133 88.9h-55.033c-4.669 0-8.467-3.798-8.467-8.467v-21.167c0-4.668 3.797-8.467 8.467-8.467h55.033c4.669 0 8.467 3.798 8.467 8.467v21.167c0 4.668-3.797 8.467-8.467 8.467zm-55.033-33.867c-2.334 0-4.233 1.899-4.233 4.233v21.167c0 2.335 1.9 4.233 4.233 4.233h55.033c2.334 0 4.233-1.899 4.233-4.233v-21.167c0-2.335-1.9-4.233-4.233-4.233h-55.033z" id="Shape" fill="#3a64b7"/><path d="M84.667 44.45h-38.1c-3.507 0-6.35-2.843-6.35-6.35v-29.633c0-3.507 2.843-6.35 6.35-6.35h38.1c3.507 0 6.35 2.843 6.35 6.35v29.633c0 3.507-2.843 6.35-6.35 6.35z" id="Shape" fill="#fff"/><path d="M84.667 46.567h-38.1c-4.669 0-8.467-3.798-8.467-8.467v-29.633c0-4.668 3.797-8.467 8.467-8.467h38.1c4.669 0 8.467 3.798 8.467 8.467v29.633c0 4.668-3.797 8.467-8.467 8.467zm-38.1-42.333c-2.334 0-4.233 1.899-4.233 4.233v29.633c0 2.335 1.9 4.233 4.233 4.233h38.1c2.334 0 4.233-1.899 4.233-4.233v-29.633c0-2.335-1.9-4.233-4.233-4.233h-38.1z" id="Shape" fill="#3a64b7"/><circle id="Oval" fill="#e7ebf6" cx="55.033" cy="16.933" r="6.35"/><path d="M55.033 25.4c-4.669 0-8.467-3.798-8.467-8.467 0-4.668 3.797-8.467 8.467-8.467 4.669 0 8.467 3.798 8.467 8.467 0 4.668-3.797 8.467-8.467 8.467zm0-12.7c-2.334 0-4.233 1.899-4.233 4.233 0 2.335 1.9 4.233 4.233 4.233 2.334 0 4.233-1.899 4.233-4.233 0-2.335-1.9-4.233-4.233-4.233z" id="Shape" fill="#3a64b7"/><circle fill="#e7ebf6" cx="76.2" cy="16.933" r="6.35"/><path d="M76.2 25.4c-4.669 0-8.467-3.798-8.467-8.467 0-4.668 3.797-8.467 8.467-8.467 4.669 0 8.467 3.798 8.467 8.467 0 4.668-3.797 8.467-8.467 8.467zm0-12.7c-2.334 0-4.233 1.899-4.233 4.233 0 2.335 1.9 4.233 4.233 4.233 2.334 0 4.233-1.899 4.233-4.233 0-2.335-1.9-4.233-4.233-4.233zM48.683 38.1c-1.17 0-2.117-.948-2.117-2.117v-4.233c0-1.169.947-2.117 2.117-2.117s2.117.948 2.117 2.117v4.233c0 1.169-.947 2.117-2.117 2.117zM57.15 38.1c-1.17 0-2.117-.948-2.117-2.117v-4.233c0-1.169.947-2.117 2.117-2.117s2.117.948 2.117 2.117v4.233c0 1.169-.947 2.117-2.117 2.117zM65.617 38.1c-1.17 0-2.117-.948-2.117-2.117v-4.233c0-1.169.947-2.117 2.117-2.117s2.117.948 2.117 2.117v4.233c0 1.169-.947 2.117-2.117 2.117zM74.083 38.1c-1.17 0-2.117-.948-2.117-2.117v-4.233c0-1.169.947-2.117 2.117-2.117s2.117.948 2.117 2.117v4.233c0 1.169-.947 2.117-2.117 2.117zM82.55 38.1c-1.17 0-2.117-.948-2.117-2.117v-4.233c0-1.169.947-2.117 2.117-2.117s2.117.948 2.117 2.117v4.233c0 1.169-.947 2.117-2.117 2.117z" id="Shape" fill="#3a64b7"/><path d="M44.45 127c-1.17 0-2.117-.948-2.117-2.117v-6.35c0-1.169.947-2.117 2.117-2.117s2.117.948 2.117 2.117v6.35c0 1.169-.947 2.117-2.117 2.117zM52.917 127c-1.17 0-2.117-.948-2.117-2.117v-6.35c0-1.169.947-2.117 2.117-2.117s2.117.948 2.117 2.117v6.35c0 1.169-.947 2.117-2.117 2.117zM78.317 127c-1.17 0-2.117-.948-2.117-2.117v-6.35c0-1.169.947-2.117 2.117-2.117s2.117.948 2.117 2.117v6.35c0 1.169-.947 2.117-2.117 2.117zM86.783 127c-1.17 0-2.117-.948-2.117-2.117v-6.35c0-1.169.947-2.117 2.117-2.117s2.117.948 2.117 2.117v6.35c0 1.169-.947 2.117-2.117 2.117z" id="Shape" fill="#0A94E3"/><path d="M95.25 31.75h-4.233v-16.933h4.233c2.338 0 4.233 1.895 4.233 4.233v8.467c0 2.338-1.895 4.233-4.233 4.233z" id="Shape" fill="#e7ebf6"/><path d="M95.25 33.867h-4.233c-1.17 0-2.117-.948-2.117-2.117v-16.933c0-1.169.947-2.117 2.117-2.117h4.233c3.502 0 6.35 2.848 6.35 6.35v8.467c0 3.502-2.848 6.35-6.35 6.35zm-2.117-4.233h2.117c1.168 0 2.117-.95 2.117-2.117v-8.467c0-1.167-.949-2.117-2.117-2.117h-2.117v12.7z" id="Shape" fill="#3a64b7"/><path d="M40.217 31.75h-4.233c-2.338 0-4.233-1.895-4.233-4.233v-8.467c0-2.338 1.895-4.233 4.233-4.233h4.233v16.933z" id="Shape" fill="#e7ebf6"/><path d="M40.217 33.867h-4.233c-3.502 0-6.35-2.848-6.35-6.35v-8.467c0-3.502 2.848-6.35 6.35-6.35h4.233c1.17 0 2.117.948 2.117 2.117v16.933c0 1.169-.947 2.117-2.117 2.117zm-4.233-16.933c-1.168 0-2.117.95-2.117 2.117v8.467c0 1.167.949 2.117 2.117 2.117h2.117v-12.7h-2.117z" id="Shape" fill="#3a64b7"/><path id="Rectangle-path" fill="#e7ebf6" d="M52.917 44.45h25.4v8.467h-25.4z"/><path d="M78.317 55.033h-25.4c-1.17 0-2.117-.948-2.117-2.117v-8.467c0-1.169.947-2.117 2.117-2.117h25.4c1.17 0 2.117.948 2.117 2.117v8.467c0 1.169-.947 2.117-2.117 2.117zm-23.283-4.233h21.167v-4.233h-21.167v4.233zM31.75 59.267h-12.7c-5.835 0-10.583-4.748-10.583-10.583v-6.35c0-1.169.947-2.117 2.117-2.117s2.117.948 2.117 2.117v6.35c0 3.502 2.848 6.35 6.35 6.35h12.7c1.17 0 2.117.948 2.117 2.117s-.947 2.117-2.117 2.117zM6.35 29.633c-1.17 0-2.117-.948-2.117-2.117v-8.467c0-1.169.947-2.117 2.117-2.117s2.117.948 2.117 2.117v8.467c0 1.169-.947 2.117-2.117 2.117zM14.817 29.633c-1.17 0-2.117-.948-2.117-2.117v-8.467c0-1.169.947-2.117 2.117-2.117s2.117.948 2.117 2.117v8.467c0 1.169-.947 2.117-2.117 2.117zM116.417 74.083c-1.17 0-2.117-.948-2.117-2.117v-6.35c0-3.502-2.848-6.35-6.35-6.35h-8.467c-1.17 0-2.117-.948-2.117-2.117s.947-2.117 2.117-2.117h8.467c5.835 0 10.583 4.748 10.583 10.583v6.35c0 1.169-.947 2.117-2.117 2.117zM120.65 97.367c-1.17 0-2.117-.948-2.117-2.117v-8.467c0-1.169.947-2.117 2.117-2.117s2.117.948 2.117 2.117v8.467c0 1.169-.947 2.117-2.117 2.117zM112.183 97.367c-1.17 0-2.117-.948-2.117-2.117v-8.467c0-1.169.947-2.117 2.117-2.117s2.117.948 2.117 2.117v8.467c0 1.169-.947 2.117-2.117 2.117z" id="Shape" fill="#3a64b7"/><path fill="#e7ebf6" d="M44.45 65.617h12.7v8.467h-12.7z"/><path d="M57.15 76.2h-12.7c-1.17 0-2.117-.948-2.117-2.117v-8.467c0-1.169.947-2.117 2.117-2.117h12.7c1.17 0 2.117.948 2.117 2.117v8.467c0 1.169-.947 2.117-2.117 2.117zm-10.583-4.233h8.467v-4.233h-8.467v4.233zM48.683 105.833c-1.17 0-2.117-.948-2.117-2.117v-16.933c0-1.169.947-2.117 2.117-2.117s2.117.948 2.117 2.117v16.933c0 1.169-.947 2.117-2.117 2.117zM82.55 105.833c-1.17 0-2.117-.948-2.117-2.117v-16.933c0-1.169.947-2.117 2.117-2.117s2.117.948 2.117 2.117v16.933c0 1.169-.947 2.117-2.117 2.117zM69.85 74.083c-1.17 0-2.117-.948-2.117-2.117v-4.233c0-1.169.947-2.117 2.117-2.117s2.117.948 2.117 2.117v4.233c0 1.169-.947 2.117-2.117 2.117zM78.317 74.083c-1.17 0-2.117-.948-2.117-2.117v-4.233c0-1.169.947-2.117 2.117-2.117s2.117.948 2.117 2.117v4.233c0 1.169-.947 2.117-2.117 2.117zM86.783 74.083c-1.17 0-2.117-.948-2.117-2.117v-4.233c0-1.169.947-2.117 2.117-2.117s2.117.948 2.117 2.117v4.233c0 1.169-.947 2.117-2.117 2.117z" id="Shape" fill="#3a64b7"/><path d="M10.583 42.333c-4.676 0-8.467-3.791-8.467-8.467v-6.35h16.933v6.35c0 4.676-3.791 8.467-8.467 8.467z" id="Shape" fill="#fff"/><path d="M10.583 44.45c-5.835 0-10.583-4.748-10.583-10.583v-6.35c0-1.169.947-2.117 2.117-2.117h16.933c1.17 0 2.117.948 2.117 2.117v6.35c0 5.835-4.748 10.583-10.583 10.583zm-6.35-14.817v4.233c0 3.502 2.848 6.35 6.35 6.35s6.35-2.848 6.35-6.35v-4.233h-12.7z" id="Shape" fill="#3a64b7"/><path d="M116.417 71.967c4.676 0 8.467 3.791 8.467 8.467v6.35h-16.933v-6.35c0-4.676 3.791-8.467 8.467-8.467z" id="Shape" fill="#fff"/><path d="M124.883 88.9h-16.933c-1.17 0-2.117-.948-2.117-2.117v-6.35c0-5.835 4.748-10.583 10.583-10.583s10.583 4.748 10.583 10.583v6.35c0 1.169-.947 2.117-2.117 2.117zm-14.817-4.233h12.7v-4.233c0-3.502-2.848-6.35-6.35-6.35s-6.35 2.848-6.35 6.35v4.233z" id="Shape" fill="#3a64b7"/><path d="M61.383 124.883h-25.4v-8.467c0-7.014 5.686-12.7 12.7-12.7 7.014 0 12.7 5.686 12.7 12.7v8.467z" id="Shape" fill="#fff"/><path d="M61.383 127h-25.4c-1.17 0-2.117-.948-2.117-2.117v-8.467c0-8.17 6.648-14.817 14.817-14.817s14.817 6.647 14.817 14.817v8.467c0 1.169-.947 2.117-2.117 2.117zm-23.283-4.233h21.167v-6.35c0-5.835-4.748-10.583-10.583-10.583s-10.583 4.748-10.583 10.583v6.35z" id="Shape" fill="#3a64b7"/><path d="M95.25 124.883h-25.4v-8.467c0-7.014 5.686-12.7 12.7-12.7 7.014 0 12.7 5.686 12.7 12.7v8.467z" id="Shape" fill="#fff"/><path d="M95.25 127h-25.4c-1.17 0-2.117-.948-2.117-2.117v-8.467c0-8.17 6.648-14.817 14.817-14.817s14.817 6.647 14.817 14.817v8.467c0 1.169-.947 2.117-2.117 2.117zm-23.283-4.233h21.167v-6.35c0-5.835-4.748-10.583-10.583-10.583s-10.583 4.748-10.583 10.583v6.35z" fill="#3a64b7"/></g></g></svg>