<svg width="108" height="126" viewBox="0 0 108 126" xmlns="http://www.w3.org/2000/svg"><title>Tracy</title><desc>Created with Sketch.</desc><g fill="none"><path d="M90.774 61.051c0 5.231-1.3 15.542-7.257 18.778-.544 11.49-10.251 29.452-10.251 29.452-7.711 7.983-19.171 13.607-20.622 13.607-.181 0-2.056-.998-4.778-.998-2.661 0-4.354.998-4.536.998-3.931 0-11.4-4.112-21.892-13.607 0 0-9.676-17.961-10.19-29.452-5.957-2.963-7.287-13.547-7.287-18.778 0-3.447 2.963-5.685 4.445-7.197l-.333-2.449 18.113 1.512c6.683 0 12.125-6.925 12.125-13.607l30.238 2.056c5.957 0 11.581-1.603 16.54-4.415 1.845 6.229 1.965 8.134 1.24 16.903 1.482 1.512 4.445 3.75 4.445 7.197z" id="Shape" fill="#fff"/><path d="M38.311 39.31c0 6.683-5.443 13.607-12.125 13.607l-18.113-1.512s-2.963-7.62-2.963-19.05 6.562-26.126 23.253-26.126c5.08.242 10.372.363 15.784.363 18.596 0 39.007-1.33 60.688-3.568 0 14.091-8.013 27.335-19.745 33.927-4.959 2.812-10.583 4.415-16.54 4.415l-30.238-2.056z" id="Shape" fill="#e7ebf6"/><path d="M52.643 125.91c-.602 0-1.031-.165-1.409-.313-.576-.221-1.769-.685-3.369-.685-1.503 0-2.557.44-3.065.653-.369.154-.827.345-1.471.345-6.629 0-16.669-7.825-23.922-14.39-.257-.23-.47-.505-.635-.806-.39-.726-9.175-17.154-10.421-29.119-7.037-5.112-7.415-17.883-7.415-20.544 0-3.939 2.51-6.615 4.264-8.307l-.127-.933c-.224-1.654.933-3.177 2.59-3.405 1.657-.216 3.177.933 3.405 2.59l.334 2.448c.124.924-.183 1.857-.839 2.525-.236.242-.505.499-.797.777-1.302 1.243-2.782 2.652-2.782 4.305 0 5.339 1.494 14.024 5.611 16.07.983.49 1.624 1.474 1.674 2.572.434 9.694 8.129 24.893 9.591 27.702 11.756 10.563 17.269 12.199 18.996 12.432 1.004-.393 2.737-.963 5.008-.963 2.173 0 3.916.502 4.926.859 2.649-.998 11.546-5.687 18.007-12.246 1.341-2.554 9.234-17.989 9.697-27.79.05-1.057.65-2.011 1.577-2.516 3.901-2.12 5.679-9.842 5.679-16.12 0-1.651-1.476-3.059-2.779-4.302-.292-.278-.564-.537-.803-.783-.614-.626-.924-1.488-.853-2.362.703-8.499.596-9.975-1.125-15.798-.472-1.6.44-3.284 2.043-3.756 1.589-.478 3.281.44 3.756 2.043 1.846 6.24 2.094 8.537 1.468 16.581 1.754 1.686 4.341 4.382 4.341 8.377 0 2.607-.375 15.184-7.382 20.493-1.255 11.968-10.096 28.446-10.489 29.172-.13.242-.295.464-.484.661-7.681 7.952-19.838 14.531-22.8 14.531zm20.623-16.631h.03-.03zM38.312 42.333l-.21-.006c-1.665-.115-2.923-1.559-2.811-3.225.171-2.478.027-4.92-.431-7.258-.319-1.639.75-3.228 2.389-3.546 1.627-.331 3.228.747 3.546 2.389.558 2.855.735 5.826.532 8.829-.109 1.595-1.438 2.817-3.015 2.817zM26.185 55.94l-18.364-1.524c-1.152-.094-2.15-.839-2.566-1.916-.13-.334-3.169-8.283-3.169-20.145 0-14.487 9.024-29.151 26.275-29.151 5.156.242 10.418.363 15.786.363 17.481 0 37.231-1.161 60.376-3.552.842-.071 1.701.189 2.336.765.635.573.998 1.388.998 2.244 0 14.945-8.354 29.296-21.282 36.56-5.543 3.142-11.776 4.804-18.028 4.804l-27.56-1.866c-1.447 6.851-7.306 13.418-14.803 13.418zm-15.86-7.382l16.111 1.347c4.875-.012 8.85-5.702 8.85-10.595 0-.839.348-1.639.96-2.209.611-.57 1.435-.842 2.268-.809l30.238 2.055c5.079-.006 10.143-1.358 14.847-4.028l.009-.006c10.084-5.664 16.914-16.38 18.04-27.926-28.968 2.876-52.627 3.851-73.431 2.861-15.854.003-20.083 15.116-20.083 23.107 0 7.583 1.385 13.436 2.191 16.203zM32.489 70.147h-.602c-1.671 0-3.024-1.352-3.024-3.024 0-1.671 1.352-3.024 3.024-3.024h.602c1.671 0 3.024 1.352 3.024 3.024 0 1.671-1.352 3.024-3.024 3.024zM62.748 70.156h-.602c-1.671 0-3.024-1.352-3.024-3.024 0-1.671 1.352-3.024 3.024-3.024h.602c1.671 0 3.024 1.352 3.024 3.024 0 1.671-1.352 3.024-3.024 3.024zM70.148 66.53c-.154 0-.31-.012-.467-.035-.08-.012-7.908-1.202-13.823-.307-1.654.254-3.192-.883-3.443-2.534-.251-1.651.883-3.192 2.534-3.443 6.854-1.045 15.302.254 15.662.307 1.648.257 2.779 1.804 2.522 3.452-.233 1.494-1.521 2.56-2.985 2.56zM47.381 104.115c-7.48 0-11.555-3.163-11.995-3.523-1.29-1.057-1.482-2.962-.422-4.255 1.054-1.29 2.965-1.482 4.255-.422.083.065 2.841 2.153 8.162 2.153 5.321 0 8.082-2.091 8.197-2.179 1.299-1.01 3.201-.8 4.232.496 1.031 1.293.847 3.163-.431 4.208-.443.36-4.518 3.523-11.998 3.523zM24.646 66.53c-1.465 0-2.752-1.066-2.985-2.557-.257-1.651.871-3.198 2.522-3.455.354-.053 8.809-1.352 15.659-.307 1.651.251 2.785 1.792 2.534 3.443-.251 1.651-1.792 2.788-3.443 2.534-5.938-.895-13.737.295-13.817.307-.159.024-.316.035-.47.035z" fill="#3a64b7"/></g></svg>